%
M48
M72
T01C0.0100
T02C0.0400
T03C0.1200
%
T01
X2200Y2100
X3300Y2700
X4800Y2400
X5800Y2500
X7100Y2700
X6700Y5900
X6000Y5900
X5700Y7400
X4500Y7400
X3300Y7400
X2100Y7400
X3200Y5200
X2800Y4200
X2200Y4200
X1700Y4200
T02
X800Y3700
X800Y2700
X800Y4700
X800Y5700
X800Y6700
X8800Y6200
X8800Y5200
X8800Y4200
X8800Y3200
T03
X7900Y1600
X7900Y7800
M30
