G75*
G70*
%OFA0B0*%
%FSLAX24Y24*%
%IPPOS*%
%LPD*%
%AMOC8*
5,1,8,0,0,1.08239X$1,22.5*
%
%ADD10C,0.0080*%
%ADD11R,0.0300X0.0180*%
%ADD12C,0.0030*%
%ADD13C,0.0160*%
%ADD14C,0.0060*%
%ADD15C,0.0050*%
%ADD16C,0.0040*%
%ADD17C,0.0100*%
D10*
X000780Y000640D02*
X000900Y000820D01*
X000820Y001020D02*
X000600Y001060D01*
X000600Y001260D01*
X000830Y001300D01*
X000910Y001490D02*
X000780Y001680D01*
X000920Y001820D01*
X001110Y001690D01*
X001290Y001760D02*
X001340Y002000D01*
X001530Y002000D01*
X001580Y001760D01*
X001760Y001690D02*
X001960Y001820D01*
X002100Y001680D01*
X001960Y001490D01*
X002050Y001300D02*
X002270Y001260D01*
X002270Y001060D01*
X002050Y001020D01*
X001970Y000820D02*
X002100Y000640D01*
X001960Y000500D01*
X001780Y000620D01*
X001700Y000580D01*
X001560Y000920D01*
X001320Y000920D02*
X001170Y000580D01*
X001100Y000620D01*
X000920Y000500D01*
X000780Y000640D01*
X000902Y000825D02*
X000877Y000867D01*
X000855Y000911D01*
X000837Y000957D01*
X000822Y001004D01*
X001112Y001686D02*
X001154Y001709D01*
X001197Y001728D01*
X001242Y001745D01*
X001288Y001757D01*
X001050Y002200D02*
X000550Y002200D01*
X000300Y002450D01*
X000300Y002950D01*
X000550Y003200D01*
X000300Y003450D01*
X000300Y003950D01*
X000550Y004200D01*
X000300Y004450D01*
X000300Y004950D01*
X000550Y005200D01*
X000300Y005450D01*
X000300Y005950D01*
X000550Y006200D01*
X000300Y006450D01*
X000300Y006950D01*
X000550Y007200D01*
X001050Y007200D01*
X001300Y006950D01*
X001300Y006450D01*
X001050Y006200D01*
X001300Y005950D01*
X001300Y005450D01*
X001050Y005200D01*
X001300Y004950D01*
X001300Y004450D01*
X001050Y004200D01*
X001300Y003950D01*
X001300Y003450D01*
X001050Y003200D01*
X001300Y002950D01*
X001300Y002450D01*
X001050Y002200D01*
X001320Y000920D02*
X001292Y000936D01*
X001265Y000955D01*
X001242Y000977D01*
X001221Y001002D01*
X001203Y001030D01*
X001188Y001059D01*
X001178Y001090D01*
X001170Y001121D01*
X001167Y001154D01*
X001168Y001186D01*
X001172Y001219D01*
X001181Y001250D01*
X001193Y001280D01*
X001208Y001309D01*
X001227Y001336D01*
X001249Y001360D01*
X001273Y001381D01*
X001300Y001400D01*
X001329Y001415D01*
X001360Y001426D01*
X001391Y001434D01*
X001424Y001438D01*
X001456Y001438D01*
X001489Y001434D01*
X001520Y001426D01*
X001551Y001415D01*
X001580Y001400D01*
X001607Y001381D01*
X001631Y001360D01*
X001653Y001336D01*
X001672Y001309D01*
X001687Y001280D01*
X001699Y001250D01*
X001708Y001219D01*
X001712Y001186D01*
X001713Y001154D01*
X001710Y001121D01*
X001702Y001090D01*
X001692Y001059D01*
X001677Y001030D01*
X001659Y001002D01*
X001638Y000977D01*
X001615Y000955D01*
X001588Y000936D01*
X001560Y000920D01*
X002052Y001300D02*
X002040Y001340D01*
X002025Y001379D01*
X002007Y001417D01*
X001987Y001453D01*
X001965Y001488D01*
X001759Y001690D02*
X001716Y001713D01*
X001672Y001733D01*
X001626Y001749D01*
X001580Y001761D01*
X002049Y001021D02*
X002039Y000979D01*
X002026Y000938D01*
X002010Y000898D01*
X001991Y000859D01*
X001969Y000822D01*
X000828Y001302D02*
X000839Y001342D01*
X000853Y001381D01*
X000869Y001418D01*
X000888Y001455D01*
X000909Y001490D01*
X003040Y000860D02*
X003180Y000860D01*
X003110Y000860D02*
X003110Y000440D01*
X003040Y000440D02*
X003180Y000440D01*
X003347Y000440D02*
X003347Y000860D01*
X003487Y000720D01*
X003627Y000860D01*
X003627Y000440D01*
X003807Y000510D02*
X003877Y000440D01*
X004018Y000440D01*
X004088Y000510D01*
X004088Y000860D01*
X003807Y000860D02*
X003807Y000510D01*
X004728Y000510D02*
X004798Y000440D01*
X004938Y000440D01*
X005008Y000510D01*
X005008Y000580D01*
X004938Y000650D01*
X004728Y000650D01*
X004728Y000510D01*
X004728Y000650D02*
X004868Y000790D01*
X005008Y000860D01*
X005188Y000860D02*
X005399Y000860D01*
X005469Y000790D01*
X005469Y000510D01*
X005399Y000440D01*
X005188Y000440D01*
X005188Y000860D01*
X005649Y000650D02*
X005649Y000510D01*
X005719Y000440D01*
X005859Y000440D01*
X005929Y000510D01*
X005929Y000650D01*
X005859Y000720D01*
X005719Y000720D01*
X005649Y000650D01*
X006109Y000650D02*
X006249Y000650D01*
X006109Y000440D02*
X006109Y000860D01*
X006390Y000860D01*
X005169Y001564D02*
X004933Y001564D01*
X004933Y002036D02*
X005169Y002036D01*
X005127Y003273D02*
X005009Y003273D01*
X005127Y003273D02*
X005127Y003391D01*
X006264Y003782D02*
X006264Y004018D01*
X006736Y004018D02*
X006736Y003782D01*
X006618Y004764D02*
X006382Y004764D01*
X006382Y005236D02*
X006618Y005236D01*
X005127Y004927D02*
X005127Y004809D01*
X005127Y004927D02*
X005009Y004927D01*
X003614Y004761D02*
X003616Y004771D01*
X003621Y004779D01*
X003629Y004784D01*
X003639Y004786D01*
X003649Y004784D01*
X003657Y004779D01*
X003662Y004771D01*
X003664Y004761D01*
X003662Y004751D01*
X003657Y004743D01*
X003649Y004738D01*
X003639Y004736D01*
X003629Y004738D01*
X003621Y004743D01*
X003616Y004751D01*
X003614Y004761D01*
X003473Y004809D02*
X003591Y004927D01*
X003473Y003391D02*
X003473Y003273D01*
X003591Y003273D01*
X003669Y002036D02*
X003433Y002036D01*
X003433Y001564D02*
X003669Y001564D01*
X008300Y002950D02*
X008300Y003450D01*
X008550Y003700D01*
X008300Y003950D01*
X008300Y004450D01*
X008550Y004700D01*
X008300Y004950D01*
X008300Y005450D01*
X008550Y005700D01*
X008300Y005950D01*
X008300Y006450D01*
X008550Y006700D01*
X009050Y006700D01*
X009300Y006450D01*
X009300Y005950D01*
X009050Y005700D01*
X009300Y005450D01*
X009300Y004950D01*
X009050Y004700D01*
X009300Y004450D01*
X009300Y003950D01*
X009050Y003700D01*
X009300Y003450D01*
X009300Y002950D01*
X009050Y002700D01*
X008550Y002700D01*
X008300Y002950D01*
X003101Y007810D02*
X003031Y007740D01*
X002821Y007740D01*
X002891Y007880D02*
X002821Y007950D01*
X002891Y008020D01*
X003101Y008020D01*
X003031Y007880D02*
X002891Y007880D01*
X003031Y007880D02*
X003101Y007810D01*
X002641Y007810D02*
X002641Y007950D01*
X002571Y008020D01*
X002361Y008020D01*
X002181Y007950D02*
X002181Y007740D01*
X001970Y007740D01*
X001900Y007810D01*
X001970Y007880D01*
X002181Y007880D01*
X002181Y007950D02*
X002111Y008020D01*
X001970Y008020D01*
X001720Y007740D02*
X001440Y007740D01*
X001440Y008160D01*
X001440Y008440D02*
X001720Y008440D01*
X001900Y008440D02*
X002181Y008720D01*
X002361Y008720D02*
X002571Y008720D01*
X002641Y008650D01*
X002641Y008510D01*
X002571Y008440D01*
X002361Y008440D01*
X002181Y008440D02*
X001900Y008720D01*
X001720Y008860D02*
X001440Y008860D01*
X001440Y008440D01*
X001440Y008650D02*
X001580Y008650D01*
X002361Y008720D02*
X002361Y008300D01*
X002361Y008160D02*
X002361Y007740D01*
X002571Y007740D01*
X002641Y007810D01*
X002821Y008440D02*
X002961Y008440D01*
X002891Y008440D02*
X002891Y008860D01*
X002821Y008860D01*
X003128Y008650D02*
X003128Y008510D01*
X003198Y008440D01*
X003338Y008440D01*
X003408Y008510D01*
X003408Y008650D01*
X003338Y008720D01*
X003198Y008720D01*
X003128Y008650D01*
X003588Y008580D02*
X003729Y008720D01*
X003799Y008720D01*
X003972Y008650D02*
X003972Y008510D01*
X004042Y008440D01*
X004182Y008440D01*
X004252Y008580D02*
X003972Y008580D01*
X003972Y008650D02*
X004042Y008720D01*
X004182Y008720D01*
X004252Y008650D01*
X004252Y008580D01*
X003588Y008440D02*
X003588Y008720D01*
D11*
X003300Y006300D03*
X004500Y006300D03*
D12*
X006445Y005131D02*
X006445Y005088D01*
X006467Y005066D01*
X006445Y005131D02*
X006467Y005153D01*
X006488Y005153D01*
X006575Y005066D01*
X006575Y005153D01*
X006575Y005014D02*
X006575Y004992D01*
X006553Y004992D01*
X006553Y005014D01*
X006575Y005014D01*
X006575Y004932D02*
X006575Y004845D01*
X006488Y004932D01*
X006467Y004932D01*
X006445Y004910D01*
X006445Y004867D01*
X006467Y004845D01*
X006403Y003985D02*
X006347Y003928D01*
X006403Y003985D02*
X006403Y003815D01*
X006347Y003815D02*
X006460Y003815D01*
X006531Y003843D02*
X006644Y003957D01*
X006644Y003843D01*
X006616Y003815D01*
X006559Y003815D01*
X006531Y003843D01*
X006531Y003957D01*
X006559Y003985D01*
X006616Y003985D01*
X006644Y003957D01*
D13*
X002180Y001200D02*
X002180Y001120D01*
X002060Y001120D01*
X001980Y001200D01*
X001940Y001080D01*
X001940Y000880D01*
X001780Y000920D01*
X001980Y000640D01*
X001940Y000600D01*
X001780Y000680D01*
X001660Y000920D01*
X001780Y000960D01*
X001820Y001200D01*
X001740Y001360D01*
X001620Y001440D01*
X001460Y001520D01*
X001260Y001480D01*
X001180Y001400D01*
X001100Y001480D01*
X001100Y001200D01*
X001020Y001200D01*
X001220Y000880D01*
X001100Y000680D01*
X000900Y000640D01*
X000940Y000600D02*
X000980Y000800D01*
X000940Y000800D01*
X000940Y000720D01*
X000940Y000760D02*
X000980Y000920D01*
X000860Y001200D01*
X000660Y001200D01*
X000700Y001120D01*
X000780Y001080D01*
X000900Y001320D01*
X001060Y001600D01*
X000940Y001720D01*
X000860Y001680D01*
X000940Y001560D01*
X001420Y001680D01*
X001540Y001720D01*
X001460Y001920D01*
X001420Y001920D01*
X001380Y001720D01*
X001900Y001480D01*
X001980Y001680D01*
X001940Y001720D01*
X001820Y001600D01*
X001620Y001680D01*
X001740Y001400D01*
X001860Y001400D02*
X001540Y001640D01*
X001140Y001560D01*
X000980Y001280D01*
X001060Y000800D01*
X000940Y000760D01*
X001860Y001280D02*
X001980Y001360D01*
X001860Y001400D01*
X001860Y001280D02*
X002180Y001200D01*
D14*
X002193Y002530D02*
X002343Y002530D01*
X002393Y002580D01*
X002393Y002780D01*
X002343Y002830D01*
X002193Y002830D01*
X002193Y002530D01*
X002062Y002530D02*
X002062Y002830D01*
X001861Y002830D02*
X002062Y002530D01*
X001861Y002530D02*
X001861Y002830D01*
X001730Y002780D02*
X001680Y002830D01*
X001580Y002830D01*
X001530Y002780D01*
X001530Y002580D01*
X001580Y002530D01*
X001680Y002530D01*
X001730Y002580D01*
X001730Y002680D01*
X001630Y002680D01*
X001630Y003530D02*
X001530Y003530D01*
X001580Y003530D02*
X001580Y003830D01*
X001530Y003830D02*
X001630Y003830D01*
X001751Y003830D02*
X001951Y003530D01*
X001951Y003830D01*
X001751Y003830D02*
X001751Y003530D01*
X002082Y003830D02*
X002283Y003830D01*
X002183Y003830D02*
X002183Y003530D01*
X002193Y004530D02*
X002393Y004530D01*
X002193Y004530D02*
X002193Y004830D01*
X002062Y004780D02*
X002012Y004830D01*
X001912Y004830D01*
X001861Y004780D01*
X001861Y004580D01*
X001912Y004530D01*
X002012Y004530D01*
X002062Y004580D01*
X001730Y004580D02*
X001680Y004530D01*
X001580Y004530D01*
X001530Y004580D01*
X001580Y004680D02*
X001530Y004730D01*
X001530Y004780D01*
X001580Y004830D01*
X001680Y004830D01*
X001730Y004780D01*
X001680Y004680D02*
X001580Y004680D01*
X001680Y004680D02*
X001730Y004630D01*
X001730Y004580D01*
X001680Y005530D02*
X001580Y005530D01*
X001530Y005580D01*
X001580Y005680D02*
X001680Y005680D01*
X001730Y005630D01*
X001730Y005580D01*
X001680Y005530D01*
X001580Y005680D02*
X001530Y005730D01*
X001530Y005780D01*
X001580Y005830D01*
X001680Y005830D01*
X001730Y005780D01*
X001861Y005830D02*
X001861Y005530D01*
X002012Y005530D01*
X002062Y005580D01*
X002062Y005780D01*
X002012Y005830D01*
X001861Y005830D01*
X002193Y005730D02*
X002193Y005530D01*
X002193Y005680D02*
X002393Y005680D01*
X002393Y005730D02*
X002393Y005530D01*
X002393Y005730D02*
X002293Y005830D01*
X002193Y005730D01*
X002177Y006530D02*
X002077Y006530D01*
X002027Y006580D01*
X001912Y006580D02*
X001912Y006530D01*
X001861Y006530D01*
X001861Y006580D01*
X001912Y006580D01*
X001730Y006580D02*
X001680Y006530D01*
X001580Y006530D01*
X001530Y006580D01*
X001630Y006680D02*
X001680Y006680D01*
X001730Y006630D01*
X001730Y006580D01*
X001680Y006680D02*
X001730Y006730D01*
X001730Y006780D01*
X001680Y006830D01*
X001580Y006830D01*
X001530Y006780D01*
X002027Y006780D02*
X002077Y006830D01*
X002177Y006830D01*
X002227Y006780D01*
X002227Y006730D01*
X002177Y006680D01*
X002227Y006630D01*
X002227Y006580D01*
X002177Y006530D01*
X002359Y006630D02*
X002459Y006530D01*
X002559Y006630D01*
X002559Y006830D01*
X002359Y006830D02*
X002359Y006630D01*
X002177Y006680D02*
X002127Y006680D01*
X005130Y008780D02*
X005230Y008680D01*
X005230Y008530D01*
X005230Y008680D02*
X005330Y008780D01*
X005330Y008830D01*
X005130Y008830D02*
X005130Y008780D01*
X006030Y008130D02*
X006230Y008130D01*
X006230Y008080D01*
X006030Y007880D01*
X006030Y007830D01*
X006230Y007830D01*
X006930Y007050D02*
X007130Y006750D01*
X006930Y006750D02*
X007130Y007050D01*
X007080Y006330D02*
X007180Y006330D01*
X007230Y006280D01*
X007230Y006230D01*
X007180Y006180D01*
X007230Y006130D01*
X007230Y006080D01*
X007180Y006030D01*
X007080Y006030D01*
X007030Y006080D01*
X007130Y006180D02*
X007180Y006180D01*
X007030Y006280D02*
X007080Y006330D01*
X007361Y006080D02*
X007361Y006030D01*
X007412Y006030D01*
X007412Y006080D01*
X007361Y006080D01*
X007527Y006080D02*
X007577Y006030D01*
X007677Y006030D01*
X007727Y006080D01*
X007727Y006130D01*
X007677Y006180D01*
X007627Y006180D01*
X007677Y006180D02*
X007727Y006230D01*
X007727Y006280D01*
X007677Y006330D01*
X007577Y006330D01*
X007527Y006280D01*
X007859Y006330D02*
X007859Y006130D01*
X007959Y006030D01*
X008059Y006130D01*
X008059Y006330D01*
X008043Y003330D02*
X007893Y003330D01*
X007893Y003030D01*
X008043Y003030D01*
X008093Y003080D01*
X008093Y003280D01*
X008043Y003330D01*
X007762Y003330D02*
X007762Y003030D01*
X007561Y003330D01*
X007561Y003030D01*
X007430Y003080D02*
X007430Y003180D01*
X007330Y003180D01*
X007230Y003280D02*
X007230Y003080D01*
X007280Y003030D01*
X007380Y003030D01*
X007430Y003080D01*
X007430Y003280D02*
X007380Y003330D01*
X007280Y003330D01*
X007230Y003280D01*
D15*
X007367Y003875D02*
X007325Y003917D01*
X007367Y003875D02*
X007450Y003875D01*
X007492Y003917D01*
X007492Y003958D01*
X007450Y004000D01*
X007367Y004000D01*
X007325Y004042D01*
X007325Y004084D01*
X007367Y004125D01*
X007450Y004125D01*
X007492Y004084D01*
X007601Y004084D02*
X007601Y003917D01*
X007643Y003875D01*
X007726Y003875D01*
X007768Y003917D01*
X007877Y003875D02*
X008044Y003875D01*
X007877Y003875D02*
X007877Y004125D01*
X007768Y004084D02*
X007726Y004125D01*
X007643Y004125D01*
X007601Y004084D01*
X007643Y004275D02*
X007726Y004275D01*
X007768Y004317D01*
X007768Y004525D01*
X007877Y004525D02*
X008044Y004275D01*
X007877Y004275D02*
X008044Y004525D01*
X008044Y004875D02*
X008044Y005042D01*
X007961Y005125D01*
X007877Y005042D01*
X007877Y004875D01*
X007768Y004917D02*
X007768Y005084D01*
X007726Y005125D01*
X007601Y005125D01*
X007601Y004875D01*
X007726Y004875D01*
X007768Y004917D01*
X007877Y005000D02*
X008044Y005000D01*
X008044Y005275D02*
X007877Y005525D01*
X007768Y005525D02*
X007768Y005317D01*
X007726Y005275D01*
X007643Y005275D01*
X007601Y005317D01*
X007601Y005525D01*
X007492Y005442D02*
X007492Y005275D01*
X007492Y005400D02*
X007325Y005400D01*
X007325Y005442D02*
X007325Y005275D01*
X007367Y005125D02*
X007325Y005084D01*
X007325Y005042D01*
X007367Y005000D01*
X007450Y005000D01*
X007492Y004958D01*
X007492Y004917D01*
X007450Y004875D01*
X007367Y004875D01*
X007325Y004917D01*
X007367Y005125D02*
X007450Y005125D01*
X007492Y005084D01*
X007492Y005442D02*
X007408Y005525D01*
X007325Y005442D01*
X007877Y005275D02*
X008044Y005525D01*
X007601Y004525D02*
X007601Y004317D01*
X007643Y004275D01*
X007492Y004275D02*
X007492Y004442D01*
X007408Y004525D01*
X007325Y004442D01*
X007325Y004275D01*
X007325Y004400D02*
X007492Y004400D01*
D16*
X005104Y001930D02*
X005104Y001710D01*
X005031Y001710D02*
X005177Y001710D01*
X005031Y001857D02*
X005104Y001930D01*
X004948Y001747D02*
X004911Y001747D01*
X004911Y001710D01*
X004948Y001710D01*
X004948Y001747D01*
X003677Y001710D02*
X003531Y001710D01*
X003604Y001710D02*
X003604Y001930D01*
X003531Y001857D01*
X003448Y001747D02*
X003448Y001710D01*
X003411Y001710D01*
X003411Y001747D01*
X003448Y001747D01*
D17*
X006400Y006600D02*
X006700Y006900D01*
X006400Y007200D01*
X006700Y006900D02*
X005200Y006900D01*
X005200Y008300D01*
X005500Y008000D01*
X005200Y008300D02*
X004900Y008000D01*
X005476Y007400D02*
X005478Y007429D01*
X005484Y007458D01*
X005493Y007486D01*
X005506Y007512D01*
X005522Y007536D01*
X005542Y007558D01*
X005564Y007578D01*
X005588Y007594D01*
X005614Y007607D01*
X005642Y007616D01*
X005671Y007622D01*
X005700Y007624D01*
X005729Y007622D01*
X005758Y007616D01*
X005786Y007607D01*
X005812Y007594D01*
X005836Y007578D01*
X005858Y007558D01*
X005878Y007536D01*
X005894Y007512D01*
X005907Y007486D01*
X005916Y007458D01*
X005922Y007429D01*
X005924Y007400D01*
X005922Y007371D01*
X005916Y007342D01*
X005907Y007314D01*
X005894Y007288D01*
X005878Y007264D01*
X005858Y007242D01*
X005836Y007222D01*
X005812Y007206D01*
X005786Y007193D01*
X005758Y007184D01*
X005729Y007178D01*
X005700Y007176D01*
X005671Y007178D01*
X005642Y007184D01*
X005614Y007193D01*
X005588Y007206D01*
X005564Y007222D01*
X005542Y007242D01*
X005522Y007264D01*
X005506Y007288D01*
X005493Y007314D01*
X005484Y007342D01*
X005478Y007371D01*
X005476Y007400D01*
M02*
