G75*
G70*
%OFA0B0*%
%FSLAX24Y24*%
%IPPOS*%
%LPD*%
%AMOC8*
5,1,8,0,0,1.08239X$1,22.5*
%
%ADD10C,0.0100*%
%ADD11R,0.1030X0.1030*%
%ADD12R,0.0315X0.0472*%
%ADD13R,0.0472X0.0315*%
%ADD14R,0.0394X0.0433*%
%ADD15R,0.0740X0.0740*%
%ADD16C,0.0740*%
%ADD17C,0.0260*%
%ADD18C,0.0320*%
D10*
X000750Y000650D02*
X000750Y002181D01*
X000750Y002650D01*
X000850Y002650D01*
X000850Y002750D01*
X001239Y002750D01*
X001509Y002480D01*
X003096Y002480D01*
X003130Y002446D01*
X003240Y002400D01*
X003360Y002400D01*
X003470Y002446D01*
X003554Y002530D01*
X003600Y002640D01*
X003600Y002760D01*
X003554Y002870D01*
X003470Y002954D01*
X003360Y003000D01*
X003240Y003000D01*
X003130Y002954D01*
X003096Y002920D01*
X001691Y002920D01*
X001237Y003374D01*
X001258Y003394D01*
X001340Y003593D01*
X001340Y003807D01*
X001258Y004006D01*
X001106Y004158D01*
X001004Y004200D01*
X001106Y004242D01*
X001258Y004394D01*
X001340Y004593D01*
X001340Y004807D01*
X001304Y004893D01*
X001391Y004980D01*
X002996Y004980D01*
X003030Y004946D01*
X003140Y004900D01*
X003260Y004900D01*
X003370Y004946D01*
X003454Y005030D01*
X003500Y005140D01*
X003500Y005260D01*
X003454Y005370D01*
X003370Y005454D01*
X003260Y005500D01*
X003146Y005500D01*
X003225Y005579D01*
X003375Y005579D01*
X003581Y005373D01*
X003581Y004795D01*
X003487Y004795D01*
X003487Y004615D01*
X003487Y004615D01*
X003487Y004795D01*
X003310Y004795D01*
X003259Y004781D01*
X003214Y004755D01*
X003176Y004718D01*
X003150Y004672D01*
X003137Y004621D01*
X003137Y004595D01*
X003225Y004595D01*
X003225Y004595D01*
X003137Y004595D01*
X003137Y004568D01*
X003150Y004519D01*
X003117Y004486D01*
X003117Y004304D01*
X003124Y004296D01*
X003117Y004289D01*
X003117Y004106D01*
X003131Y004092D01*
X003117Y004078D01*
X003117Y003896D01*
X003125Y003887D01*
X003117Y003879D01*
X003117Y003809D01*
X002420Y003809D01*
X002420Y003996D01*
X002454Y004030D01*
X002500Y004140D01*
X003117Y004140D01*
X003117Y004042D02*
X002459Y004042D01*
X002420Y003943D02*
X003117Y003943D01*
X003117Y003845D02*
X002420Y003845D01*
X002200Y003700D02*
X002311Y003589D01*
X003487Y003589D01*
X003637Y003589D02*
X003337Y003589D01*
X003337Y003788D02*
X003637Y003788D01*
X003637Y003987D02*
X003337Y003987D01*
X003337Y004197D02*
X003637Y004197D01*
X003637Y004395D02*
X003337Y004395D01*
X003117Y004436D02*
X002389Y004436D01*
X002370Y004454D02*
X002260Y004500D01*
X002140Y004500D01*
X002030Y004454D01*
X001950Y004374D01*
X001870Y004454D01*
X001760Y004500D01*
X001640Y004500D01*
X001530Y004454D01*
X001446Y004370D01*
X001400Y004260D01*
X001400Y004140D01*
X001124Y004140D01*
X001097Y004239D02*
X001400Y004239D01*
X001400Y004140D02*
X001446Y004030D01*
X001480Y003996D01*
X001480Y003409D01*
X001609Y003280D01*
X001844Y003045D01*
X003581Y003045D01*
X003581Y003024D01*
X003710Y002895D01*
X003780Y002895D01*
X003780Y002694D01*
X003292Y002206D01*
X002969Y002206D01*
X002869Y002107D01*
X002869Y001872D01*
X002867Y001866D01*
X002867Y001734D01*
X002869Y001728D01*
X002869Y001493D01*
X002870Y001493D01*
X002870Y001234D01*
X002920Y001113D01*
X003313Y000720D01*
X003434Y000670D01*
X006166Y000670D01*
X006287Y000720D01*
X006380Y000813D01*
X006780Y001213D01*
X006830Y001334D01*
X006830Y003216D01*
X007611Y003216D01*
X007733Y003266D01*
X007987Y003520D01*
X008080Y003613D01*
X008130Y003734D01*
X008130Y005763D01*
X008237Y005870D01*
X008260Y005870D01*
X008260Y005760D01*
X008360Y005660D01*
X008499Y005660D01*
X008494Y005658D01*
X008342Y005506D01*
X008260Y005307D01*
X008260Y005093D01*
X008342Y004894D01*
X008494Y004742D01*
X008596Y004700D01*
X008494Y004658D01*
X008342Y004506D01*
X008260Y004307D01*
X008260Y004093D01*
X008342Y003894D01*
X008494Y003742D01*
X008622Y003689D01*
X008600Y003682D01*
X008527Y003645D01*
X008461Y003597D01*
X008403Y003539D01*
X008355Y003473D01*
X008318Y003400D01*
X008293Y003322D01*
X008281Y003250D01*
X008750Y003250D01*
X008750Y003150D01*
X008850Y003150D01*
X008850Y002681D01*
X008850Y002681D01*
X008850Y002055D01*
X008740Y002245D01*
X008545Y002440D01*
X008305Y002578D01*
X008038Y002650D01*
X007762Y002650D01*
X007495Y002578D01*
X007255Y002440D01*
X007060Y002245D01*
X006922Y002005D01*
X006850Y001738D01*
X006850Y001462D01*
X006922Y001195D01*
X007060Y000955D01*
X007255Y000760D01*
X007445Y000650D01*
X000750Y000650D01*
X000750Y000693D02*
X003380Y000693D01*
X003242Y000791D02*
X000750Y000791D01*
X000750Y000890D02*
X003144Y000890D01*
X003045Y000988D02*
X000750Y000988D01*
X000750Y001087D02*
X002947Y001087D01*
X002890Y001185D02*
X000750Y001185D01*
X000750Y001284D02*
X002870Y001284D01*
X002870Y001382D02*
X000750Y001382D01*
X000750Y001481D02*
X002870Y001481D01*
X002869Y001579D02*
X000750Y001579D01*
X000750Y001678D02*
X002869Y001678D01*
X002867Y001776D02*
X000750Y001776D01*
X000750Y001875D02*
X002869Y001875D01*
X002869Y001973D02*
X000750Y001973D01*
X000750Y002072D02*
X002869Y002072D01*
X002933Y002170D02*
X000750Y002170D01*
X000750Y002181D02*
X000750Y002181D01*
X000750Y002269D02*
X000850Y002269D01*
X000850Y002181D02*
X000922Y002193D01*
X001000Y002218D01*
X001073Y002255D01*
X001139Y002303D01*
X001197Y002361D01*
X001245Y002427D01*
X001282Y002500D01*
X001307Y002578D01*
X001319Y002650D01*
X000850Y002650D01*
X000850Y002181D01*
X000850Y002367D02*
X000750Y002367D01*
X000750Y002466D02*
X000850Y002466D01*
X000850Y002564D02*
X000750Y002564D01*
X000850Y002663D02*
X001326Y002663D01*
X001303Y002564D02*
X001425Y002564D01*
X001264Y002466D02*
X003110Y002466D01*
X003300Y002700D02*
X001600Y002700D01*
X000900Y003400D01*
X000800Y003400D01*
X000800Y003700D01*
X001222Y004042D02*
X001441Y004042D01*
X001480Y003943D02*
X001284Y003943D01*
X001325Y003845D02*
X001480Y003845D01*
X001480Y003746D02*
X001340Y003746D01*
X001340Y003648D02*
X001480Y003648D01*
X001480Y003549D02*
X001322Y003549D01*
X001281Y003451D02*
X001480Y003451D01*
X001537Y003352D02*
X001259Y003352D01*
X001358Y003254D02*
X001635Y003254D01*
X001734Y003155D02*
X001456Y003155D01*
X001555Y003057D02*
X001832Y003057D01*
X001653Y002958D02*
X003139Y002958D01*
X003461Y002958D02*
X003647Y002958D01*
X003559Y002860D02*
X003780Y002860D01*
X003780Y002761D02*
X003599Y002761D01*
X003600Y002663D02*
X003748Y002663D01*
X003650Y002564D02*
X003568Y002564D01*
X003551Y002466D02*
X003490Y002466D01*
X003453Y002367D02*
X001201Y002367D01*
X001091Y002269D02*
X003354Y002269D01*
X003598Y001890D02*
X003598Y001829D01*
X003877Y001829D01*
X003877Y002169D01*
X004189Y002481D01*
X004189Y002118D01*
X004183Y002128D01*
X004155Y002156D01*
X004121Y002176D01*
X004083Y002186D01*
X003934Y002186D01*
X003934Y001829D01*
X003877Y001829D01*
X003877Y001771D01*
X003934Y001771D01*
X003934Y001414D01*
X004083Y001414D01*
X004121Y001424D01*
X004155Y001444D01*
X004183Y001472D01*
X004203Y001506D01*
X004213Y001544D01*
X004213Y001771D01*
X003934Y001771D01*
X003934Y001829D01*
X004213Y001829D01*
X004213Y001973D01*
X004318Y001868D01*
X004369Y001816D01*
X004369Y001493D01*
X004469Y001394D01*
X004925Y001394D01*
X005024Y001493D01*
X005024Y002107D01*
X004925Y002206D01*
X004629Y002206D01*
X004629Y002760D01*
X004780Y002609D01*
X004909Y002480D01*
X005500Y002480D01*
X005500Y002440D01*
X005546Y002330D01*
X005630Y002246D01*
X005740Y002200D01*
X005860Y002200D01*
X005970Y002246D01*
X006054Y002330D01*
X006100Y002440D01*
X006100Y002560D01*
X006054Y002670D01*
X005970Y002754D01*
X005860Y002800D01*
X005811Y002800D01*
X005691Y002920D01*
X005091Y002920D01*
X005027Y002985D01*
X005027Y003369D01*
X006094Y003369D01*
X006094Y003318D01*
X006170Y003242D01*
X006170Y001537D01*
X005963Y001330D01*
X003637Y001330D01*
X003530Y001437D01*
X003530Y001822D01*
X003598Y001890D01*
X003598Y001875D02*
X003582Y001875D01*
X003598Y001771D02*
X003598Y001544D01*
X003608Y001506D01*
X003628Y001472D01*
X003656Y001444D01*
X003690Y001424D01*
X003728Y001414D01*
X003877Y001414D01*
X003877Y001771D01*
X003598Y001771D01*
X003530Y001776D02*
X003877Y001776D01*
X003906Y001800D02*
X004199Y001800D01*
X004199Y003265D01*
X004199Y003115D02*
X004199Y003415D01*
X004000Y003415D02*
X004000Y003115D01*
X004000Y003265D02*
X004000Y002603D01*
X003197Y001800D01*
X003530Y001678D02*
X003598Y001678D01*
X003598Y001579D02*
X003530Y001579D01*
X003530Y001481D02*
X003623Y001481D01*
X003585Y001382D02*
X006015Y001382D01*
X006114Y001481D02*
X005688Y001481D01*
X005683Y001472D02*
X005703Y001506D01*
X005713Y001544D01*
X005713Y001771D01*
X005434Y001771D01*
X005434Y001414D01*
X005583Y001414D01*
X005621Y001424D01*
X005655Y001444D01*
X005683Y001472D01*
X005713Y001579D02*
X006170Y001579D01*
X006170Y001678D02*
X005713Y001678D01*
X005713Y001829D02*
X005713Y002056D01*
X005703Y002094D01*
X005683Y002128D01*
X005655Y002156D01*
X005621Y002176D01*
X005583Y002186D01*
X005434Y002186D01*
X005434Y001829D01*
X005377Y001829D01*
X005377Y002186D01*
X005228Y002186D01*
X005190Y002176D01*
X005156Y002156D01*
X005128Y002128D01*
X005108Y002094D01*
X005098Y002056D01*
X005098Y001829D01*
X005377Y001829D01*
X005377Y001771D01*
X005434Y001771D01*
X005434Y001829D01*
X005713Y001829D01*
X005713Y001875D02*
X006170Y001875D01*
X006170Y001973D02*
X005713Y001973D01*
X005709Y002072D02*
X006170Y002072D01*
X006170Y002170D02*
X005631Y002170D01*
X005607Y002269D02*
X004629Y002269D01*
X004629Y002367D02*
X005530Y002367D01*
X005500Y002466D02*
X004629Y002466D01*
X004629Y002564D02*
X004825Y002564D01*
X004800Y002700D02*
X004800Y002400D01*
X005000Y002200D01*
X005400Y002200D01*
X005400Y001806D01*
X005406Y001800D01*
X005434Y001776D02*
X006170Y001776D01*
X006170Y002269D02*
X005993Y002269D01*
X006070Y002367D02*
X006170Y002367D01*
X006170Y002466D02*
X006100Y002466D01*
X006098Y002564D02*
X006170Y002564D01*
X006170Y002663D02*
X006057Y002663D01*
X005954Y002761D02*
X006170Y002761D01*
X006170Y002860D02*
X005752Y002860D01*
X005600Y002700D02*
X005800Y002500D01*
X005600Y002700D02*
X005000Y002700D01*
X004807Y002893D01*
X004807Y003265D01*
X004807Y003115D02*
X004807Y003415D01*
X005027Y003352D02*
X006094Y003352D01*
X006158Y003254D02*
X005027Y003254D01*
X005027Y003155D02*
X006170Y003155D01*
X006170Y003057D02*
X005027Y003057D01*
X005053Y002958D02*
X006170Y002958D01*
X006500Y003546D02*
X006456Y003589D01*
X005121Y003589D01*
X005271Y003589D02*
X004971Y003589D01*
X004971Y003788D02*
X005271Y003788D01*
X005491Y003809D02*
X005491Y003879D01*
X005483Y003887D01*
X005491Y003896D01*
X005491Y004078D01*
X005477Y004092D01*
X005491Y004106D01*
X005491Y004289D01*
X005484Y004296D01*
X005491Y004304D01*
X005491Y004486D01*
X005458Y004519D01*
X005471Y004568D01*
X005471Y004595D01*
X005471Y004621D01*
X005458Y004672D01*
X005431Y004718D01*
X005394Y004755D01*
X005349Y004781D01*
X005298Y004795D01*
X005121Y004795D01*
X005027Y004795D01*
X005027Y005161D01*
X004907Y005280D01*
X005818Y005280D01*
X005818Y004693D01*
X005918Y004594D01*
X006374Y004594D01*
X006473Y004693D01*
X006473Y005307D01*
X006374Y005406D01*
X006366Y005406D01*
X006366Y005445D01*
X006167Y005644D01*
X006170Y005646D01*
X006254Y005730D01*
X006300Y005840D01*
X006300Y005960D01*
X006254Y006070D01*
X006170Y006154D01*
X006060Y006200D01*
X005940Y006200D01*
X005830Y006154D01*
X005796Y006120D01*
X004867Y006120D01*
X004867Y006252D01*
X004819Y006300D01*
X004867Y006348D01*
X004867Y006922D01*
X004767Y007021D01*
X004720Y007021D01*
X004720Y007196D01*
X004754Y007230D01*
X004800Y007340D01*
X004800Y007460D01*
X004754Y007570D01*
X004670Y007654D01*
X004560Y007700D01*
X004440Y007700D01*
X004330Y007654D01*
X004246Y007570D01*
X004200Y007460D01*
X004200Y007340D01*
X004246Y007230D01*
X004280Y007196D01*
X004280Y007021D01*
X004233Y007021D01*
X004133Y006922D01*
X004133Y006348D01*
X004181Y006300D01*
X004133Y006252D01*
X004133Y005910D01*
X003909Y005685D01*
X003900Y005676D01*
X003892Y005684D01*
X003667Y005910D01*
X003667Y006252D01*
X003619Y006300D01*
X003667Y006348D01*
X003667Y006922D01*
X003567Y007021D01*
X003520Y007021D01*
X003520Y007196D01*
X003554Y007230D01*
X003600Y007340D01*
X003600Y007460D01*
X003554Y007570D01*
X003470Y007654D01*
X003360Y007700D01*
X003240Y007700D01*
X003130Y007654D01*
X003046Y007570D01*
X003000Y007460D01*
X003000Y007340D01*
X003046Y007230D01*
X003080Y007196D01*
X003080Y007021D01*
X003033Y007021D01*
X002933Y006922D01*
X002933Y006348D01*
X002981Y006300D01*
X002933Y006252D01*
X002933Y005920D01*
X001293Y005920D01*
X001258Y006006D01*
X001106Y006158D01*
X001101Y006160D01*
X001240Y006160D01*
X001340Y006260D01*
X001340Y007140D01*
X001240Y007240D01*
X000750Y007240D01*
X000750Y008750D01*
X007445Y008750D01*
X007255Y008640D01*
X007060Y008445D01*
X006922Y008205D01*
X006850Y007938D01*
X006850Y007662D01*
X006922Y007395D01*
X007060Y007155D01*
X007255Y006960D01*
X007495Y006822D01*
X007762Y006750D01*
X008038Y006750D01*
X008305Y006822D01*
X008545Y006960D01*
X008740Y007155D01*
X008850Y007345D01*
X008850Y006740D01*
X008360Y006740D01*
X008260Y006640D01*
X008260Y006530D01*
X008034Y006530D01*
X007913Y006480D01*
X007820Y006387D01*
X007520Y006087D01*
X007470Y005966D01*
X007470Y003937D01*
X007409Y003876D01*
X006434Y003876D01*
X006428Y003873D01*
X006193Y003873D01*
X006130Y003809D01*
X005491Y003809D01*
X005491Y003845D02*
X006165Y003845D01*
X006206Y003957D02*
X006172Y003977D01*
X006144Y004005D01*
X006124Y004039D01*
X006114Y004077D01*
X006114Y004226D01*
X006471Y004226D01*
X006471Y004283D01*
X006114Y004283D01*
X006114Y004432D01*
X006124Y004470D01*
X006144Y004504D01*
X006172Y004532D01*
X006206Y004552D01*
X006244Y004562D01*
X006471Y004562D01*
X006471Y004283D01*
X006529Y004283D01*
X006886Y004283D01*
X006886Y004432D01*
X006876Y004470D01*
X006856Y004504D01*
X006828Y004532D01*
X006794Y004552D01*
X006756Y004562D01*
X006529Y004562D01*
X006529Y004283D01*
X006529Y004226D01*
X006886Y004226D01*
X006886Y004077D01*
X006876Y004039D01*
X006856Y004005D01*
X006828Y003977D01*
X006794Y003957D01*
X006756Y003947D01*
X006529Y003947D01*
X006529Y004226D01*
X006471Y004226D01*
X006471Y003947D01*
X006244Y003947D01*
X006206Y003957D01*
X006123Y004042D02*
X005491Y004042D01*
X005491Y004140D02*
X006114Y004140D01*
X006114Y004337D02*
X005491Y004337D01*
X005491Y004239D02*
X006471Y004239D01*
X006529Y004239D02*
X007470Y004239D01*
X007470Y004337D02*
X006886Y004337D01*
X006885Y004436D02*
X007470Y004436D01*
X007470Y004534D02*
X006825Y004534D01*
X006826Y004614D02*
X006826Y004971D01*
X006883Y004971D01*
X006883Y004614D01*
X007032Y004614D01*
X007070Y004624D01*
X007104Y004644D01*
X007132Y004672D01*
X007152Y004706D01*
X007162Y004744D01*
X007162Y004971D01*
X006883Y004971D01*
X006883Y005029D01*
X006826Y005029D01*
X006826Y005386D01*
X006677Y005386D01*
X006639Y005376D01*
X006605Y005356D01*
X006577Y005328D01*
X006557Y005294D01*
X006547Y005256D01*
X006547Y005029D01*
X006826Y005029D01*
X006826Y004971D01*
X006547Y004971D01*
X006547Y004744D01*
X006557Y004706D01*
X006577Y004672D01*
X006605Y004644D01*
X006639Y004624D01*
X006677Y004614D01*
X006826Y004614D01*
X006826Y004633D02*
X006883Y004633D01*
X006883Y004731D02*
X006826Y004731D01*
X006826Y004830D02*
X006883Y004830D01*
X006883Y004928D02*
X006826Y004928D01*
X006826Y005027D02*
X006473Y005027D01*
X006473Y005125D02*
X006547Y005125D01*
X006547Y005224D02*
X006473Y005224D01*
X006458Y005322D02*
X006573Y005322D01*
X006366Y005421D02*
X007470Y005421D01*
X007470Y005322D02*
X007135Y005322D01*
X007132Y005328D02*
X007104Y005356D01*
X007070Y005376D01*
X007032Y005386D01*
X006883Y005386D01*
X006883Y005029D01*
X007162Y005029D01*
X007162Y005256D01*
X007152Y005294D01*
X007132Y005328D01*
X007162Y005224D02*
X007470Y005224D01*
X007470Y005125D02*
X007162Y005125D01*
X007162Y004928D02*
X007470Y004928D01*
X007470Y004830D02*
X007162Y004830D01*
X007158Y004731D02*
X007470Y004731D01*
X007470Y004633D02*
X007084Y004633D01*
X006883Y005027D02*
X007470Y005027D01*
X007470Y005519D02*
X006292Y005519D01*
X006194Y005618D02*
X007470Y005618D01*
X007470Y005716D02*
X006240Y005716D01*
X006289Y005815D02*
X007470Y005815D01*
X007470Y005913D02*
X006300Y005913D01*
X006279Y006012D02*
X007489Y006012D01*
X007543Y006110D02*
X006214Y006110D01*
X006000Y005900D02*
X004565Y005900D01*
X004500Y005965D01*
X004000Y005465D01*
X004000Y004920D01*
X004000Y004770D02*
X004000Y005070D01*
X004199Y005070D02*
X004199Y004770D01*
X004409Y004770D02*
X004409Y005070D01*
X004607Y005070D02*
X004607Y004770D01*
X004607Y004920D02*
X004607Y005307D01*
X004800Y005500D01*
X006000Y005500D01*
X006146Y005354D01*
X006146Y005000D01*
X005818Y005027D02*
X005027Y005027D01*
X005027Y005125D02*
X005818Y005125D01*
X005818Y005224D02*
X004964Y005224D01*
X005027Y004928D02*
X005818Y004928D01*
X005818Y004830D02*
X005027Y004830D01*
X005121Y004795D02*
X005121Y004615D01*
X005121Y004615D01*
X005121Y004795D01*
X005121Y004731D02*
X005121Y004731D01*
X005121Y004633D02*
X005121Y004633D01*
X005271Y004595D02*
X004971Y004595D01*
X004971Y004395D02*
X005271Y004395D01*
X005491Y004436D02*
X006115Y004436D01*
X006175Y004534D02*
X005462Y004534D01*
X005471Y004595D02*
X005383Y004595D01*
X005471Y004595D01*
X005468Y004633D02*
X005879Y004633D01*
X005818Y004731D02*
X005418Y004731D01*
X005383Y004595D02*
X005383Y004595D01*
X005271Y004197D02*
X004971Y004197D01*
X004971Y003987D02*
X005271Y003987D01*
X005491Y003943D02*
X007470Y003943D01*
X007470Y004042D02*
X006877Y004042D01*
X006886Y004140D02*
X007470Y004140D01*
X008094Y003648D02*
X008533Y003648D01*
X008490Y003746D02*
X008130Y003746D01*
X008130Y003845D02*
X008392Y003845D01*
X008322Y003943D02*
X008130Y003943D01*
X008130Y004042D02*
X008281Y004042D01*
X008260Y004140D02*
X008130Y004140D01*
X008130Y004239D02*
X008260Y004239D01*
X008272Y004337D02*
X008130Y004337D01*
X008130Y004436D02*
X008313Y004436D01*
X008370Y004534D02*
X008130Y004534D01*
X008130Y004633D02*
X008469Y004633D01*
X008521Y004731D02*
X008130Y004731D01*
X008130Y004830D02*
X008407Y004830D01*
X008328Y004928D02*
X008130Y004928D01*
X008130Y005027D02*
X008287Y005027D01*
X008260Y005125D02*
X008130Y005125D01*
X008130Y005224D02*
X008260Y005224D01*
X008266Y005322D02*
X008130Y005322D01*
X008130Y005421D02*
X008307Y005421D01*
X008355Y005519D02*
X008130Y005519D01*
X008130Y005618D02*
X008454Y005618D01*
X008304Y005716D02*
X008130Y005716D01*
X008181Y005815D02*
X008260Y005815D01*
X007740Y006307D02*
X004826Y006307D01*
X004867Y006209D02*
X007642Y006209D01*
X007839Y006406D02*
X004867Y006406D01*
X004867Y006504D02*
X007972Y006504D01*
X008260Y006603D02*
X004867Y006603D01*
X004867Y006701D02*
X008321Y006701D01*
X008223Y006800D02*
X008850Y006800D01*
X008850Y006898D02*
X008438Y006898D01*
X008581Y006997D02*
X008850Y006997D01*
X008850Y007095D02*
X008680Y007095D01*
X008762Y007194D02*
X008850Y007194D01*
X008850Y007292D02*
X008819Y007292D01*
X007577Y006800D02*
X004867Y006800D01*
X004867Y006898D02*
X007362Y006898D01*
X007219Y006997D02*
X004792Y006997D01*
X004720Y007095D02*
X007120Y007095D01*
X007038Y007194D02*
X004720Y007194D01*
X004780Y007292D02*
X006981Y007292D01*
X006924Y007391D02*
X004800Y007391D01*
X004788Y007489D02*
X006896Y007489D01*
X006870Y007588D02*
X004737Y007588D01*
X004593Y007686D02*
X006850Y007686D01*
X006850Y007785D02*
X000750Y007785D01*
X000750Y007883D02*
X006850Y007883D01*
X006862Y007982D02*
X000750Y007982D01*
X000750Y008080D02*
X006888Y008080D01*
X006914Y008179D02*
X000750Y008179D01*
X000750Y008277D02*
X006963Y008277D01*
X007020Y008376D02*
X000750Y008376D01*
X000750Y008474D02*
X007089Y008474D01*
X007188Y008573D02*
X000750Y008573D01*
X000750Y008671D02*
X007309Y008671D01*
X004500Y007400D02*
X004500Y006635D01*
X004133Y006603D02*
X003667Y006603D01*
X003667Y006701D02*
X004133Y006701D01*
X004133Y006800D02*
X003667Y006800D01*
X003667Y006898D02*
X004133Y006898D01*
X004208Y006997D02*
X003592Y006997D01*
X003520Y007095D02*
X004280Y007095D01*
X004280Y007194D02*
X003520Y007194D01*
X003580Y007292D02*
X004220Y007292D01*
X004200Y007391D02*
X003600Y007391D01*
X003588Y007489D02*
X004212Y007489D01*
X004263Y007588D02*
X003537Y007588D01*
X003393Y007686D02*
X004407Y007686D01*
X003300Y007400D02*
X003300Y006635D01*
X003667Y006504D02*
X004133Y006504D01*
X004133Y006406D02*
X003667Y006406D01*
X003626Y006307D02*
X004174Y006307D01*
X004133Y006209D02*
X003667Y006209D01*
X003667Y006110D02*
X004133Y006110D01*
X004133Y006012D02*
X003667Y006012D01*
X003667Y005913D02*
X004133Y005913D01*
X004038Y005815D02*
X003762Y005815D01*
X003860Y005716D02*
X003940Y005716D01*
X003801Y005464D02*
X003801Y004920D01*
X003801Y004770D02*
X003801Y005070D01*
X003581Y005027D02*
X003451Y005027D01*
X003494Y005125D02*
X003581Y005125D01*
X003581Y005224D02*
X003500Y005224D01*
X003474Y005322D02*
X003581Y005322D01*
X003534Y005421D02*
X003404Y005421D01*
X003435Y005519D02*
X003165Y005519D01*
X003092Y005480D02*
X003030Y005454D01*
X002996Y005420D01*
X001269Y005420D01*
X001293Y005480D01*
X003092Y005480D01*
X002996Y005421D02*
X001269Y005421D01*
X001300Y005200D02*
X000800Y004700D01*
X001201Y004337D02*
X001432Y004337D01*
X001511Y004436D02*
X001275Y004436D01*
X001316Y004534D02*
X003146Y004534D01*
X003140Y004633D02*
X001340Y004633D01*
X001340Y004731D02*
X003190Y004731D01*
X003073Y004928D02*
X001339Y004928D01*
X001331Y004830D02*
X003581Y004830D01*
X003581Y004928D02*
X003327Y004928D01*
X003487Y004731D02*
X003487Y004731D01*
X003487Y004633D02*
X003487Y004633D01*
X003637Y004595D02*
X003337Y004595D01*
X003117Y004337D02*
X002468Y004337D01*
X002454Y004370D02*
X002370Y004454D01*
X002454Y004370D02*
X002500Y004260D01*
X002500Y004140D01*
X002500Y004239D02*
X003117Y004239D01*
X002200Y004200D02*
X002200Y003700D01*
X001935Y003265D02*
X001700Y003500D01*
X001700Y004200D01*
X001889Y004436D02*
X002011Y004436D01*
X001300Y005200D02*
X003200Y005200D01*
X003035Y005700D02*
X003117Y005783D01*
X003300Y005965D01*
X003801Y005464D01*
X003035Y005700D02*
X000800Y005700D01*
X001154Y006110D02*
X002933Y006110D01*
X002933Y006012D02*
X001252Y006012D01*
X001289Y006209D02*
X002933Y006209D01*
X002974Y006307D02*
X001340Y006307D01*
X001340Y006406D02*
X002933Y006406D01*
X002933Y006504D02*
X001340Y006504D01*
X001340Y006603D02*
X002933Y006603D01*
X002933Y006701D02*
X001340Y006701D01*
X001340Y006800D02*
X002933Y006800D01*
X002933Y006898D02*
X001340Y006898D01*
X001340Y006997D02*
X003008Y006997D01*
X003080Y007095D02*
X001340Y007095D01*
X001287Y007194D02*
X003080Y007194D01*
X003020Y007292D02*
X000750Y007292D01*
X000750Y007391D02*
X003000Y007391D01*
X003012Y007489D02*
X000750Y007489D01*
X000750Y007588D02*
X003063Y007588D01*
X003207Y007686D02*
X000750Y007686D01*
X004807Y005070D02*
X004807Y004770D01*
X006412Y004633D02*
X006624Y004633D01*
X006550Y004731D02*
X006473Y004731D01*
X006473Y004830D02*
X006547Y004830D01*
X006547Y004928D02*
X006473Y004928D01*
X006471Y004534D02*
X006529Y004534D01*
X006529Y004436D02*
X006471Y004436D01*
X006471Y004337D02*
X006529Y004337D01*
X006529Y004140D02*
X006471Y004140D01*
X006471Y004042D02*
X006529Y004042D01*
X006830Y003155D02*
X008750Y003155D01*
X008750Y003150D02*
X008281Y003150D01*
X008293Y003078D01*
X008318Y003000D01*
X008355Y002927D01*
X008403Y002861D01*
X008461Y002803D01*
X008527Y002755D01*
X008600Y002718D01*
X008678Y002693D01*
X008750Y002681D01*
X008750Y003150D01*
X008750Y003057D02*
X008850Y003057D01*
X008850Y002958D02*
X008750Y002958D01*
X008750Y002860D02*
X008850Y002860D01*
X008850Y002761D02*
X008750Y002761D01*
X008850Y002663D02*
X006830Y002663D01*
X006830Y002761D02*
X008520Y002761D01*
X008405Y002860D02*
X006830Y002860D01*
X006830Y002958D02*
X008340Y002958D01*
X008300Y003057D02*
X006830Y003057D01*
X006830Y002564D02*
X007470Y002564D01*
X007299Y002466D02*
X006830Y002466D01*
X006830Y002367D02*
X007182Y002367D01*
X007084Y002269D02*
X006830Y002269D01*
X006830Y002170D02*
X007017Y002170D01*
X006960Y002072D02*
X006830Y002072D01*
X006830Y001973D02*
X006913Y001973D01*
X006887Y001875D02*
X006830Y001875D01*
X006830Y001776D02*
X006860Y001776D01*
X006850Y001678D02*
X006830Y001678D01*
X006830Y001579D02*
X006850Y001579D01*
X006850Y001481D02*
X006830Y001481D01*
X006830Y001382D02*
X006871Y001382D01*
X006898Y001284D02*
X006809Y001284D01*
X006752Y001185D02*
X006927Y001185D01*
X006984Y001087D02*
X006653Y001087D01*
X006555Y000988D02*
X007041Y000988D01*
X007126Y000890D02*
X006456Y000890D01*
X006358Y000791D02*
X007224Y000791D01*
X007372Y000693D02*
X006220Y000693D01*
X005377Y001414D02*
X005377Y001771D01*
X005098Y001771D01*
X005098Y001544D01*
X005108Y001506D01*
X005128Y001472D01*
X005156Y001444D01*
X005190Y001424D01*
X005228Y001414D01*
X005377Y001414D01*
X005377Y001481D02*
X005434Y001481D01*
X005434Y001579D02*
X005377Y001579D01*
X005377Y001678D02*
X005434Y001678D01*
X005377Y001776D02*
X005024Y001776D01*
X005024Y001678D02*
X005098Y001678D01*
X005098Y001579D02*
X005024Y001579D01*
X005011Y001481D02*
X005123Y001481D01*
X004697Y001800D02*
X004409Y002088D01*
X004409Y003265D01*
X004409Y003115D02*
X004409Y003415D01*
X004607Y003415D02*
X004607Y003115D01*
X004607Y003265D02*
X004607Y002893D01*
X004800Y002700D01*
X004726Y002663D02*
X004629Y002663D01*
X004189Y002466D02*
X004173Y002466D01*
X004189Y002367D02*
X004075Y002367D01*
X003976Y002269D02*
X004189Y002269D01*
X004189Y002170D02*
X004131Y002170D01*
X003934Y002170D02*
X003878Y002170D01*
X003877Y002072D02*
X003934Y002072D01*
X003934Y001973D02*
X003877Y001973D01*
X003877Y001875D02*
X003934Y001875D01*
X003934Y001776D02*
X004369Y001776D01*
X004369Y001678D02*
X004213Y001678D01*
X004213Y001579D02*
X004369Y001579D01*
X004382Y001481D02*
X004188Y001481D01*
X003934Y001481D02*
X003877Y001481D01*
X003877Y001579D02*
X003934Y001579D01*
X003934Y001678D02*
X003877Y001678D01*
X004213Y001875D02*
X004311Y001875D01*
X005024Y001875D02*
X005098Y001875D01*
X005098Y001973D02*
X005024Y001973D01*
X005024Y002072D02*
X005102Y002072D01*
X005180Y002170D02*
X004961Y002170D01*
X005377Y002170D02*
X005434Y002170D01*
X005434Y002072D02*
X005377Y002072D01*
X005377Y001973D02*
X005434Y001973D01*
X005434Y001875D02*
X005377Y001875D01*
X003801Y003115D02*
X003801Y003415D01*
X003801Y003265D02*
X001935Y003265D01*
X006826Y005125D02*
X006883Y005125D01*
X006883Y005224D02*
X006826Y005224D01*
X006826Y005322D02*
X006883Y005322D01*
X008016Y003549D02*
X008414Y003549D01*
X008344Y003451D02*
X007917Y003451D01*
X007819Y003352D02*
X008303Y003352D01*
X008282Y003254D02*
X007703Y003254D01*
X008330Y002564D02*
X008850Y002564D01*
X008850Y002466D02*
X008501Y002466D01*
X008618Y002367D02*
X008850Y002367D01*
X008850Y002269D02*
X008716Y002269D01*
X008783Y002170D02*
X008850Y002170D01*
X008840Y002072D02*
X008850Y002072D01*
D11*
X004308Y004096D03*
D12*
X006146Y005000D03*
X006854Y005000D03*
X005406Y001800D03*
X004697Y001800D03*
X003906Y001800D03*
X003197Y001800D03*
D13*
X006500Y003546D03*
X006500Y004254D03*
D14*
X004500Y005965D03*
X004500Y006635D03*
X003300Y006635D03*
X003300Y005965D03*
D15*
X000800Y006700D03*
X008800Y006200D03*
D16*
X008800Y005200D03*
X008800Y004200D03*
X008800Y003200D03*
X000800Y002700D03*
X000800Y003700D03*
X000800Y004700D03*
X000800Y005700D03*
D17*
X001700Y004200D03*
X002200Y004200D03*
X002800Y004200D03*
X003200Y005200D03*
X003300Y007400D03*
X004500Y007400D03*
X005700Y007400D03*
X006000Y005900D03*
X006700Y005900D03*
X007100Y002700D03*
X005800Y002500D03*
X004800Y002400D03*
X003300Y002700D03*
X002200Y002100D03*
X002100Y007400D03*
D18*
X006500Y003546D02*
X006500Y001400D01*
X006100Y001000D01*
X003500Y001000D01*
X003200Y001300D01*
X003200Y001797D01*
X003197Y001800D01*
X006500Y003546D02*
X007546Y003546D01*
X007800Y003800D01*
X007800Y005900D01*
X008100Y006200D01*
X008800Y006200D01*
M02*
