G75*
G70*
%OFA0B0*%
%FSLAX24Y24*%
%IPPOS*%
%LPD*%
%AMOC8*
5,1,8,0,0,1.08239X$1,22.5*
%
%ADD10C,0.0080*%
%ADD11C,0.0060*%
%ADD12R,0.0003X0.0060*%
%ADD13R,0.0003X0.0093*%
%ADD14R,0.0003X0.0114*%
%ADD15R,0.0003X0.0126*%
%ADD16R,0.0003X0.0138*%
%ADD17R,0.0003X0.0147*%
%ADD18R,0.0003X0.0156*%
%ADD19R,0.0003X0.0162*%
%ADD20R,0.0003X0.0168*%
%ADD21R,0.0003X0.0027*%
%ADD22R,0.0003X0.0030*%
%ADD23R,0.0003X0.0174*%
%ADD24R,0.0003X0.0051*%
%ADD25R,0.0003X0.0003*%
%ADD26R,0.0003X0.0177*%
%ADD27R,0.0003X0.0057*%
%ADD28R,0.0003X0.0042*%
%ADD29R,0.0003X0.0183*%
%ADD30R,0.0003X0.0054*%
%ADD31R,0.0003X0.0186*%
%ADD32R,0.0003X0.0066*%
%ADD33R,0.0003X0.0063*%
%ADD34R,0.0003X0.0105*%
%ADD35R,0.0003X0.0078*%
%ADD36R,0.0003X0.0090*%
%ADD37R,0.0003X0.0084*%
%ADD38R,0.0003X0.0087*%
%ADD39R,0.0003X0.0075*%
%ADD40R,0.0003X0.0072*%
%ADD41R,0.0003X0.0096*%
%ADD42R,0.0003X0.0057*%
%ADD43R,0.0003X0.0069*%
%ADD44R,0.0003X0.0099*%
%ADD45R,0.0003X0.0102*%
%ADD46R,0.0003X0.0054*%
%ADD47R,0.0003X0.0102*%
%ADD48R,0.0003X0.0018*%
%ADD49R,0.0003X0.0048*%
%ADD50R,0.0003X0.0045*%
%ADD51R,0.0003X0.0039*%
%ADD52R,0.0003X0.0021*%
%ADD53R,0.0003X0.0012*%
%ADD54R,0.0003X0.0006*%
%ADD55R,0.0003X0.0009*%
%ADD56R,0.0003X0.0015*%
%ADD57R,0.0003X0.0024*%
%ADD58R,0.0003X0.0069*%
%ADD59R,0.0003X0.0042*%
%ADD60R,0.0003X0.0024*%
%ADD61R,0.0003X0.0036*%
%ADD62R,0.0003X0.0081*%
%ADD63R,0.0003X0.0033*%
%ADD64R,0.0003X0.0072*%
%ADD65R,0.0003X0.0150*%
%ADD66R,0.0003X0.0114*%
%ADD67R,0.0003X0.0111*%
%ADD68R,0.0003X0.0153*%
%ADD69R,0.0003X0.0087*%
%ADD70R,0.0003X0.0117*%
%ADD71R,0.0003X0.0123*%
%ADD72R,0.0003X0.0120*%
%ADD73R,0.0003X0.0108*%
%ADD74R,0.0003X0.0159*%
%ADD75R,0.0003X0.0144*%
%ADD76R,0.0003X0.0129*%
%ADD77R,0.0003X0.0165*%
%ADD78R,0.0003X0.0135*%
%ADD79R,0.0003X0.0132*%
%ADD80R,0.0003X0.0117*%
%ADD81R,0.0003X0.0141*%
%ADD82R,0.0003X0.0144*%
%ADD83R,0.0003X0.0180*%
%ADD84R,0.0003X0.0171*%
%ADD85R,0.0003X0.0192*%
%ADD86R,0.0003X0.0174*%
%ADD87R,0.0003X0.0198*%
%ADD88R,0.0003X0.0189*%
%ADD89R,0.0003X0.0189*%
%ADD90R,0.0003X0.0192*%
%ADD91R,0.0003X0.0201*%
%ADD92R,0.0003X0.0195*%
%ADD93R,0.0003X0.0177*%
%ADD94R,0.0003X0.0204*%
%ADD95R,0.0003X0.0207*%
%ADD96R,0.0003X0.0210*%
%ADD97R,0.0003X0.0213*%
%ADD98R,0.0003X0.0207*%
%ADD99R,0.0003X0.0084*%
%ADD100R,0.0003X0.0204*%
%ADD101R,0.0003X0.0099*%
%ADD102R,0.0003X0.0039*%
%ADD103R,0.0003X0.0027*%
%ADD104R,0.0003X0.0132*%
%ADD105R,0.0003X0.0162*%
%ADD106R,0.0003X0.0159*%
%ADD107R,0.0003X0.0147*%
%ADD108R,0.0003X0.0129*%
%ADD109R,0.0003X0.0012*%
%ADD110R,0.0003X0.0009*%
%ADD111R,0.0003X0.4002*%
%ADD112R,0.0003X0.4041*%
%ADD113R,0.0003X0.4065*%
%ADD114R,0.0003X0.4083*%
%ADD115R,0.0003X0.4098*%
%ADD116R,0.0003X0.4113*%
%ADD117R,0.0003X0.4128*%
%ADD118R,0.0003X0.4137*%
%ADD119R,0.0003X0.4146*%
%ADD120R,0.0003X0.4158*%
%ADD121R,0.0003X0.4167*%
%ADD122R,0.0003X0.4176*%
%ADD123R,0.0003X0.4182*%
%ADD124R,0.0003X0.4191*%
%ADD125R,0.0003X0.4197*%
%ADD126R,0.0003X0.4206*%
%ADD127R,0.0003X0.4212*%
%ADD128R,0.0003X0.4218*%
%ADD129R,0.0003X0.4224*%
%ADD130R,0.0003X0.4230*%
%ADD131R,0.0003X0.4233*%
%ADD132R,0.0003X0.4239*%
%ADD133R,0.0003X0.4242*%
%ADD134R,0.0003X0.4248*%
%ADD135R,0.0003X0.4254*%
%ADD136R,0.0003X0.4257*%
%ADD137R,0.0003X0.4260*%
%ADD138R,0.0003X0.4266*%
%ADD139R,0.0003X0.4269*%
%ADD140R,0.0003X0.4272*%
%ADD141R,0.0003X0.4278*%
%ADD142R,0.0003X0.4281*%
%ADD143R,0.0003X0.4284*%
%ADD144R,0.0003X0.4290*%
%ADD145R,0.0003X0.4296*%
%ADD146R,0.0003X0.4299*%
%ADD147R,0.0003X0.4302*%
%ADD148R,0.0003X0.4305*%
%ADD149R,0.0003X0.4308*%
%ADD150R,0.0003X0.4311*%
%ADD151R,0.0003X0.4314*%
%ADD152R,0.0003X0.4317*%
%ADD153R,0.0003X0.4320*%
%ADD154R,0.0003X0.4323*%
%ADD155R,0.0003X0.4326*%
%ADD156R,0.0003X0.0921*%
%ADD157R,0.0003X0.3351*%
%ADD158R,0.0003X0.0909*%
%ADD159R,0.0003X0.3339*%
%ADD160R,0.0003X0.3330*%
%ADD161R,0.0003X0.3327*%
%ADD162R,0.0003X0.3324*%
%ADD163R,0.0003X0.0906*%
%ADD164R,0.0003X0.0276*%
%ADD165R,0.0003X0.0237*%
%ADD166R,0.0003X0.0624*%
%ADD167R,0.0003X0.0819*%
%ADD168R,0.0003X0.0222*%
%ADD169R,0.0003X0.0318*%
%ADD170R,0.0003X0.0297*%
%ADD171R,0.0003X0.0252*%
%ADD172R,0.0003X0.0594*%
%ADD173R,0.0003X0.0777*%
%ADD174R,0.0003X0.0282*%
%ADD175R,0.0003X0.0279*%
%ADD176R,0.0003X0.0237*%
%ADD177R,0.0003X0.0567*%
%ADD178R,0.0003X0.0753*%
%ADD179R,0.0003X0.0255*%
%ADD180R,0.0003X0.0267*%
%ADD181R,0.0003X0.0234*%
%ADD182R,0.0003X0.0222*%
%ADD183R,0.0003X0.0306*%
%ADD184R,0.0003X0.0429*%
%ADD185R,0.0003X0.0258*%
%ADD186R,0.0003X0.0279*%
%ADD187R,0.0003X0.0360*%
%ADD188R,0.0003X0.0219*%
%ADD189R,0.0003X0.0249*%
%ADD190R,0.0003X0.0336*%
%ADD191R,0.0003X0.0243*%
%ADD192R,0.0003X0.0330*%
%ADD193R,0.0003X0.0249*%
%ADD194R,0.0003X0.0327*%
%ADD195R,0.0003X0.0231*%
%ADD196R,0.0003X0.0321*%
%ADD197R,0.0003X0.0225*%
%ADD198R,0.0003X0.0315*%
%ADD199R,0.0003X0.0216*%
%ADD200R,0.0003X0.0303*%
%ADD201R,0.0003X0.0219*%
%ADD202R,0.0003X0.0300*%
%ADD203R,0.0003X0.0294*%
%ADD204R,0.0003X0.0291*%
%ADD205R,0.0003X0.0294*%
%ADD206R,0.0003X0.0297*%
%ADD207R,0.0003X0.0261*%
%ADD208R,0.0003X0.0264*%
%ADD209R,0.0003X0.0267*%
%ADD210R,0.0003X0.0474*%
%ADD211R,0.0003X0.0477*%
%ADD212R,0.0003X0.0270*%
%ADD213R,0.0003X0.0252*%
%ADD214R,0.0003X0.0480*%
%ADD215R,0.0003X0.0273*%
%ADD216R,0.0003X0.0483*%
%ADD217R,0.0003X0.0486*%
%ADD218R,0.0003X0.0282*%
%ADD219R,0.0003X0.0489*%
%ADD220R,0.0003X0.0285*%
%ADD221R,0.0003X0.0492*%
%ADD222R,0.0003X0.0288*%
%ADD223R,0.0003X0.0240*%
%ADD224R,0.0003X0.0495*%
%ADD225R,0.0003X0.0228*%
%ADD226R,0.0003X0.0498*%
%ADD227R,0.0003X0.0309*%
%ADD228R,0.0003X0.0312*%
%ADD229R,0.0003X0.0501*%
%ADD230R,0.0003X0.0324*%
%ADD231R,0.0003X0.0327*%
%ADD232R,0.0003X0.0402*%
%ADD233R,0.0003X0.0342*%
%ADD234R,0.0003X0.0246*%
%ADD235R,0.0003X0.0333*%
%ADD236R,0.0003X0.0339*%
%ADD237R,0.0003X0.0345*%
%ADD238R,0.0003X0.0348*%
%ADD239R,0.0003X0.0234*%
%ADD240R,0.0003X0.0264*%
%ADD241R,0.0003X0.0342*%
%ADD242R,0.0003X0.0354*%
%ADD243R,0.0003X0.0369*%
%ADD244R,0.0003X0.0426*%
%ADD245R,0.0003X0.0309*%
%ADD246R,0.0003X0.0312*%
%ADD247R,0.0003X0.0324*%
%ADD248R,0.0003X0.0339*%
%ADD249R,0.0003X0.0423*%
%ADD250R,0.0003X0.0351*%
%ADD251R,0.0003X0.0357*%
%ADD252R,0.0003X0.0462*%
%ADD253R,0.0003X0.0366*%
%ADD254R,0.0003X0.0792*%
%ADD255R,0.0003X0.0378*%
%ADD256R,0.0003X0.0357*%
%ADD257R,0.0003X0.0807*%
%ADD258R,0.0003X0.0648*%
%ADD259R,0.0003X0.0396*%
%ADD260R,0.0003X0.1065*%
%ADD261R,0.0003X0.1359*%
%ADD262R,0.0003X0.0618*%
%ADD263R,0.0003X0.0741*%
%ADD264R,0.0003X0.0903*%
%ADD265R,0.0003X0.0900*%
%ADD266R,0.0003X0.0897*%
%ADD267R,0.0003X0.0894*%
%ADD268R,0.0003X0.0891*%
%ADD269R,0.0003X0.0888*%
%ADD270R,0.0003X0.1356*%
%ADD271R,0.0003X0.0882*%
%ADD272R,0.0003X0.0615*%
%ADD273R,0.0003X0.1362*%
%ADD274R,0.0003X0.1365*%
%ADD275R,0.0003X0.1368*%
%ADD276R,0.0003X0.0621*%
%ADD277R,0.0003X0.1374*%
%ADD278R,0.0003X0.1383*%
%ADD279R,0.0003X0.1323*%
%ADD280R,0.0003X0.1407*%
%ADD281R,0.0003X0.0627*%
%ADD282R,0.0003X0.2070*%
%ADD283R,0.0003X0.0744*%
%ADD284R,0.0003X0.1326*%
%ADD285R,0.0003X0.2073*%
%ADD286R,0.0003X0.2079*%
%ADD287R,0.0003X0.1329*%
%ADD288R,0.0003X0.1332*%
%ADD289R,0.0003X0.2082*%
%ADD290R,0.0003X0.1335*%
%ADD291R,0.0003X0.2088*%
%ADD292R,0.0003X0.0747*%
%ADD293R,0.0003X0.1338*%
%ADD294R,0.0003X0.2091*%
%ADD295R,0.0003X0.1344*%
%ADD296R,0.0003X0.2097*%
%ADD297R,0.0003X0.2112*%
%ADD298R,0.0003X0.2127*%
%ADD299R,0.0003X0.0750*%
%ADD300R,0.0003X0.4287*%
%ADD301R,0.0003X0.4245*%
%ADD302R,0.0003X0.4236*%
%ADD303R,0.0003X0.4200*%
%ADD304R,0.0003X0.4149*%
%ADD305R,0.0003X0.4140*%
%ADD306R,0.0003X0.4116*%
%ADD307R,0.0003X0.4104*%
%ADD308R,0.0003X0.4086*%
%ADD309R,0.0003X0.4068*%
%ADD310R,0.0003X0.4047*%
%ADD311R,0.0003X0.4017*%
%ADD312C,0.0050*%
D10*
X003050Y007800D02*
X004750Y007800D01*
X004767Y007802D01*
X004784Y007806D01*
X004800Y007813D01*
X004814Y007823D01*
X004827Y007836D01*
X004837Y007850D01*
X004844Y007866D01*
X004848Y007883D01*
X004850Y007900D01*
X004850Y008500D01*
X004848Y008517D01*
X004844Y008534D01*
X004837Y008550D01*
X004827Y008564D01*
X004814Y008577D01*
X004800Y008587D01*
X004784Y008594D01*
X004767Y008598D01*
X004750Y008600D01*
X003050Y008600D01*
X003033Y008598D01*
X003016Y008594D01*
X003000Y008587D01*
X002986Y008577D01*
X002973Y008564D01*
X002963Y008550D01*
X002956Y008534D01*
X002952Y008517D01*
X002950Y008500D01*
X002950Y007900D01*
X002952Y007883D01*
X002956Y007866D01*
X002963Y007850D01*
X002973Y007836D01*
X002986Y007823D01*
X003000Y007813D01*
X003016Y007806D01*
X003033Y007802D01*
X003050Y007800D01*
D11*
X001501Y002580D02*
X001551Y002530D01*
X001701Y002530D01*
X001701Y002830D01*
X001551Y002830D01*
X001501Y002780D01*
X001501Y002580D01*
X001833Y002530D02*
X001833Y002830D01*
X002033Y002830D02*
X001833Y002530D01*
X002033Y002530D02*
X002033Y002830D01*
X002164Y002780D02*
X002214Y002830D01*
X002314Y002830D01*
X002364Y002780D01*
X002364Y002580D01*
X002314Y002530D01*
X002214Y002530D01*
X002164Y002580D01*
X002164Y002680D01*
X002264Y002680D01*
X002254Y003530D02*
X002154Y003530D01*
X002204Y003530D02*
X002204Y003830D01*
X002254Y003830D02*
X002154Y003830D01*
X002033Y003830D02*
X001833Y003530D01*
X001833Y003830D01*
X001701Y003830D02*
X001501Y003830D01*
X001601Y003830D02*
X001601Y003530D01*
X002033Y003530D02*
X002033Y003830D01*
X001983Y004530D02*
X001883Y004530D01*
X001833Y004580D01*
X001701Y004530D02*
X001501Y004530D01*
X001701Y004530D02*
X001701Y004830D01*
X001833Y004780D02*
X001883Y004830D01*
X001983Y004830D01*
X002033Y004780D01*
X002033Y004580D01*
X001983Y004530D01*
X002164Y004580D02*
X002214Y004530D01*
X002314Y004530D01*
X002364Y004580D01*
X002214Y004680D02*
X002164Y004630D01*
X002164Y004580D01*
X002214Y004680D02*
X002314Y004680D01*
X002364Y004730D01*
X002364Y004780D01*
X002314Y004830D01*
X002214Y004830D01*
X002164Y004780D01*
X002214Y005530D02*
X002314Y005530D01*
X002364Y005580D01*
X002314Y005680D02*
X002214Y005680D01*
X002164Y005630D01*
X002164Y005580D01*
X002214Y005530D01*
X002314Y005680D02*
X002364Y005730D01*
X002364Y005780D01*
X002314Y005830D01*
X002214Y005830D01*
X002164Y005780D01*
X002033Y005830D02*
X002033Y005530D01*
X001883Y005530D01*
X001833Y005580D01*
X001833Y005780D01*
X001883Y005830D01*
X002033Y005830D01*
X001701Y005730D02*
X001701Y005530D01*
X001701Y005680D02*
X001501Y005680D01*
X001501Y005730D02*
X001501Y005530D01*
X001501Y005730D02*
X001601Y005830D01*
X001701Y005730D01*
X001601Y006530D02*
X001501Y006630D01*
X001501Y006830D01*
X001701Y006830D02*
X001701Y006630D01*
X001601Y006530D01*
X001833Y006580D02*
X001883Y006530D01*
X001983Y006530D01*
X002033Y006580D01*
X002149Y006580D02*
X002149Y006530D01*
X002199Y006530D01*
X002199Y006580D01*
X002149Y006580D01*
X002330Y006580D02*
X002380Y006530D01*
X002480Y006530D01*
X002530Y006580D01*
X002430Y006680D02*
X002380Y006680D01*
X002330Y006630D01*
X002330Y006580D01*
X002380Y006680D02*
X002330Y006730D01*
X002330Y006780D01*
X002380Y006830D01*
X002480Y006830D01*
X002530Y006780D01*
X002033Y006780D02*
X001983Y006830D01*
X001883Y006830D01*
X001833Y006780D01*
X001833Y006730D01*
X001883Y006680D01*
X001833Y006630D01*
X001833Y006580D01*
X001883Y006680D02*
X001933Y006680D01*
X007041Y006330D02*
X007041Y006130D01*
X007141Y006030D01*
X007241Y006130D01*
X007241Y006330D01*
X007373Y006280D02*
X007373Y006230D01*
X007423Y006180D01*
X007373Y006130D01*
X007373Y006080D01*
X007423Y006030D01*
X007523Y006030D01*
X007573Y006080D01*
X007688Y006080D02*
X007688Y006030D01*
X007739Y006030D01*
X007739Y006080D01*
X007688Y006080D01*
X007870Y006080D02*
X007920Y006030D01*
X008020Y006030D01*
X008070Y006080D01*
X007970Y006180D02*
X007920Y006180D01*
X007870Y006130D01*
X007870Y006080D01*
X007920Y006180D02*
X007870Y006230D01*
X007870Y006280D01*
X007920Y006330D01*
X008020Y006330D01*
X008070Y006280D01*
X007573Y006280D02*
X007523Y006330D01*
X007423Y006330D01*
X007373Y006280D01*
X007423Y006180D02*
X007473Y006180D01*
X007538Y003330D02*
X007538Y003030D01*
X007739Y003330D01*
X007739Y003030D01*
X007870Y003080D02*
X007870Y003180D01*
X007970Y003180D01*
X008070Y003280D02*
X008070Y003080D01*
X008020Y003030D01*
X007920Y003030D01*
X007870Y003080D01*
X007870Y003280D02*
X007920Y003330D01*
X008020Y003330D01*
X008070Y003280D01*
X007407Y003330D02*
X007407Y003030D01*
X007257Y003030D01*
X007207Y003080D01*
X007207Y003280D01*
X007257Y003330D01*
X007407Y003330D01*
X005063Y000780D02*
X005063Y000730D01*
X005063Y000630D02*
X005063Y000430D01*
X005113Y000430D02*
X005013Y000430D01*
X004892Y000430D02*
X004892Y000630D01*
X004741Y000630D01*
X004691Y000580D01*
X004691Y000430D01*
X005063Y000630D02*
X005113Y000630D01*
X005575Y000580D02*
X005575Y000530D01*
X005776Y000530D01*
X005776Y000480D02*
X005776Y000580D01*
X005726Y000630D01*
X005625Y000630D01*
X005575Y000580D01*
X005625Y000430D02*
X005726Y000430D01*
X005776Y000480D01*
X005907Y000430D02*
X006057Y000430D01*
X006107Y000480D01*
X006107Y000580D01*
X006057Y000630D01*
X005907Y000630D01*
X005907Y000730D02*
X005907Y000430D01*
X006238Y000430D02*
X006388Y000430D01*
X006439Y000480D01*
X006388Y000530D01*
X006238Y000530D01*
X006238Y000580D02*
X006238Y000430D01*
X006238Y000580D02*
X006288Y000630D01*
X006388Y000630D01*
X006570Y000730D02*
X006570Y000430D01*
X006770Y000430D02*
X006770Y000730D01*
X006670Y000630D01*
X006570Y000730D01*
X004229Y000730D02*
X004129Y000730D01*
X004179Y000730D02*
X004179Y000430D01*
X004229Y000430D02*
X004129Y000430D01*
X004008Y000430D02*
X004008Y000630D01*
X003858Y000630D01*
X003807Y000580D01*
X003807Y000430D01*
X003676Y000480D02*
X003676Y000580D01*
X003626Y000630D01*
X003476Y000630D01*
X003476Y000730D02*
X003476Y000430D01*
X003626Y000430D01*
X003676Y000480D01*
X003345Y000430D02*
X003245Y000430D01*
X003295Y000430D02*
X003295Y000630D01*
X003345Y000630D01*
X003295Y000730D02*
X003295Y000780D01*
X003074Y000630D02*
X002974Y000630D01*
X002924Y000580D01*
X002924Y000430D01*
X003074Y000430D01*
X003124Y000480D01*
X003074Y000530D01*
X002924Y000530D01*
D12*
X005048Y001365D03*
X005054Y001365D03*
X005369Y001365D03*
X005381Y001365D03*
X005384Y001365D03*
X005429Y001629D03*
X005432Y001629D03*
X005435Y001629D03*
X005429Y001776D03*
X005426Y001776D03*
X005423Y001776D03*
X005420Y001776D03*
X005381Y001903D03*
X005378Y001903D03*
X005375Y001903D03*
X005372Y001903D03*
X005369Y001903D03*
X005366Y001903D03*
X005363Y001903D03*
X005360Y001903D03*
X005357Y001903D03*
X005354Y001903D03*
X005351Y001903D03*
X005348Y001903D03*
X005345Y001903D03*
X005342Y001903D03*
X005339Y001903D03*
X005336Y001903D03*
X005333Y001903D03*
X005330Y001903D03*
X005327Y001903D03*
X005324Y001903D03*
X005321Y001903D03*
X005318Y001903D03*
X005315Y001903D03*
X005312Y001903D03*
X005309Y001903D03*
X005306Y001903D03*
X005303Y001903D03*
X005300Y001903D03*
X005297Y001903D03*
X005294Y001903D03*
X005291Y001903D03*
X005288Y001903D03*
X005285Y001903D03*
X005282Y001903D03*
X005279Y001903D03*
X005276Y001903D03*
X005273Y001903D03*
X005270Y001903D03*
X005267Y001903D03*
X005264Y001903D03*
X005261Y001903D03*
X005258Y001903D03*
X005255Y001903D03*
X005252Y001903D03*
X005249Y001903D03*
X005246Y001903D03*
X005243Y001903D03*
X005240Y001903D03*
X005237Y001903D03*
X005234Y001903D03*
X005231Y001903D03*
X005225Y001903D03*
X005219Y001903D03*
X005177Y001899D03*
X005216Y002040D03*
X005219Y002040D03*
X005174Y002046D03*
X005342Y002046D03*
X005444Y001993D03*
X005390Y002488D03*
X005426Y002490D03*
X005429Y002490D03*
X005432Y002490D03*
X005459Y002586D03*
X005468Y002586D03*
X005474Y002586D03*
X005477Y002586D03*
X005504Y002599D03*
X005507Y002601D03*
X005510Y002601D03*
X005513Y002604D03*
X005516Y002608D03*
X005585Y002730D03*
X005543Y002764D03*
X005375Y002749D03*
X005261Y002749D03*
X005255Y002749D03*
X005252Y002749D03*
X005249Y002749D03*
X005246Y002749D03*
X005243Y002749D03*
X005240Y002749D03*
X005237Y002749D03*
X005234Y002749D03*
X005228Y002745D03*
X005225Y002745D03*
X005219Y002743D03*
X005216Y002743D03*
X005213Y002739D03*
X005210Y002739D03*
X005207Y002736D03*
X005192Y002841D03*
X005189Y002841D03*
X005186Y002841D03*
X005183Y002841D03*
X005180Y002841D03*
X005195Y002844D03*
X005198Y002844D03*
X005201Y002844D03*
X005204Y002844D03*
X005207Y002848D03*
X005210Y002848D03*
X005213Y002848D03*
X005216Y002848D03*
X005219Y002850D03*
X005222Y002850D03*
X005225Y002850D03*
X005228Y002850D03*
X005231Y002854D03*
X005234Y002854D03*
X005237Y002854D03*
X005240Y002854D03*
X005243Y002856D03*
X005246Y002856D03*
X005249Y002856D03*
X005255Y002859D03*
X005258Y002859D03*
X005261Y002859D03*
X005270Y002863D03*
X005282Y002865D03*
X005309Y002949D03*
X005312Y002949D03*
X005315Y002949D03*
X005318Y002949D03*
X005321Y002946D03*
X005324Y002946D03*
X005327Y002946D03*
X005336Y002944D03*
X005306Y002953D03*
X005303Y002953D03*
X005300Y002953D03*
X005294Y002955D03*
X005291Y002955D03*
X005285Y002959D03*
X005282Y002959D03*
X005273Y002961D03*
X005264Y002964D03*
X005261Y002964D03*
X005252Y002968D03*
X005243Y002970D03*
X005234Y002974D03*
X005174Y002991D03*
X005225Y003096D03*
X005213Y003204D03*
X005213Y003330D03*
X005210Y003330D03*
X005207Y003330D03*
X005204Y003330D03*
X005201Y003330D03*
X005198Y003330D03*
X005195Y003330D03*
X005192Y003330D03*
X005189Y003330D03*
X005186Y003330D03*
X005183Y003330D03*
X005180Y003330D03*
X005177Y003330D03*
X005174Y003330D03*
X005171Y003330D03*
X005168Y003330D03*
X005165Y003330D03*
X005162Y003330D03*
X005159Y003330D03*
X005156Y003330D03*
X005153Y003330D03*
X005150Y003330D03*
X005147Y003330D03*
X005144Y003330D03*
X005141Y003330D03*
X005138Y003330D03*
X005135Y003330D03*
X005132Y003330D03*
X005129Y003330D03*
X005126Y003330D03*
X005123Y003330D03*
X005120Y003330D03*
X005117Y003330D03*
X005114Y003330D03*
X005111Y003330D03*
X005108Y003330D03*
X005105Y003330D03*
X005102Y003330D03*
X005099Y003330D03*
X005096Y003330D03*
X005093Y003330D03*
X005090Y003330D03*
X005087Y003330D03*
X005084Y003330D03*
X005081Y003330D03*
X005069Y003330D03*
X005066Y003330D03*
X005060Y003330D03*
X005045Y003330D03*
X005042Y003330D03*
X005216Y003330D03*
X005219Y003330D03*
X005222Y003330D03*
X005225Y003330D03*
X005228Y003330D03*
X005231Y003330D03*
X005234Y003330D03*
X005237Y003330D03*
X005240Y003330D03*
X005243Y003330D03*
X005246Y003330D03*
X005249Y003330D03*
X005252Y003330D03*
X005255Y003330D03*
X005258Y003330D03*
X005261Y003330D03*
X005264Y003330D03*
X005267Y003330D03*
X005270Y003330D03*
X005273Y003330D03*
X005276Y003330D03*
X005279Y003330D03*
X005282Y003330D03*
X005285Y003330D03*
X005288Y003330D03*
X005291Y003330D03*
X005294Y003330D03*
X005297Y003330D03*
X005300Y003330D03*
X005303Y003330D03*
X005306Y003330D03*
X005309Y003330D03*
X005312Y003330D03*
X005315Y003330D03*
X005318Y003330D03*
X005321Y003330D03*
X005324Y003330D03*
X005327Y003330D03*
X005330Y003330D03*
X005333Y003330D03*
X005336Y003330D03*
X005339Y003330D03*
X005342Y003330D03*
X005345Y003330D03*
X005348Y003330D03*
X005351Y003330D03*
X005354Y003330D03*
X005357Y003330D03*
X005360Y003330D03*
X005363Y003330D03*
X005366Y003330D03*
X005369Y003330D03*
X005372Y003330D03*
X005375Y003330D03*
X005378Y003330D03*
X005381Y003330D03*
X005384Y003330D03*
X005387Y003330D03*
X005390Y003330D03*
X005393Y003330D03*
X005396Y003330D03*
X005363Y003225D03*
X005360Y003225D03*
X005357Y003225D03*
X005357Y003096D03*
X005354Y003096D03*
X005348Y003096D03*
X005360Y003096D03*
X005363Y003096D03*
X005366Y003096D03*
X005369Y003096D03*
X005372Y003096D03*
X005375Y003096D03*
X005378Y003096D03*
X005381Y003096D03*
X005384Y003096D03*
X005429Y002914D03*
X005432Y002914D03*
X005435Y002914D03*
X005441Y002916D03*
X005444Y002916D03*
X005450Y002919D03*
X005426Y002910D03*
X005423Y002910D03*
X005507Y002946D03*
X005306Y002619D03*
X005303Y002616D03*
X005300Y002616D03*
X005297Y002614D03*
X005294Y002614D03*
X005291Y002614D03*
X005285Y002610D03*
X005282Y002610D03*
X005279Y002610D03*
X005276Y002610D03*
X005273Y002610D03*
X005270Y002610D03*
X005267Y002610D03*
X005264Y002610D03*
X005261Y002610D03*
X005258Y002610D03*
X005255Y002610D03*
X005252Y002610D03*
X005249Y002610D03*
X005246Y002610D03*
X005243Y002610D03*
X005237Y002614D03*
X005234Y002614D03*
X005231Y002614D03*
X005228Y002616D03*
X005225Y002616D03*
X005219Y002619D03*
X005228Y002488D03*
X005231Y002488D03*
X005234Y002488D03*
X005237Y002488D03*
X005240Y002488D03*
X005243Y002488D03*
X005246Y002488D03*
X005249Y002488D03*
X005252Y002488D03*
X005255Y002488D03*
X005258Y002488D03*
X005261Y002488D03*
X005162Y003510D03*
X005237Y003600D03*
X005450Y003600D03*
X005534Y003600D03*
X005540Y003600D03*
X005546Y003600D03*
X005549Y003600D03*
X005552Y003600D03*
X005399Y003849D03*
X005276Y003840D03*
X005273Y003840D03*
X005270Y003840D03*
X005267Y003840D03*
X005264Y003840D03*
X005261Y003840D03*
X005258Y003840D03*
X005255Y003840D03*
X005252Y003840D03*
X005249Y003840D03*
X005246Y003840D03*
X005243Y003840D03*
X005240Y003840D03*
X005237Y003840D03*
X005228Y003844D03*
X005225Y003844D03*
X005162Y003900D03*
X005243Y003975D03*
X005252Y003979D03*
X005270Y003981D03*
X005273Y003981D03*
X005273Y004369D03*
X005270Y004369D03*
X005267Y004369D03*
X005264Y004369D03*
X005261Y004369D03*
X005258Y004369D03*
X005255Y004369D03*
X005252Y004369D03*
X005249Y004369D03*
X005246Y004369D03*
X005243Y004369D03*
X005240Y004369D03*
X005237Y004369D03*
X005234Y004369D03*
X005231Y004369D03*
X005228Y004369D03*
X005276Y004369D03*
X005279Y004369D03*
X005282Y004369D03*
X005285Y004369D03*
X005288Y004369D03*
X005291Y004369D03*
X005294Y004369D03*
X005297Y004369D03*
X005300Y004369D03*
X005303Y004369D03*
X005306Y004369D03*
X005309Y004369D03*
X005312Y004369D03*
X005315Y004369D03*
X005318Y004369D03*
X005321Y004369D03*
X005324Y004369D03*
X005327Y004369D03*
X005330Y004369D03*
X005333Y004369D03*
X005336Y004369D03*
X005339Y004369D03*
X005342Y004369D03*
X005345Y004369D03*
X005348Y004369D03*
X005351Y004369D03*
X005354Y004369D03*
X005357Y004369D03*
X005360Y004369D03*
X005363Y004369D03*
X005372Y004369D03*
X005381Y004369D03*
X005414Y004369D03*
X005420Y004369D03*
X005429Y004371D03*
X005432Y004371D03*
X005183Y004494D03*
X005180Y004494D03*
X005174Y004641D03*
X005318Y004639D03*
X005321Y004639D03*
X005327Y004639D03*
X005330Y004639D03*
X005444Y004584D03*
X005390Y005364D03*
X005261Y005364D03*
X005252Y005364D03*
X005252Y005509D03*
X005249Y005509D03*
X005246Y005509D03*
X005243Y005509D03*
X005240Y005509D03*
X005237Y005509D03*
X005234Y005509D03*
X005231Y005509D03*
X005228Y005509D03*
X005255Y005509D03*
X005258Y005509D03*
X005261Y005509D03*
X005264Y005509D03*
X005267Y005509D03*
X005270Y005509D03*
X005273Y005509D03*
X005276Y005509D03*
X005279Y005509D03*
X005282Y005509D03*
X005285Y005509D03*
X005288Y005509D03*
X005291Y005509D03*
X005294Y005509D03*
X005297Y005509D03*
X005300Y005509D03*
X005303Y005509D03*
X005306Y005509D03*
X005309Y005509D03*
X005312Y005509D03*
X005315Y005509D03*
X005318Y005509D03*
X005321Y005509D03*
X005324Y005509D03*
X005327Y005509D03*
X005330Y005509D03*
X005333Y005509D03*
X005336Y005509D03*
X005339Y005509D03*
X005342Y005509D03*
X005345Y005509D03*
X005348Y005509D03*
X005351Y005509D03*
X005354Y005509D03*
X005357Y005509D03*
X005360Y005509D03*
X005363Y005509D03*
X005366Y005509D03*
X005369Y005509D03*
X005372Y005509D03*
X005375Y005509D03*
X005378Y005509D03*
X005381Y005509D03*
X005384Y005509D03*
X005387Y005509D03*
X005390Y005509D03*
X005393Y005509D03*
X005396Y005509D03*
X005399Y005509D03*
X005402Y005509D03*
X005408Y005509D03*
X005429Y005511D03*
X005432Y005511D03*
X005399Y005625D03*
X005276Y005616D03*
X005273Y005616D03*
X005270Y005616D03*
X005267Y005616D03*
X005264Y005616D03*
X005261Y005616D03*
X005258Y005616D03*
X005255Y005616D03*
X005252Y005616D03*
X005249Y005616D03*
X005246Y005616D03*
X005243Y005616D03*
X005240Y005616D03*
X005237Y005616D03*
X005228Y005619D03*
X005225Y005619D03*
X005162Y005676D03*
X005243Y005751D03*
X005252Y005754D03*
X005267Y005758D03*
X005270Y005758D03*
X005327Y005760D03*
X005162Y005929D03*
X005234Y006015D03*
X005240Y006015D03*
X005531Y006015D03*
X005537Y006015D03*
X005540Y006015D03*
X005543Y006015D03*
X005546Y006015D03*
X005549Y006015D03*
X005435Y006534D03*
X005432Y006534D03*
X005429Y006534D03*
X005429Y006681D03*
X005426Y006681D03*
X005423Y006681D03*
X005420Y006681D03*
X005378Y006804D03*
X005375Y006804D03*
X005372Y006804D03*
X005369Y006804D03*
X005366Y006804D03*
X005363Y006804D03*
X005360Y006804D03*
X005357Y006804D03*
X005354Y006804D03*
X005351Y006804D03*
X005348Y006804D03*
X005345Y006804D03*
X005342Y006804D03*
X005339Y006804D03*
X005336Y006804D03*
X005333Y006804D03*
X005330Y006804D03*
X005327Y006804D03*
X005324Y006804D03*
X005321Y006804D03*
X005318Y006804D03*
X005315Y006804D03*
X005270Y006804D03*
X005267Y006804D03*
X005264Y006804D03*
X005261Y006804D03*
X005258Y006804D03*
X005255Y006804D03*
X005252Y006804D03*
X005249Y006804D03*
X005246Y006804D03*
X005243Y006804D03*
X005240Y006804D03*
X005237Y006804D03*
X005234Y006804D03*
X005231Y006804D03*
X005228Y006804D03*
X005225Y006804D03*
X005351Y006934D03*
X005357Y006934D03*
X004430Y006508D03*
X004403Y006334D03*
X004487Y006114D03*
X004490Y006114D03*
X004496Y006114D03*
X004139Y006321D03*
X004061Y006006D03*
X004124Y004635D03*
X004472Y003898D03*
X004124Y003343D03*
X004172Y003133D03*
X004175Y003133D03*
X004178Y003133D03*
X004181Y003133D03*
X004190Y003129D03*
X004193Y003129D03*
D13*
X004253Y003110D03*
X004112Y003140D03*
X004427Y003359D03*
X004442Y003545D03*
X004325Y003737D03*
X004418Y003746D03*
X004493Y003893D03*
X005168Y003512D03*
X005378Y002912D03*
X005381Y002912D03*
X005534Y002984D03*
X005582Y002726D03*
X005210Y002609D03*
X005441Y002243D03*
X005438Y001991D03*
X005168Y001685D03*
X005399Y004172D03*
X005399Y004619D03*
X005405Y004880D03*
X005324Y005036D03*
X005321Y005039D03*
X005318Y005042D03*
X005279Y005087D03*
X005168Y005417D03*
X005207Y005888D03*
X005168Y005927D03*
X005441Y006215D03*
X005405Y006260D03*
X005168Y006590D03*
X004430Y006131D03*
X004427Y006131D03*
X004427Y005933D03*
X004385Y005711D03*
X004382Y005711D03*
X004415Y005525D03*
X004418Y005525D03*
X004463Y005498D03*
X004424Y005318D03*
X004400Y005111D03*
X004397Y005111D03*
X004394Y005111D03*
X004151Y005111D03*
X004148Y005111D03*
X004136Y005318D03*
X004151Y005525D03*
X004154Y005525D03*
X004157Y005525D03*
X004139Y005711D03*
X004136Y005711D03*
X004136Y005921D03*
X004115Y006134D03*
X004112Y006134D03*
X004091Y004796D03*
X004430Y004610D03*
D14*
X004100Y005128D03*
X004097Y005131D03*
X004094Y005131D03*
X004409Y005320D03*
X004481Y005491D03*
X004115Y005515D03*
X004112Y005515D03*
X004145Y005923D03*
X004451Y006334D03*
X004454Y006334D03*
X004154Y006508D03*
X004151Y006508D03*
X005171Y005059D03*
X005171Y004831D03*
X005438Y004120D03*
X005171Y004114D03*
X005438Y003901D03*
X004457Y003166D03*
X004406Y003349D03*
X004403Y003349D03*
X004139Y003346D03*
X004094Y003556D03*
X004091Y003556D03*
X004145Y003751D03*
X005351Y002695D03*
X005579Y002725D03*
X005171Y002239D03*
D15*
X005429Y001990D03*
X005177Y001686D03*
X005342Y002683D03*
X005576Y002721D03*
X005177Y003514D03*
X005435Y003901D03*
X005429Y004581D03*
X005432Y004836D03*
X005174Y004831D03*
X005174Y005059D03*
X005177Y005421D03*
X005435Y005676D03*
X005177Y005929D03*
X005177Y006591D03*
X005282Y006838D03*
X004463Y006334D03*
X004373Y006148D03*
X004163Y006148D03*
X004160Y006148D03*
X004079Y006321D03*
X004166Y006505D03*
X004169Y006505D03*
X004388Y005926D03*
X004391Y005926D03*
X004448Y005728D03*
X004085Y005728D03*
X004097Y005509D03*
X004163Y005316D03*
X004085Y005134D03*
X004397Y005320D03*
X004457Y005128D03*
X004235Y004648D03*
X004232Y004648D03*
X004229Y004648D03*
X004226Y004648D03*
X004220Y004645D03*
X004217Y004645D03*
X004214Y004645D03*
X004211Y004645D03*
X004208Y004645D03*
X004205Y004645D03*
X004502Y003891D03*
X004073Y003561D03*
X004151Y003343D03*
X004379Y003343D03*
X004382Y003343D03*
X004277Y003096D03*
D16*
X004289Y003090D03*
X004478Y003175D03*
X004349Y003336D03*
X004346Y003336D03*
X004343Y003336D03*
X004340Y003336D03*
X004184Y003336D03*
X004181Y003336D03*
X004178Y003336D03*
X004175Y003336D03*
X004061Y003568D03*
X005183Y003904D03*
X005180Y004114D03*
X005210Y004333D03*
X005213Y004333D03*
X005429Y004123D03*
X005432Y003900D03*
X005285Y003133D03*
X005177Y003150D03*
X005573Y002721D03*
X005336Y002680D03*
X005213Y002451D03*
X005210Y002451D03*
X005165Y001401D03*
X005429Y004836D03*
X005432Y005676D03*
X005183Y005680D03*
X004463Y005734D03*
X004358Y005920D03*
X004355Y005920D03*
X004352Y005920D03*
X004349Y005920D03*
X004175Y005920D03*
X004172Y005920D03*
X004169Y005920D03*
X004073Y005734D03*
X004085Y005503D03*
X004178Y005316D03*
X004181Y005316D03*
X004379Y005320D03*
X004469Y005134D03*
X004079Y005134D03*
X004181Y006154D03*
X004352Y006154D03*
X004355Y006154D03*
X004472Y006334D03*
X004181Y006501D03*
X004070Y006321D03*
D17*
X005192Y004331D03*
X005195Y004331D03*
X005198Y004331D03*
X004289Y003332D03*
X004286Y003332D03*
X004283Y003332D03*
X004280Y003332D03*
X004277Y003332D03*
X004274Y003332D03*
X004271Y003332D03*
X004268Y003332D03*
X004265Y003332D03*
X004262Y003332D03*
X004259Y003332D03*
X004256Y003332D03*
X004253Y003332D03*
X004250Y003332D03*
X004247Y003332D03*
X004244Y003332D03*
X004241Y003332D03*
X004238Y003332D03*
X004235Y003332D03*
X004232Y003332D03*
X004229Y003332D03*
X004226Y003332D03*
X004295Y003086D03*
X004481Y003176D03*
X004055Y003572D03*
X005180Y003152D03*
X005570Y002717D03*
X005333Y002681D03*
X005168Y001406D03*
D18*
X005174Y001411D03*
X005186Y002239D03*
X005567Y002716D03*
X005192Y003904D03*
X005192Y004120D03*
X005198Y004123D03*
X005417Y004126D03*
X005420Y004126D03*
X005420Y004836D03*
X005186Y004831D03*
X005192Y005065D03*
X005195Y005065D03*
X005198Y005068D03*
X005201Y005068D03*
X005423Y005080D03*
X005192Y005680D03*
X005438Y005971D03*
X005186Y006211D03*
X005297Y006853D03*
X004487Y006334D03*
X004322Y006163D03*
X004319Y006163D03*
X004211Y006163D03*
X004199Y006501D03*
X004061Y005743D03*
X004070Y005494D03*
X004226Y005320D03*
X004229Y005320D03*
X004232Y005320D03*
X004325Y005320D03*
X004328Y005320D03*
X004331Y005320D03*
X004334Y005320D03*
X004073Y005134D03*
X004055Y004776D03*
X004415Y004603D03*
X004427Y004030D03*
X004304Y003081D03*
D19*
X004307Y003081D03*
X004487Y003178D03*
X004508Y003523D03*
X005189Y003156D03*
X005564Y002715D03*
X005393Y002700D03*
X005414Y004125D03*
X005204Y004125D03*
X005189Y004830D03*
X005417Y004836D03*
X005417Y005076D03*
X005435Y005968D03*
X005189Y006210D03*
X005303Y006855D03*
X004313Y006165D03*
X004310Y006165D03*
X004223Y006165D03*
X004220Y006165D03*
X004202Y006501D03*
X004058Y005745D03*
X004067Y005490D03*
X004490Y005145D03*
X004319Y004890D03*
X004316Y004890D03*
X004313Y004890D03*
X004310Y004890D03*
X004307Y004890D03*
X004304Y004890D03*
X004301Y004890D03*
X004298Y004890D03*
X004295Y004890D03*
X004292Y004890D03*
X004289Y004890D03*
X004286Y004890D03*
X004283Y004890D03*
X004280Y004890D03*
X004277Y004890D03*
X004274Y004890D03*
X004271Y004890D03*
X004268Y004890D03*
X004136Y004860D03*
D20*
X004139Y004864D03*
X004211Y004888D03*
X004214Y004888D03*
X004217Y004888D03*
X004220Y004888D03*
X004223Y004888D03*
X004226Y004888D03*
X004229Y004888D03*
X004355Y004888D03*
X004358Y004888D03*
X004361Y004888D03*
X004364Y004888D03*
X004367Y004888D03*
X004370Y004888D03*
X004373Y004888D03*
X004496Y005151D03*
X004484Y005740D03*
X004055Y005749D03*
X004229Y006169D03*
X004232Y006169D03*
X004301Y006169D03*
X004205Y006505D03*
X004472Y006906D03*
X004475Y006906D03*
X004478Y006906D03*
X004481Y006906D03*
X004484Y006906D03*
X004487Y006906D03*
X003887Y006906D03*
X005192Y006865D03*
X005195Y006865D03*
X005198Y006865D03*
X005204Y006861D03*
X005207Y006861D03*
X005309Y006859D03*
X005414Y006214D03*
X005192Y006210D03*
X005429Y005965D03*
X005318Y005706D03*
X005414Y005680D03*
X005417Y005680D03*
X005405Y005070D03*
X005414Y004836D03*
X005192Y004830D03*
X005408Y004129D03*
X005318Y003930D03*
X005414Y003904D03*
X005417Y003904D03*
X005429Y003546D03*
X005306Y003148D03*
X005207Y003154D03*
X005204Y003154D03*
X005201Y003154D03*
X005195Y003156D03*
X005561Y002713D03*
X005321Y002680D03*
X005192Y002239D03*
X004403Y002749D03*
X004400Y002749D03*
X004397Y002749D03*
X004394Y002749D03*
X004391Y002749D03*
X004388Y002749D03*
X004385Y002749D03*
X004382Y002749D03*
X004379Y002749D03*
X004376Y002749D03*
X004373Y002749D03*
X004370Y002749D03*
X004367Y002749D03*
X004364Y002749D03*
X004361Y002749D03*
X004310Y003079D03*
X004490Y003178D03*
D21*
X005468Y002708D03*
X005447Y001988D03*
X005432Y001898D03*
X005165Y001883D03*
X005174Y004373D03*
X005447Y004583D03*
X005393Y005135D03*
X005174Y005513D03*
X005558Y006023D03*
X004169Y006323D03*
D22*
X004166Y006321D03*
X004373Y006334D03*
X004376Y006334D03*
X004121Y005919D03*
X005174Y006021D03*
X005222Y006924D03*
X005162Y004635D03*
X005432Y004491D03*
X004499Y003688D03*
X005174Y003606D03*
X005558Y003604D03*
X005222Y003216D03*
X005471Y002709D03*
X005162Y002409D03*
D23*
X005195Y002239D03*
X005171Y002644D03*
X005396Y002695D03*
X005558Y002710D03*
X005312Y003151D03*
X005423Y003544D03*
X004316Y003076D03*
X004046Y003586D03*
X004184Y004885D03*
X004187Y004885D03*
X004190Y004885D03*
X004193Y004885D03*
X004388Y004885D03*
X004391Y004885D03*
X004394Y004885D03*
X004397Y004885D03*
X004499Y005155D03*
X004505Y005479D03*
X004487Y005740D03*
X004052Y006319D03*
X005195Y006211D03*
X005411Y006214D03*
X005408Y005683D03*
X005405Y005683D03*
X005186Y001420D03*
D24*
X005438Y001631D03*
X005438Y001781D03*
X005168Y001895D03*
X005165Y002411D03*
X005486Y002717D03*
X005168Y002990D03*
X005216Y003209D03*
X005555Y003602D03*
X005402Y004073D03*
X005207Y004070D03*
X005165Y004292D03*
X005168Y004490D03*
X005447Y004835D03*
X005438Y005513D03*
X005555Y006020D03*
X005438Y006536D03*
X005438Y006686D03*
X005216Y006917D03*
X004499Y006536D03*
X004451Y006515D03*
X004445Y006512D03*
X004394Y006335D03*
X004439Y005933D03*
X004124Y005918D03*
X004463Y003899D03*
X004466Y003899D03*
X004505Y003689D03*
D25*
X004067Y003404D03*
X005030Y003323D03*
X005159Y003155D03*
X005159Y003128D03*
X005447Y003083D03*
X005555Y002981D03*
X005159Y002690D03*
X005159Y002669D03*
X005213Y002582D03*
X005213Y002576D03*
X005213Y002570D03*
X005159Y002225D03*
X005405Y002237D03*
X005165Y001901D03*
X005171Y001781D03*
X005171Y001775D03*
X005441Y001616D03*
X005159Y001445D03*
X005030Y001352D03*
X005030Y001346D03*
X005030Y001340D03*
X005159Y003908D03*
X005324Y003923D03*
X005399Y003899D03*
X005402Y004103D03*
X005159Y004097D03*
X005216Y004271D03*
X005216Y004277D03*
X005399Y004568D03*
X005204Y004829D03*
X005159Y004823D03*
X005159Y004817D03*
X005159Y005048D03*
X005159Y005072D03*
X005447Y005105D03*
X005159Y005414D03*
X005171Y005510D03*
X005159Y005684D03*
X005324Y005699D03*
X005399Y005675D03*
X005159Y006200D03*
X005159Y006587D03*
X005171Y006683D03*
X005171Y006689D03*
X005159Y006836D03*
X005159Y006863D03*
X005228Y006932D03*
X005447Y006884D03*
X004925Y006833D03*
X004079Y004991D03*
D26*
X004148Y004874D03*
X004172Y004883D03*
X004175Y004883D03*
X004178Y004883D03*
X004181Y004883D03*
X004400Y004883D03*
X004403Y004883D03*
X004406Y004883D03*
X004058Y005483D03*
X004244Y006173D03*
X004247Y006173D03*
X004283Y006173D03*
X004286Y006173D03*
X005198Y006209D03*
X005408Y006215D03*
X005423Y005960D03*
X005402Y005684D03*
X005402Y003908D03*
X005405Y003908D03*
X004433Y002753D03*
X004430Y002753D03*
X004334Y002753D03*
X004331Y002753D03*
X005408Y002243D03*
X005555Y002708D03*
D27*
X005537Y002762D03*
X005501Y002732D03*
X005495Y002726D03*
X005372Y002747D03*
X005366Y002741D03*
X005357Y002732D03*
X005321Y002876D03*
X005342Y002882D03*
X005291Y002867D03*
X005288Y002867D03*
X005285Y002867D03*
X005267Y002861D03*
X005264Y002861D03*
X005339Y002942D03*
X005342Y002942D03*
X005345Y002942D03*
X005453Y002921D03*
X005456Y002921D03*
X005459Y002921D03*
X005471Y002927D03*
X005489Y002936D03*
X005492Y002936D03*
X005501Y002942D03*
X005438Y003086D03*
X005444Y003176D03*
X005231Y002747D03*
X005288Y002612D03*
X005435Y002492D03*
X005489Y002591D03*
X005492Y002591D03*
X005501Y002597D03*
X005180Y001901D03*
X004046Y003377D03*
X005162Y005417D03*
X005552Y006017D03*
D28*
X005441Y006690D03*
X005219Y006921D03*
X004481Y006525D03*
X004478Y006525D03*
X004475Y006523D03*
X004472Y006523D03*
X004469Y006523D03*
X004154Y006321D03*
X004118Y004635D03*
X004502Y003688D03*
X004121Y003343D03*
X005177Y003606D03*
X005552Y002985D03*
X005477Y002713D03*
X005441Y001785D03*
X005180Y001783D03*
D29*
X005195Y001424D03*
X005198Y001424D03*
X005426Y002654D03*
X005552Y002705D03*
X005426Y003143D03*
X005414Y003539D03*
X004511Y003521D03*
X004322Y003071D03*
X004322Y002756D03*
X004319Y002756D03*
X004445Y002756D03*
X004106Y002756D03*
X004103Y002756D03*
X004100Y002756D03*
X004097Y002756D03*
X004082Y002756D03*
X005201Y004832D03*
X004424Y004880D03*
X004421Y004880D03*
X004418Y004880D03*
X004160Y004880D03*
X004157Y004880D03*
X004049Y005756D03*
X004058Y006062D03*
X004256Y006176D03*
X004274Y006176D03*
X004277Y006176D03*
X004490Y005741D03*
X005417Y005957D03*
X005429Y006851D03*
D30*
X005435Y006685D03*
X005162Y006589D03*
X004502Y006541D03*
X004442Y006511D03*
X004439Y006511D03*
X004397Y006334D03*
X005438Y005365D03*
X005171Y004639D03*
X005438Y004375D03*
X004433Y003751D03*
X004301Y003718D03*
X005039Y003331D03*
X005438Y003319D03*
X005549Y002986D03*
X005498Y002941D03*
X005474Y002929D03*
X005468Y002926D03*
X005345Y002884D03*
X005339Y002881D03*
X005336Y002881D03*
X005330Y002878D03*
X005327Y002878D03*
X005324Y002878D03*
X005318Y002875D03*
X005315Y002875D03*
X005294Y002869D03*
X005171Y002839D03*
X005162Y002680D03*
X005438Y002494D03*
X005507Y002740D03*
X005510Y002743D03*
X005513Y002746D03*
X005516Y002749D03*
X005525Y002755D03*
X005528Y002758D03*
X005534Y002761D03*
X005540Y002764D03*
X005435Y001780D03*
X005162Y001684D03*
X005039Y001363D03*
X004121Y004636D03*
D31*
X004427Y004879D03*
X004430Y004879D03*
X004055Y005479D03*
X004493Y005743D03*
X004271Y006178D03*
X004268Y006178D03*
X004262Y006178D03*
X004259Y006178D03*
X004502Y006331D03*
X004208Y006511D03*
X004502Y006898D03*
X003881Y006898D03*
X005426Y006853D03*
X005414Y005956D03*
X005411Y003538D03*
X005423Y003145D03*
X005549Y002704D03*
X005423Y002659D03*
X005402Y002686D03*
X005177Y002646D03*
X004451Y002758D03*
X004448Y002758D03*
X004316Y002758D03*
X004115Y002758D03*
X004112Y002758D03*
X004109Y002758D03*
X004079Y002758D03*
X004076Y002758D03*
X004325Y003070D03*
X005201Y001426D03*
X005432Y001414D03*
D32*
X005435Y001354D03*
X005357Y001516D03*
X005345Y001519D03*
X005342Y001519D03*
X005339Y001519D03*
X005336Y001519D03*
X005333Y001519D03*
X005330Y001519D03*
X005327Y001519D03*
X005321Y001521D03*
X005315Y001521D03*
X005312Y001521D03*
X005306Y001519D03*
X005300Y001519D03*
X005294Y001519D03*
X005291Y001519D03*
X005288Y001519D03*
X005285Y001519D03*
X005282Y001519D03*
X005279Y001519D03*
X005276Y001519D03*
X005267Y001516D03*
X005264Y001516D03*
X005261Y001516D03*
X005255Y001513D03*
X005252Y001513D03*
X005246Y001510D03*
X005243Y001510D03*
X005240Y001506D03*
X005237Y001506D03*
X005231Y001504D03*
X005234Y001633D03*
X005237Y001633D03*
X005240Y001633D03*
X005225Y001636D03*
X005222Y001636D03*
X005225Y001774D03*
X005234Y002041D03*
X005237Y002041D03*
X005291Y002044D03*
X005372Y002044D03*
X005375Y002044D03*
X005381Y002041D03*
X005384Y002041D03*
X005351Y002161D03*
X005363Y002164D03*
X005372Y002166D03*
X005381Y002170D03*
X005384Y002173D03*
X005387Y002173D03*
X005390Y002176D03*
X005336Y002158D03*
X005333Y002158D03*
X005327Y002158D03*
X005279Y002158D03*
X005276Y002158D03*
X005273Y002158D03*
X005270Y002158D03*
X005267Y002158D03*
X005264Y002158D03*
X005252Y002161D03*
X005249Y002161D03*
X005246Y002161D03*
X005240Y002164D03*
X005237Y002164D03*
X005234Y002166D03*
X005231Y002166D03*
X005225Y002170D03*
X005228Y002311D03*
X005231Y002311D03*
X005234Y002314D03*
X005237Y002314D03*
X005243Y002316D03*
X005246Y002316D03*
X005249Y002316D03*
X005252Y002320D03*
X005255Y002320D03*
X005258Y002320D03*
X005261Y002320D03*
X005267Y002323D03*
X005270Y002323D03*
X005273Y002323D03*
X005276Y002323D03*
X005279Y002323D03*
X005282Y002323D03*
X005285Y002323D03*
X005288Y002323D03*
X005291Y002323D03*
X005294Y002323D03*
X005297Y002323D03*
X005300Y002323D03*
X005303Y002323D03*
X005306Y002323D03*
X005309Y002323D03*
X005312Y002323D03*
X005315Y002323D03*
X005321Y002323D03*
X005324Y002323D03*
X005327Y002323D03*
X005330Y002323D03*
X005333Y002323D03*
X005336Y002323D03*
X005339Y002323D03*
X005342Y002323D03*
X005345Y002323D03*
X005348Y002320D03*
X005351Y002320D03*
X005354Y002320D03*
X005357Y002320D03*
X005360Y002320D03*
X005363Y002316D03*
X005366Y002316D03*
X005369Y002316D03*
X005375Y002314D03*
X005456Y002586D03*
X005450Y002590D03*
X005522Y002614D03*
X005525Y002616D03*
X005528Y002620D03*
X005381Y002749D03*
X005294Y002743D03*
X005291Y002743D03*
X005288Y002746D03*
X005285Y002746D03*
X005282Y002746D03*
X005204Y002734D03*
X005201Y002731D03*
X005213Y002620D03*
X005198Y002986D03*
X005195Y002986D03*
X005189Y002989D03*
X005186Y002989D03*
X005180Y002991D03*
X005213Y003100D03*
X005162Y003141D03*
X005327Y003214D03*
X005330Y003216D03*
X005333Y003216D03*
X005336Y003220D03*
X005387Y003223D03*
X005390Y003223D03*
X005390Y003100D03*
X005546Y002986D03*
X005369Y003454D03*
X005366Y003454D03*
X005360Y003451D03*
X005357Y003451D03*
X005354Y003451D03*
X005351Y003448D03*
X005348Y003448D03*
X005345Y003448D03*
X005342Y003448D03*
X005339Y003445D03*
X005336Y003445D03*
X005333Y003445D03*
X005330Y003445D03*
X005327Y003445D03*
X005324Y003445D03*
X005315Y003441D03*
X005312Y003441D03*
X005309Y003441D03*
X005306Y003441D03*
X005303Y003441D03*
X005300Y003441D03*
X005297Y003441D03*
X005294Y003441D03*
X005291Y003441D03*
X005288Y003441D03*
X005285Y003441D03*
X005282Y003441D03*
X005279Y003441D03*
X005276Y003441D03*
X005273Y003441D03*
X005270Y003441D03*
X005267Y003441D03*
X005264Y003441D03*
X005261Y003441D03*
X005252Y003445D03*
X005249Y003445D03*
X005246Y003445D03*
X005237Y003448D03*
X005375Y003456D03*
X005393Y003598D03*
X005222Y003598D03*
X005210Y003850D03*
X005279Y003844D03*
X005216Y003964D03*
X005222Y003966D03*
X005324Y003981D03*
X005363Y003979D03*
X005366Y003979D03*
X005372Y003976D03*
X005375Y003976D03*
X005378Y003973D03*
X005360Y004198D03*
X005357Y004198D03*
X005354Y004198D03*
X005351Y004201D03*
X005348Y004201D03*
X005345Y004201D03*
X005342Y004201D03*
X005324Y004204D03*
X005315Y004204D03*
X005312Y004204D03*
X005309Y004204D03*
X005306Y004204D03*
X005303Y004204D03*
X005300Y004204D03*
X005297Y004204D03*
X005294Y004204D03*
X005291Y004204D03*
X005273Y004201D03*
X005270Y004201D03*
X005267Y004201D03*
X005255Y004198D03*
X005246Y004195D03*
X005243Y004195D03*
X005240Y004191D03*
X005237Y004191D03*
X005234Y004189D03*
X005231Y004189D03*
X005384Y004498D03*
X005381Y004636D03*
X005378Y004636D03*
X005264Y004636D03*
X005204Y004636D03*
X005240Y004756D03*
X005243Y004756D03*
X005246Y004756D03*
X005237Y004759D03*
X005234Y004759D03*
X005228Y004761D03*
X005255Y004753D03*
X005258Y004753D03*
X005261Y004753D03*
X005264Y004753D03*
X005273Y004750D03*
X005279Y004750D03*
X005282Y004750D03*
X005285Y004750D03*
X005288Y004750D03*
X005291Y004750D03*
X005294Y004750D03*
X005297Y004750D03*
X005300Y004750D03*
X005303Y004750D03*
X005306Y004750D03*
X005309Y004750D03*
X005312Y004750D03*
X005315Y004750D03*
X005318Y004750D03*
X005321Y004750D03*
X005324Y004750D03*
X005342Y004753D03*
X005345Y004753D03*
X005348Y004753D03*
X005357Y004756D03*
X005360Y004756D03*
X005369Y004759D03*
X005378Y004761D03*
X005384Y004765D03*
X005387Y004768D03*
X005390Y004768D03*
X005393Y004771D03*
X005372Y004909D03*
X005369Y004909D03*
X005363Y004911D03*
X005360Y004911D03*
X005357Y004911D03*
X005354Y004915D03*
X005351Y004915D03*
X005348Y004915D03*
X005345Y004915D03*
X005342Y004915D03*
X005339Y004915D03*
X005336Y004915D03*
X005330Y004918D03*
X005324Y004918D03*
X005321Y004918D03*
X005318Y004918D03*
X005315Y004918D03*
X005312Y004918D03*
X005309Y004918D03*
X005306Y004918D03*
X005303Y004918D03*
X005300Y004918D03*
X005297Y004918D03*
X005294Y004918D03*
X005291Y004918D03*
X005288Y004918D03*
X005285Y004918D03*
X005282Y004918D03*
X005279Y004918D03*
X005273Y004915D03*
X005270Y004915D03*
X005267Y004915D03*
X005264Y004915D03*
X005261Y004915D03*
X005258Y004915D03*
X005252Y004911D03*
X005249Y004911D03*
X005246Y004911D03*
X005243Y004909D03*
X005240Y004909D03*
X005237Y004909D03*
X005234Y004906D03*
X005231Y004906D03*
X005225Y004903D03*
X005162Y004831D03*
X005204Y005023D03*
X005162Y005059D03*
X005219Y005119D03*
X005222Y005119D03*
X005225Y005119D03*
X005228Y005119D03*
X005234Y005119D03*
X005237Y005119D03*
X005240Y005119D03*
X005243Y005119D03*
X005402Y005121D03*
X005387Y005014D03*
X005384Y005014D03*
X005378Y005011D03*
X005375Y005011D03*
X005372Y005011D03*
X005369Y005011D03*
X005366Y005011D03*
X005363Y005011D03*
X005360Y005011D03*
X005249Y005365D03*
X005231Y005368D03*
X005228Y005368D03*
X005225Y005368D03*
X005210Y005626D03*
X005216Y005740D03*
X005219Y005743D03*
X005222Y005743D03*
X005252Y005860D03*
X005255Y005860D03*
X005258Y005860D03*
X005261Y005860D03*
X005264Y005860D03*
X005267Y005860D03*
X005270Y005860D03*
X005273Y005856D03*
X005282Y005856D03*
X005285Y005856D03*
X005294Y005856D03*
X005297Y005856D03*
X005300Y005856D03*
X005306Y005860D03*
X005309Y005860D03*
X005315Y005860D03*
X005318Y005860D03*
X005321Y005860D03*
X005324Y005860D03*
X005327Y005860D03*
X005330Y005860D03*
X005333Y005860D03*
X005336Y005863D03*
X005339Y005863D03*
X005342Y005863D03*
X005345Y005863D03*
X005351Y005866D03*
X005354Y005866D03*
X005357Y005866D03*
X005360Y005869D03*
X005363Y005869D03*
X005366Y005869D03*
X005369Y005871D03*
X005372Y005871D03*
X005378Y005875D03*
X005351Y005758D03*
X005363Y005755D03*
X005372Y005751D03*
X005375Y005751D03*
X005378Y005749D03*
X005243Y005863D03*
X005240Y005863D03*
X005390Y006016D03*
X005354Y006133D03*
X005351Y006133D03*
X005336Y006130D03*
X005333Y006130D03*
X005330Y006130D03*
X005327Y006130D03*
X005306Y006126D03*
X005303Y006126D03*
X005297Y006126D03*
X005273Y006130D03*
X005270Y006130D03*
X005267Y006130D03*
X005264Y006130D03*
X005261Y006130D03*
X005252Y006133D03*
X005249Y006133D03*
X005246Y006133D03*
X005240Y006136D03*
X005237Y006136D03*
X005234Y006136D03*
X005231Y006139D03*
X005228Y006139D03*
X005228Y006283D03*
X005231Y006283D03*
X005234Y006286D03*
X005237Y006286D03*
X005240Y006286D03*
X005243Y006289D03*
X005246Y006289D03*
X005249Y006289D03*
X005252Y006291D03*
X005255Y006291D03*
X005258Y006291D03*
X005261Y006291D03*
X005264Y006291D03*
X005270Y006295D03*
X005273Y006295D03*
X005276Y006295D03*
X005279Y006295D03*
X005282Y006295D03*
X005285Y006295D03*
X005288Y006295D03*
X005291Y006295D03*
X005294Y006295D03*
X005297Y006295D03*
X005300Y006295D03*
X005303Y006295D03*
X005306Y006295D03*
X005309Y006295D03*
X005312Y006295D03*
X005315Y006295D03*
X005321Y006295D03*
X005324Y006295D03*
X005327Y006295D03*
X005330Y006295D03*
X005333Y006295D03*
X005336Y006295D03*
X005339Y006295D03*
X005342Y006295D03*
X005348Y006291D03*
X005351Y006291D03*
X005354Y006291D03*
X005357Y006291D03*
X005363Y006289D03*
X005366Y006289D03*
X005369Y006289D03*
X005375Y006286D03*
X005390Y006148D03*
X005387Y006145D03*
X005381Y006141D03*
X005372Y006139D03*
X005237Y006538D03*
X005225Y006541D03*
X005222Y006541D03*
X005225Y006679D03*
X005216Y006808D03*
X005213Y006808D03*
X005330Y006925D03*
X005333Y006928D03*
X005381Y006934D03*
X005390Y006931D03*
X005390Y006808D03*
X004478Y006118D03*
X004475Y006118D03*
X004409Y006334D03*
X004406Y006334D03*
X004133Y006321D03*
X004127Y005920D03*
X004127Y004636D03*
X004433Y004611D03*
X004475Y003898D03*
X004430Y003751D03*
X004508Y003691D03*
X004208Y003126D03*
X004205Y003126D03*
X004157Y003136D03*
X004154Y003136D03*
X004151Y003136D03*
X004436Y002995D03*
X005210Y001366D03*
D33*
X005213Y001364D03*
X005216Y001364D03*
X005219Y001364D03*
X005222Y001364D03*
X005225Y001364D03*
X005228Y001364D03*
X005231Y001364D03*
X005234Y001364D03*
X005237Y001364D03*
X005240Y001364D03*
X005243Y001364D03*
X005246Y001364D03*
X005249Y001364D03*
X005252Y001364D03*
X005255Y001364D03*
X005258Y001364D03*
X005261Y001364D03*
X005264Y001364D03*
X005267Y001364D03*
X005270Y001364D03*
X005273Y001364D03*
X005276Y001364D03*
X005279Y001364D03*
X005282Y001364D03*
X005285Y001364D03*
X005288Y001364D03*
X005291Y001364D03*
X005294Y001364D03*
X005297Y001364D03*
X005300Y001364D03*
X005303Y001364D03*
X005306Y001364D03*
X005309Y001364D03*
X005312Y001364D03*
X005315Y001364D03*
X005318Y001364D03*
X005321Y001364D03*
X005324Y001364D03*
X005327Y001364D03*
X005330Y001364D03*
X005333Y001364D03*
X005336Y001364D03*
X005339Y001364D03*
X005342Y001364D03*
X005345Y001364D03*
X005348Y001364D03*
X005351Y001364D03*
X005354Y001364D03*
X005357Y001364D03*
X005360Y001364D03*
X005363Y001364D03*
X005366Y001364D03*
X005372Y001364D03*
X005375Y001364D03*
X005378Y001364D03*
X005387Y001364D03*
X005444Y001445D03*
X005303Y001520D03*
X005297Y001520D03*
X005273Y001517D03*
X005270Y001517D03*
X005258Y001514D03*
X005249Y001511D03*
X005249Y001631D03*
X005246Y001631D03*
X005243Y001631D03*
X005252Y001631D03*
X005255Y001631D03*
X005258Y001631D03*
X005261Y001631D03*
X005264Y001631D03*
X005267Y001631D03*
X005270Y001631D03*
X005273Y001631D03*
X005276Y001631D03*
X005279Y001631D03*
X005282Y001631D03*
X005285Y001631D03*
X005288Y001631D03*
X005291Y001631D03*
X005294Y001631D03*
X005297Y001631D03*
X005300Y001631D03*
X005303Y001631D03*
X005306Y001631D03*
X005309Y001631D03*
X005312Y001631D03*
X005315Y001631D03*
X005318Y001631D03*
X005321Y001631D03*
X005324Y001631D03*
X005327Y001631D03*
X005330Y001631D03*
X005333Y001631D03*
X005336Y001631D03*
X005339Y001631D03*
X005342Y001631D03*
X005345Y001631D03*
X005348Y001631D03*
X005351Y001631D03*
X005354Y001631D03*
X005357Y001631D03*
X005360Y001631D03*
X005363Y001631D03*
X005366Y001631D03*
X005369Y001631D03*
X005372Y001631D03*
X005375Y001631D03*
X005378Y001631D03*
X005381Y001631D03*
X005384Y001631D03*
X005387Y001631D03*
X005390Y001631D03*
X005393Y001631D03*
X005396Y001631D03*
X005399Y001631D03*
X005402Y001631D03*
X005405Y001631D03*
X005408Y001631D03*
X005411Y001631D03*
X005414Y001631D03*
X005417Y001631D03*
X005420Y001631D03*
X005423Y001631D03*
X005426Y001631D03*
X005417Y001775D03*
X005414Y001775D03*
X005411Y001775D03*
X005408Y001775D03*
X005405Y001775D03*
X005402Y001775D03*
X005399Y001775D03*
X005396Y001775D03*
X005393Y001775D03*
X005390Y001775D03*
X005387Y001775D03*
X005384Y001775D03*
X005381Y001775D03*
X005378Y001775D03*
X005375Y001775D03*
X005372Y001775D03*
X005369Y001775D03*
X005366Y001775D03*
X005363Y001775D03*
X005360Y001775D03*
X005357Y001775D03*
X005354Y001775D03*
X005351Y001775D03*
X005348Y001775D03*
X005345Y001775D03*
X005342Y001775D03*
X005339Y001775D03*
X005336Y001775D03*
X005333Y001775D03*
X005330Y001775D03*
X005327Y001775D03*
X005324Y001775D03*
X005321Y001775D03*
X005318Y001775D03*
X005315Y001775D03*
X005312Y001775D03*
X005309Y001775D03*
X005306Y001775D03*
X005303Y001775D03*
X005300Y001775D03*
X005297Y001775D03*
X005294Y001775D03*
X005291Y001775D03*
X005288Y001775D03*
X005285Y001775D03*
X005282Y001775D03*
X005279Y001775D03*
X005276Y001775D03*
X005273Y001775D03*
X005270Y001775D03*
X005267Y001775D03*
X005264Y001775D03*
X005261Y001775D03*
X005258Y001775D03*
X005255Y001775D03*
X005252Y001775D03*
X005249Y001775D03*
X005246Y001775D03*
X005243Y001775D03*
X005240Y001775D03*
X005237Y001775D03*
X005234Y001775D03*
X005231Y001775D03*
X005228Y001775D03*
X005228Y001634D03*
X005231Y001634D03*
X005228Y001901D03*
X005222Y001901D03*
X005216Y001901D03*
X005213Y001901D03*
X005210Y001901D03*
X005207Y001901D03*
X005204Y001901D03*
X005201Y001901D03*
X005198Y001901D03*
X005195Y001901D03*
X005192Y001901D03*
X005189Y001901D03*
X005186Y001901D03*
X005183Y001901D03*
X005195Y002042D03*
X005198Y002042D03*
X005201Y002042D03*
X005204Y002042D03*
X005207Y002042D03*
X005210Y002042D03*
X005213Y002042D03*
X005222Y002042D03*
X005225Y002039D03*
X005228Y002042D03*
X005231Y002039D03*
X005240Y002042D03*
X005243Y002042D03*
X005246Y002042D03*
X005249Y002042D03*
X005252Y002042D03*
X005255Y002042D03*
X005258Y002042D03*
X005261Y002042D03*
X005264Y002042D03*
X005267Y002042D03*
X005270Y002042D03*
X005273Y002042D03*
X005276Y002042D03*
X005279Y002042D03*
X005282Y002042D03*
X005285Y002042D03*
X005288Y002042D03*
X005294Y002045D03*
X005297Y002045D03*
X005300Y002045D03*
X005303Y002045D03*
X005306Y002045D03*
X005309Y002045D03*
X005312Y002045D03*
X005315Y002045D03*
X005318Y002045D03*
X005321Y002045D03*
X005324Y002045D03*
X005327Y002045D03*
X005330Y002045D03*
X005333Y002045D03*
X005336Y002045D03*
X005339Y002045D03*
X005345Y002045D03*
X005348Y002045D03*
X005351Y002045D03*
X005354Y002045D03*
X005357Y002045D03*
X005360Y002045D03*
X005363Y002045D03*
X005366Y002045D03*
X005369Y002045D03*
X005378Y002042D03*
X005384Y001904D03*
X005192Y002045D03*
X005189Y002045D03*
X005186Y002045D03*
X005183Y002045D03*
X005180Y002048D03*
X005177Y002048D03*
X005243Y002162D03*
X005255Y002159D03*
X005258Y002159D03*
X005261Y002159D03*
X005282Y002156D03*
X005285Y002156D03*
X005288Y002156D03*
X005291Y002156D03*
X005294Y002156D03*
X005297Y002156D03*
X005300Y002156D03*
X005303Y002156D03*
X005306Y002156D03*
X005309Y002156D03*
X005312Y002156D03*
X005315Y002156D03*
X005318Y002156D03*
X005321Y002156D03*
X005324Y002156D03*
X005330Y002156D03*
X005339Y002159D03*
X005342Y002159D03*
X005345Y002159D03*
X005348Y002159D03*
X005354Y002162D03*
X005357Y002162D03*
X005360Y002162D03*
X005366Y002165D03*
X005369Y002165D03*
X005375Y002168D03*
X005378Y002168D03*
X005318Y002324D03*
X005264Y002321D03*
X005240Y002315D03*
X005162Y002237D03*
X005168Y002411D03*
X005225Y002486D03*
X005264Y002489D03*
X005267Y002489D03*
X005270Y002489D03*
X005273Y002489D03*
X005276Y002489D03*
X005279Y002489D03*
X005282Y002489D03*
X005285Y002489D03*
X005288Y002489D03*
X005291Y002489D03*
X005294Y002489D03*
X005297Y002489D03*
X005300Y002489D03*
X005303Y002489D03*
X005306Y002489D03*
X005309Y002489D03*
X005312Y002489D03*
X005315Y002489D03*
X005318Y002489D03*
X005321Y002489D03*
X005324Y002489D03*
X005327Y002489D03*
X005330Y002489D03*
X005333Y002489D03*
X005336Y002489D03*
X005339Y002489D03*
X005342Y002489D03*
X005345Y002489D03*
X005348Y002489D03*
X005351Y002489D03*
X005354Y002489D03*
X005357Y002489D03*
X005360Y002489D03*
X005363Y002489D03*
X005366Y002489D03*
X005369Y002489D03*
X005372Y002489D03*
X005375Y002489D03*
X005378Y002489D03*
X005381Y002489D03*
X005384Y002489D03*
X005387Y002489D03*
X005393Y002489D03*
X005396Y002489D03*
X005399Y002489D03*
X005402Y002489D03*
X005405Y002489D03*
X005408Y002489D03*
X005411Y002489D03*
X005414Y002489D03*
X005417Y002489D03*
X005420Y002489D03*
X005423Y002489D03*
X005453Y002588D03*
X005462Y002585D03*
X005519Y002609D03*
X005546Y002762D03*
X005378Y002750D03*
X005279Y002747D03*
X005276Y002747D03*
X005273Y002747D03*
X005270Y002747D03*
X005267Y002747D03*
X005264Y002750D03*
X005258Y002750D03*
X005216Y002621D03*
X005222Y002618D03*
X005240Y002612D03*
X005309Y002621D03*
X005312Y002624D03*
X005420Y002912D03*
X005510Y002951D03*
X005435Y003086D03*
X005387Y003098D03*
X005351Y003095D03*
X005345Y003095D03*
X005342Y003095D03*
X005339Y003095D03*
X005336Y003095D03*
X005333Y003095D03*
X005330Y003095D03*
X005327Y003095D03*
X005324Y003095D03*
X005321Y003095D03*
X005318Y003095D03*
X005315Y003095D03*
X005273Y003095D03*
X005270Y003095D03*
X005267Y003095D03*
X005264Y003095D03*
X005261Y003095D03*
X005258Y003095D03*
X005255Y003095D03*
X005252Y003095D03*
X005249Y003095D03*
X005246Y003095D03*
X005243Y003095D03*
X005240Y003095D03*
X005237Y003095D03*
X005234Y003095D03*
X005231Y003095D03*
X005228Y003095D03*
X005222Y003098D03*
X005219Y003098D03*
X005216Y003098D03*
X005339Y003221D03*
X005342Y003221D03*
X005345Y003224D03*
X005348Y003224D03*
X005351Y003224D03*
X005354Y003224D03*
X005366Y003227D03*
X005369Y003227D03*
X005372Y003227D03*
X005375Y003224D03*
X005378Y003224D03*
X005381Y003224D03*
X005384Y003224D03*
X005399Y003329D03*
X005402Y003329D03*
X005435Y003320D03*
X005321Y003443D03*
X005318Y003443D03*
X005318Y003599D03*
X005315Y003599D03*
X005312Y003599D03*
X005309Y003599D03*
X005306Y003599D03*
X005303Y003599D03*
X005300Y003599D03*
X005297Y003599D03*
X005294Y003599D03*
X005291Y003599D03*
X005288Y003599D03*
X005285Y003599D03*
X005282Y003599D03*
X005279Y003599D03*
X005276Y003599D03*
X005273Y003599D03*
X005270Y003599D03*
X005267Y003599D03*
X005264Y003599D03*
X005261Y003599D03*
X005258Y003599D03*
X005255Y003599D03*
X005252Y003599D03*
X005249Y003599D03*
X005246Y003599D03*
X005243Y003599D03*
X005240Y003599D03*
X005234Y003599D03*
X005231Y003599D03*
X005228Y003599D03*
X005225Y003599D03*
X005321Y003599D03*
X005324Y003599D03*
X005327Y003599D03*
X005330Y003599D03*
X005333Y003599D03*
X005336Y003599D03*
X005339Y003599D03*
X005342Y003599D03*
X005345Y003599D03*
X005348Y003599D03*
X005351Y003599D03*
X005354Y003599D03*
X005357Y003599D03*
X005360Y003599D03*
X005363Y003599D03*
X005366Y003599D03*
X005369Y003599D03*
X005372Y003599D03*
X005375Y003599D03*
X005378Y003599D03*
X005381Y003599D03*
X005384Y003599D03*
X005387Y003599D03*
X005390Y003599D03*
X005444Y003599D03*
X005447Y003599D03*
X005453Y003599D03*
X005456Y003599D03*
X005459Y003599D03*
X005462Y003599D03*
X005465Y003599D03*
X005468Y003599D03*
X005471Y003599D03*
X005474Y003599D03*
X005477Y003599D03*
X005480Y003599D03*
X005483Y003599D03*
X005486Y003599D03*
X005489Y003599D03*
X005492Y003599D03*
X005495Y003599D03*
X005498Y003599D03*
X005501Y003599D03*
X005504Y003599D03*
X005507Y003599D03*
X005510Y003599D03*
X005513Y003599D03*
X005516Y003599D03*
X005519Y003599D03*
X005522Y003599D03*
X005525Y003599D03*
X005528Y003599D03*
X005531Y003599D03*
X005537Y003599D03*
X005543Y003599D03*
X005234Y003842D03*
X005231Y003842D03*
X005222Y003845D03*
X005219Y003845D03*
X005216Y003848D03*
X005213Y003848D03*
X005219Y003965D03*
X005225Y003968D03*
X005228Y003971D03*
X005231Y003971D03*
X005234Y003974D03*
X005237Y003974D03*
X005240Y003974D03*
X005246Y003977D03*
X005249Y003977D03*
X005255Y003980D03*
X005258Y003980D03*
X005261Y003980D03*
X005264Y003980D03*
X005267Y003980D03*
X005276Y003983D03*
X005279Y003983D03*
X005327Y003983D03*
X005330Y003983D03*
X005333Y003983D03*
X005336Y003983D03*
X005339Y003983D03*
X005342Y003983D03*
X005345Y003983D03*
X005348Y003983D03*
X005351Y003980D03*
X005354Y003980D03*
X005357Y003980D03*
X005360Y003980D03*
X005369Y003977D03*
X005339Y004202D03*
X005336Y004202D03*
X005333Y004202D03*
X005330Y004202D03*
X005327Y004202D03*
X005321Y004202D03*
X005318Y004202D03*
X005288Y004202D03*
X005285Y004202D03*
X005282Y004202D03*
X005279Y004202D03*
X005276Y004202D03*
X005264Y004199D03*
X005261Y004199D03*
X005258Y004199D03*
X005252Y004196D03*
X005249Y004196D03*
X005162Y004112D03*
X005168Y004292D03*
X005225Y004367D03*
X005225Y004496D03*
X005222Y004496D03*
X005219Y004496D03*
X005216Y004496D03*
X005213Y004496D03*
X005210Y004496D03*
X005207Y004496D03*
X005204Y004496D03*
X005201Y004496D03*
X005198Y004496D03*
X005195Y004496D03*
X005192Y004496D03*
X005189Y004496D03*
X005186Y004496D03*
X005228Y004496D03*
X005231Y004496D03*
X005234Y004496D03*
X005237Y004496D03*
X005240Y004496D03*
X005243Y004496D03*
X005246Y004496D03*
X005249Y004496D03*
X005252Y004496D03*
X005255Y004496D03*
X005258Y004496D03*
X005261Y004496D03*
X005264Y004496D03*
X005267Y004496D03*
X005270Y004496D03*
X005273Y004496D03*
X005276Y004496D03*
X005279Y004496D03*
X005282Y004496D03*
X005285Y004496D03*
X005288Y004496D03*
X005291Y004496D03*
X005294Y004496D03*
X005297Y004496D03*
X005300Y004496D03*
X005303Y004496D03*
X005306Y004496D03*
X005309Y004496D03*
X005312Y004496D03*
X005315Y004496D03*
X005318Y004496D03*
X005321Y004496D03*
X005324Y004496D03*
X005327Y004496D03*
X005330Y004496D03*
X005333Y004496D03*
X005336Y004496D03*
X005339Y004496D03*
X005342Y004496D03*
X005345Y004496D03*
X005348Y004496D03*
X005351Y004496D03*
X005354Y004496D03*
X005357Y004496D03*
X005360Y004496D03*
X005363Y004496D03*
X005366Y004496D03*
X005369Y004496D03*
X005372Y004496D03*
X005375Y004496D03*
X005378Y004496D03*
X005381Y004496D03*
X005375Y004637D03*
X005372Y004637D03*
X005369Y004637D03*
X005366Y004637D03*
X005363Y004637D03*
X005360Y004640D03*
X005357Y004640D03*
X005354Y004640D03*
X005351Y004640D03*
X005348Y004640D03*
X005345Y004640D03*
X005342Y004640D03*
X005339Y004640D03*
X005336Y004640D03*
X005333Y004640D03*
X005324Y004640D03*
X005315Y004637D03*
X005312Y004637D03*
X005309Y004637D03*
X005306Y004637D03*
X005303Y004637D03*
X005300Y004637D03*
X005297Y004637D03*
X005294Y004637D03*
X005291Y004637D03*
X005288Y004637D03*
X005285Y004637D03*
X005282Y004637D03*
X005279Y004637D03*
X005276Y004637D03*
X005273Y004637D03*
X005270Y004637D03*
X005267Y004637D03*
X005261Y004634D03*
X005258Y004634D03*
X005255Y004634D03*
X005252Y004634D03*
X005249Y004634D03*
X005246Y004634D03*
X005243Y004634D03*
X005240Y004634D03*
X005237Y004634D03*
X005234Y004634D03*
X005231Y004634D03*
X005228Y004634D03*
X005225Y004634D03*
X005222Y004634D03*
X005219Y004634D03*
X005216Y004634D03*
X005213Y004634D03*
X005210Y004634D03*
X005207Y004634D03*
X005201Y004637D03*
X005198Y004637D03*
X005195Y004637D03*
X005192Y004637D03*
X005189Y004637D03*
X005186Y004640D03*
X005183Y004640D03*
X005180Y004640D03*
X005177Y004640D03*
X005249Y004754D03*
X005252Y004754D03*
X005267Y004751D03*
X005270Y004751D03*
X005276Y004751D03*
X005327Y004751D03*
X005330Y004751D03*
X005333Y004751D03*
X005336Y004751D03*
X005339Y004751D03*
X005351Y004754D03*
X005354Y004754D03*
X005363Y004757D03*
X005366Y004757D03*
X005372Y004760D03*
X005375Y004760D03*
X005381Y004763D03*
X005333Y004916D03*
X005327Y004916D03*
X005276Y004916D03*
X005255Y004913D03*
X005381Y005012D03*
X005231Y005120D03*
X005255Y005363D03*
X005258Y005363D03*
X005264Y005363D03*
X005267Y005363D03*
X005270Y005363D03*
X005273Y005363D03*
X005276Y005363D03*
X005279Y005363D03*
X005282Y005363D03*
X005285Y005363D03*
X005288Y005363D03*
X005291Y005363D03*
X005294Y005363D03*
X005297Y005363D03*
X005300Y005363D03*
X005303Y005363D03*
X005306Y005363D03*
X005309Y005363D03*
X005312Y005363D03*
X005315Y005363D03*
X005318Y005363D03*
X005321Y005363D03*
X005324Y005363D03*
X005327Y005363D03*
X005330Y005363D03*
X005333Y005363D03*
X005336Y005363D03*
X005339Y005363D03*
X005342Y005363D03*
X005345Y005363D03*
X005348Y005363D03*
X005351Y005363D03*
X005354Y005363D03*
X005357Y005363D03*
X005360Y005363D03*
X005363Y005363D03*
X005366Y005363D03*
X005369Y005363D03*
X005372Y005363D03*
X005375Y005363D03*
X005378Y005363D03*
X005381Y005363D03*
X005384Y005363D03*
X005387Y005363D03*
X005393Y005363D03*
X005396Y005363D03*
X005399Y005363D03*
X005402Y005363D03*
X005405Y005363D03*
X005408Y005363D03*
X005411Y005363D03*
X005414Y005363D03*
X005417Y005363D03*
X005420Y005363D03*
X005423Y005363D03*
X005426Y005363D03*
X005429Y005363D03*
X005432Y005363D03*
X005426Y005510D03*
X005423Y005510D03*
X005420Y005510D03*
X005417Y005510D03*
X005414Y005510D03*
X005411Y005510D03*
X005405Y005510D03*
X005225Y005507D03*
X005234Y005366D03*
X005237Y005366D03*
X005240Y005366D03*
X005243Y005366D03*
X005246Y005366D03*
X005234Y005618D03*
X005231Y005618D03*
X005222Y005621D03*
X005219Y005621D03*
X005216Y005624D03*
X005213Y005624D03*
X005225Y005744D03*
X005228Y005747D03*
X005231Y005747D03*
X005234Y005750D03*
X005237Y005750D03*
X005240Y005750D03*
X005246Y005753D03*
X005249Y005753D03*
X005255Y005756D03*
X005258Y005756D03*
X005261Y005756D03*
X005264Y005756D03*
X005273Y005759D03*
X005276Y005759D03*
X005279Y005759D03*
X005324Y005759D03*
X005330Y005759D03*
X005333Y005759D03*
X005336Y005759D03*
X005339Y005759D03*
X005342Y005759D03*
X005345Y005759D03*
X005348Y005759D03*
X005354Y005756D03*
X005357Y005756D03*
X005360Y005756D03*
X005366Y005753D03*
X005369Y005753D03*
X005348Y005864D03*
X005312Y005858D03*
X005303Y005858D03*
X005291Y005858D03*
X005288Y005858D03*
X005276Y005858D03*
X005276Y006017D03*
X005273Y006017D03*
X005270Y006017D03*
X005267Y006017D03*
X005264Y006017D03*
X005261Y006017D03*
X005258Y006017D03*
X005255Y006017D03*
X005252Y006017D03*
X005249Y006017D03*
X005246Y006017D03*
X005243Y006017D03*
X005237Y006017D03*
X005231Y006017D03*
X005228Y006017D03*
X005225Y006017D03*
X005279Y006017D03*
X005282Y006017D03*
X005285Y006017D03*
X005288Y006017D03*
X005291Y006017D03*
X005294Y006017D03*
X005297Y006017D03*
X005300Y006017D03*
X005303Y006017D03*
X005306Y006017D03*
X005309Y006017D03*
X005312Y006017D03*
X005315Y006017D03*
X005318Y006017D03*
X005321Y006017D03*
X005324Y006017D03*
X005327Y006017D03*
X005330Y006017D03*
X005333Y006017D03*
X005336Y006017D03*
X005339Y006017D03*
X005342Y006017D03*
X005345Y006017D03*
X005348Y006017D03*
X005351Y006017D03*
X005354Y006017D03*
X005357Y006017D03*
X005360Y006017D03*
X005363Y006017D03*
X005366Y006017D03*
X005369Y006017D03*
X005372Y006017D03*
X005375Y006017D03*
X005378Y006017D03*
X005381Y006017D03*
X005384Y006017D03*
X005387Y006017D03*
X005441Y006017D03*
X005444Y006017D03*
X005447Y006017D03*
X005450Y006017D03*
X005453Y006017D03*
X005456Y006017D03*
X005459Y006017D03*
X005462Y006017D03*
X005465Y006017D03*
X005468Y006017D03*
X005471Y006017D03*
X005474Y006017D03*
X005477Y006017D03*
X005480Y006017D03*
X005483Y006017D03*
X005486Y006017D03*
X005489Y006017D03*
X005492Y006017D03*
X005495Y006017D03*
X005498Y006017D03*
X005501Y006017D03*
X005504Y006017D03*
X005507Y006017D03*
X005510Y006017D03*
X005513Y006017D03*
X005516Y006017D03*
X005519Y006017D03*
X005522Y006017D03*
X005525Y006017D03*
X005528Y006017D03*
X005534Y006017D03*
X005384Y006143D03*
X005378Y006140D03*
X005375Y006140D03*
X005369Y006137D03*
X005366Y006137D03*
X005363Y006134D03*
X005360Y006134D03*
X005357Y006134D03*
X005348Y006131D03*
X005345Y006131D03*
X005342Y006131D03*
X005339Y006131D03*
X005324Y006128D03*
X005321Y006128D03*
X005318Y006128D03*
X005315Y006128D03*
X005312Y006128D03*
X005309Y006128D03*
X005300Y006128D03*
X005294Y006128D03*
X005291Y006128D03*
X005288Y006128D03*
X005285Y006128D03*
X005282Y006128D03*
X005279Y006128D03*
X005276Y006128D03*
X005258Y006131D03*
X005255Y006131D03*
X005243Y006134D03*
X005162Y006209D03*
X005267Y006293D03*
X005318Y006296D03*
X005318Y006536D03*
X005315Y006536D03*
X005312Y006536D03*
X005309Y006536D03*
X005306Y006536D03*
X005303Y006536D03*
X005300Y006536D03*
X005297Y006536D03*
X005294Y006536D03*
X005291Y006536D03*
X005288Y006536D03*
X005285Y006536D03*
X005282Y006536D03*
X005279Y006536D03*
X005276Y006536D03*
X005273Y006536D03*
X005270Y006536D03*
X005267Y006536D03*
X005264Y006536D03*
X005261Y006536D03*
X005258Y006536D03*
X005255Y006536D03*
X005252Y006536D03*
X005249Y006536D03*
X005246Y006536D03*
X005243Y006536D03*
X005240Y006536D03*
X005234Y006539D03*
X005231Y006539D03*
X005228Y006539D03*
X005321Y006536D03*
X005324Y006536D03*
X005327Y006536D03*
X005330Y006536D03*
X005333Y006536D03*
X005336Y006536D03*
X005339Y006536D03*
X005342Y006536D03*
X005345Y006536D03*
X005348Y006536D03*
X005351Y006536D03*
X005354Y006536D03*
X005357Y006536D03*
X005360Y006536D03*
X005363Y006536D03*
X005366Y006536D03*
X005369Y006536D03*
X005372Y006536D03*
X005375Y006536D03*
X005378Y006536D03*
X005381Y006536D03*
X005384Y006536D03*
X005387Y006536D03*
X005390Y006536D03*
X005393Y006536D03*
X005396Y006536D03*
X005399Y006536D03*
X005402Y006536D03*
X005405Y006536D03*
X005408Y006536D03*
X005411Y006536D03*
X005414Y006536D03*
X005417Y006536D03*
X005420Y006536D03*
X005423Y006536D03*
X005426Y006536D03*
X005417Y006680D03*
X005414Y006680D03*
X005411Y006680D03*
X005408Y006680D03*
X005405Y006680D03*
X005402Y006680D03*
X005399Y006680D03*
X005396Y006680D03*
X005393Y006680D03*
X005390Y006680D03*
X005387Y006680D03*
X005384Y006680D03*
X005381Y006680D03*
X005378Y006680D03*
X005375Y006680D03*
X005372Y006680D03*
X005369Y006680D03*
X005366Y006680D03*
X005363Y006680D03*
X005360Y006680D03*
X005357Y006680D03*
X005354Y006680D03*
X005351Y006680D03*
X005348Y006680D03*
X005345Y006680D03*
X005342Y006680D03*
X005339Y006680D03*
X005336Y006680D03*
X005333Y006680D03*
X005330Y006680D03*
X005327Y006680D03*
X005324Y006680D03*
X005321Y006680D03*
X005318Y006680D03*
X005315Y006680D03*
X005312Y006680D03*
X005309Y006680D03*
X005306Y006680D03*
X005303Y006680D03*
X005300Y006680D03*
X005297Y006680D03*
X005294Y006680D03*
X005291Y006680D03*
X005288Y006680D03*
X005285Y006680D03*
X005282Y006680D03*
X005279Y006680D03*
X005276Y006680D03*
X005273Y006680D03*
X005270Y006680D03*
X005267Y006680D03*
X005264Y006680D03*
X005261Y006680D03*
X005258Y006680D03*
X005255Y006680D03*
X005252Y006680D03*
X005249Y006680D03*
X005246Y006680D03*
X005243Y006680D03*
X005240Y006680D03*
X005237Y006680D03*
X005234Y006680D03*
X005231Y006680D03*
X005228Y006680D03*
X005222Y006806D03*
X005219Y006806D03*
X005213Y006914D03*
X005336Y006929D03*
X005339Y006929D03*
X005342Y006932D03*
X005345Y006932D03*
X005348Y006932D03*
X005354Y006935D03*
X005360Y006935D03*
X005363Y006935D03*
X005366Y006935D03*
X005369Y006935D03*
X005372Y006935D03*
X005375Y006935D03*
X005378Y006935D03*
X005384Y006932D03*
X005387Y006932D03*
X005387Y006806D03*
X005384Y006806D03*
X005381Y006806D03*
X005435Y006794D03*
X004499Y006116D03*
X004484Y006116D03*
X004481Y006116D03*
X004436Y005933D03*
X004136Y006323D03*
X004124Y005318D03*
X005366Y004370D03*
X005369Y004370D03*
X005375Y004370D03*
X005378Y004370D03*
X005384Y004370D03*
X005387Y004370D03*
X005390Y004370D03*
X005393Y004370D03*
X005396Y004370D03*
X005399Y004370D03*
X005402Y004370D03*
X005405Y004370D03*
X005408Y004370D03*
X005411Y004370D03*
X005417Y004370D03*
X005423Y004370D03*
X005426Y004370D03*
X005078Y003332D03*
X005075Y003332D03*
X005072Y003332D03*
X005063Y003332D03*
X005057Y003332D03*
X005054Y003332D03*
X005051Y003332D03*
X005048Y003332D03*
X005177Y002990D03*
X005183Y002990D03*
X005192Y002987D03*
X005201Y002984D03*
X005204Y002984D03*
X005207Y002981D03*
X005210Y002981D03*
X005213Y002981D03*
X005216Y002978D03*
X005219Y002978D03*
X005222Y002978D03*
X005225Y002975D03*
X005228Y002975D03*
X005231Y002975D03*
X005237Y002972D03*
X005240Y002972D03*
X005246Y002969D03*
X005249Y002969D03*
X005255Y002966D03*
X005258Y002966D03*
X005267Y002963D03*
X005270Y002963D03*
X005276Y002960D03*
X005279Y002960D03*
X005288Y002957D03*
X005297Y002954D03*
X004439Y003365D03*
X004202Y003128D03*
X004199Y003128D03*
X004196Y003128D03*
X004187Y003131D03*
X004184Y003131D03*
X004169Y003134D03*
X004166Y003134D03*
X004163Y003134D03*
X004160Y003134D03*
X004130Y003734D03*
X004304Y003722D03*
X005051Y001364D03*
X005057Y001364D03*
X005060Y001364D03*
X005063Y001364D03*
X005066Y001364D03*
X005069Y001364D03*
X005072Y001364D03*
X005075Y001364D03*
X005078Y001364D03*
X005081Y001364D03*
X005084Y001364D03*
X005087Y001364D03*
X005090Y001364D03*
X005093Y001364D03*
X005096Y001364D03*
X005099Y001364D03*
X005102Y001364D03*
X005105Y001364D03*
X005108Y001364D03*
X005111Y001364D03*
X005114Y001364D03*
X005117Y001364D03*
X005120Y001364D03*
X005123Y001364D03*
X005126Y001364D03*
X005129Y001364D03*
X005132Y001364D03*
X005135Y001364D03*
X005138Y001364D03*
X005141Y001364D03*
X005144Y001364D03*
X005147Y001364D03*
X005150Y001364D03*
X005153Y001364D03*
X005156Y001364D03*
X005159Y001364D03*
X005162Y001364D03*
D34*
X005435Y001448D03*
X005171Y001685D03*
X005435Y001991D03*
X005438Y002243D03*
X005546Y002657D03*
X005360Y002912D03*
X005357Y002912D03*
X005516Y002975D03*
X005432Y003176D03*
X005276Y003116D03*
X005168Y003146D03*
X005171Y003512D03*
X005171Y003902D03*
X004400Y003746D03*
X004397Y003746D03*
X004394Y003746D03*
X004355Y003743D03*
X004352Y003743D03*
X004349Y003743D03*
X004346Y003743D03*
X004142Y003749D03*
X004124Y003551D03*
X004121Y003551D03*
X004118Y003551D03*
X004115Y003551D03*
X004136Y003347D03*
X004100Y003140D03*
X004262Y003104D03*
X004427Y003149D03*
X004433Y003152D03*
X004436Y003155D03*
X004439Y003155D03*
X004442Y003158D03*
X004415Y003353D03*
X004160Y004640D03*
X004157Y004640D03*
X004076Y004787D03*
X004115Y005120D03*
X004118Y005120D03*
X004145Y005318D03*
X004418Y005318D03*
X004472Y005495D03*
X004415Y005717D03*
X004412Y005717D03*
X004115Y005717D03*
X004112Y005717D03*
X004127Y005519D03*
X004130Y005519D03*
X004421Y005117D03*
X004424Y005117D03*
X005171Y005678D03*
X005438Y006215D03*
X005171Y006590D03*
X005276Y006827D03*
X005168Y006854D03*
X005432Y006884D03*
X004409Y006137D03*
X004130Y006137D03*
X004127Y006137D03*
X004136Y006512D03*
X005438Y004835D03*
D35*
X005399Y004894D03*
X005399Y005023D03*
X005339Y005023D03*
X005261Y005106D03*
X005258Y005110D03*
X005207Y005110D03*
X005207Y004888D03*
X005207Y004776D03*
X005396Y004626D03*
X005441Y004585D03*
X005393Y004504D03*
X005390Y004183D03*
X005213Y004174D03*
X005210Y004170D03*
X005204Y003951D03*
X005399Y003591D03*
X005399Y003475D03*
X005408Y003321D03*
X005411Y003321D03*
X005417Y003321D03*
X005213Y003463D03*
X005165Y003510D03*
X005402Y002914D03*
X005543Y002985D03*
X005315Y002728D03*
X005441Y002595D03*
X005540Y002638D03*
X005402Y002295D03*
X005207Y002295D03*
X005216Y001768D03*
X005165Y001684D03*
X005210Y001645D03*
X005396Y001371D03*
X004235Y003118D03*
X004232Y003118D03*
X004130Y003139D03*
X004127Y003139D03*
X004436Y003366D03*
X004466Y003535D03*
X004469Y003535D03*
X004484Y003895D03*
X004112Y004806D03*
X004118Y004810D03*
X004124Y004813D03*
X004127Y004815D03*
X004130Y004815D03*
X004133Y004819D03*
X004205Y005104D03*
X004208Y005104D03*
X004211Y005104D03*
X004214Y005104D03*
X004217Y005104D03*
X004220Y005104D03*
X004223Y005104D03*
X004322Y005104D03*
X004325Y005104D03*
X004328Y005104D03*
X004331Y005104D03*
X004334Y005104D03*
X004337Y005104D03*
X004340Y005104D03*
X004343Y005104D03*
X004355Y005533D03*
X004358Y005533D03*
X004361Y005533D03*
X004364Y005533D03*
X004367Y005533D03*
X004214Y005533D03*
X004211Y005533D03*
X004208Y005533D03*
X004205Y005533D03*
X004202Y005533D03*
X004199Y005533D03*
X004199Y005704D03*
X004196Y005704D03*
X004193Y005704D03*
X004190Y005704D03*
X004187Y005704D03*
X004184Y005704D03*
X004202Y005704D03*
X004304Y005704D03*
X004307Y005704D03*
X004310Y005704D03*
X004313Y005704D03*
X004316Y005704D03*
X004319Y005704D03*
X004322Y005704D03*
X004325Y005704D03*
X004130Y005920D03*
X004076Y006120D03*
X004094Y006130D03*
X004121Y006321D03*
X004418Y006334D03*
X004421Y006334D03*
X004454Y006124D03*
X004457Y006124D03*
X005165Y005929D03*
X005213Y005878D03*
X005216Y005875D03*
X005204Y005728D03*
X005216Y005503D03*
X005216Y006010D03*
X005399Y006010D03*
X005402Y006268D03*
X005210Y006550D03*
X005165Y006589D03*
X005216Y006673D03*
X005396Y006814D03*
X005210Y006906D03*
D36*
X005165Y006853D03*
X005315Y006904D03*
X005210Y006666D03*
X005204Y006163D03*
X005210Y006004D03*
X005210Y005496D03*
X005204Y005104D03*
X005165Y005059D03*
X005273Y005094D03*
X005276Y005091D03*
X005402Y005031D03*
X005441Y004836D03*
X005177Y004299D03*
X005207Y004164D03*
X005207Y003471D03*
X005315Y003195D03*
X005165Y003144D03*
X005384Y002914D03*
X005543Y002646D03*
X005168Y002679D03*
X005177Y002419D03*
X005204Y002190D03*
X005405Y002289D03*
X005399Y002025D03*
X005210Y001761D03*
X005204Y001476D03*
X005399Y001491D03*
X004250Y003111D03*
X004115Y003139D03*
X004430Y003360D03*
X004490Y003531D03*
X004445Y003544D03*
X004322Y003735D03*
X004145Y004639D03*
X004142Y004639D03*
X004094Y004798D03*
X004154Y005109D03*
X004157Y005109D03*
X004160Y005109D03*
X004385Y005109D03*
X004388Y005109D03*
X004391Y005109D03*
X004427Y005319D03*
X004457Y005499D03*
X004460Y005499D03*
X004412Y005526D03*
X004409Y005526D03*
X004406Y005526D03*
X004379Y005709D03*
X004376Y005709D03*
X004373Y005709D03*
X004370Y005709D03*
X004148Y005709D03*
X004145Y005709D03*
X004142Y005709D03*
X004160Y005526D03*
X004163Y005526D03*
X004109Y006133D03*
X004109Y006321D03*
X004112Y006321D03*
X004430Y006334D03*
X004433Y006334D03*
X004433Y006129D03*
X004436Y006129D03*
X004505Y006538D03*
D37*
X004427Y006334D03*
X004424Y006334D03*
X004103Y006133D03*
X004070Y006115D03*
X004175Y005530D03*
X004178Y005530D03*
X004181Y005530D03*
X004184Y005530D03*
X004385Y005530D03*
X004388Y005530D03*
X004391Y005530D03*
X004394Y005530D03*
X004451Y005503D03*
X004430Y005320D03*
X004106Y004804D03*
X004100Y004801D03*
X004487Y003895D03*
X004424Y003748D03*
X004316Y003733D03*
X004478Y003535D03*
X004481Y003535D03*
X004484Y003535D03*
X004433Y003364D03*
X004241Y003115D03*
X004124Y003139D03*
X004121Y003139D03*
X004433Y002998D03*
X005210Y003466D03*
X005402Y003589D03*
X005396Y003958D03*
X005165Y004831D03*
X005267Y005101D03*
X005264Y005104D03*
X005396Y005734D03*
X005402Y005896D03*
X005441Y005941D03*
X005405Y006166D03*
X005210Y005881D03*
X005213Y006670D03*
X005540Y002986D03*
X005393Y002914D03*
X005216Y002479D03*
X005213Y001765D03*
X005396Y001495D03*
D38*
X005396Y001913D03*
X005204Y002288D03*
X005387Y002738D03*
X005537Y002984D03*
X004487Y003533D03*
X004319Y003734D03*
X004136Y003740D03*
X004490Y003893D03*
X004130Y003344D03*
X004118Y003140D03*
X004244Y003113D03*
X004247Y003113D03*
X004097Y004799D03*
X004163Y005108D03*
X004166Y005108D03*
X004169Y005108D03*
X004172Y005108D03*
X004373Y005108D03*
X004376Y005108D03*
X004379Y005108D03*
X004382Y005108D03*
X004133Y005318D03*
X004166Y005528D03*
X004169Y005528D03*
X004172Y005528D03*
X004157Y005708D03*
X004154Y005708D03*
X004151Y005708D03*
X004361Y005708D03*
X004364Y005708D03*
X004367Y005708D03*
X004397Y005528D03*
X004400Y005528D03*
X004403Y005528D03*
X004439Y006128D03*
X004442Y006128D03*
X004067Y006110D03*
X005165Y006209D03*
X005204Y006260D03*
X005399Y006815D03*
X005438Y006884D03*
X005270Y005099D03*
X005327Y005033D03*
X005330Y005030D03*
D39*
X005342Y005018D03*
X005444Y005081D03*
X005255Y005111D03*
X005210Y004892D03*
X005210Y004772D03*
X005444Y004835D03*
X005213Y005375D03*
X005165Y005417D03*
X005204Y005633D03*
X005390Y005741D03*
X005396Y005888D03*
X005399Y005891D03*
X005219Y005873D03*
X005213Y006149D03*
X005210Y006152D03*
X005207Y006266D03*
X005210Y006269D03*
X005396Y006275D03*
X005399Y006272D03*
X005444Y006215D03*
X005402Y006158D03*
X005213Y006545D03*
X005441Y006884D03*
X005399Y006923D03*
X004463Y006122D03*
X004460Y006122D03*
X004433Y005933D03*
X004301Y005702D03*
X004298Y005702D03*
X004295Y005702D03*
X004292Y005702D03*
X004289Y005702D03*
X004286Y005702D03*
X004283Y005702D03*
X004280Y005702D03*
X004277Y005702D03*
X004274Y005702D03*
X004271Y005702D03*
X004268Y005702D03*
X004265Y005702D03*
X004262Y005702D03*
X004259Y005702D03*
X004256Y005702D03*
X004253Y005702D03*
X004250Y005702D03*
X004247Y005702D03*
X004244Y005702D03*
X004241Y005702D03*
X004238Y005702D03*
X004235Y005702D03*
X004232Y005702D03*
X004229Y005702D03*
X004226Y005702D03*
X004223Y005702D03*
X004220Y005702D03*
X004217Y005702D03*
X004214Y005702D03*
X004211Y005702D03*
X004208Y005702D03*
X004205Y005702D03*
X004217Y005534D03*
X004220Y005534D03*
X004223Y005534D03*
X004226Y005534D03*
X004229Y005534D03*
X004232Y005534D03*
X004235Y005534D03*
X004238Y005534D03*
X004328Y005534D03*
X004331Y005534D03*
X004334Y005534D03*
X004337Y005534D03*
X004340Y005534D03*
X004343Y005534D03*
X004346Y005534D03*
X004349Y005534D03*
X004352Y005534D03*
X004433Y005318D03*
X004319Y005102D03*
X004316Y005102D03*
X004313Y005102D03*
X004310Y005102D03*
X004307Y005102D03*
X004304Y005102D03*
X004301Y005102D03*
X004298Y005102D03*
X004295Y005102D03*
X004292Y005102D03*
X004289Y005102D03*
X004286Y005102D03*
X004283Y005102D03*
X004280Y005102D03*
X004277Y005102D03*
X004274Y005102D03*
X004271Y005102D03*
X004268Y005102D03*
X004265Y005102D03*
X004262Y005102D03*
X004259Y005102D03*
X004256Y005102D03*
X004253Y005102D03*
X004250Y005102D03*
X004247Y005102D03*
X004244Y005102D03*
X004241Y005102D03*
X004238Y005102D03*
X004235Y005102D03*
X004232Y005102D03*
X004229Y005102D03*
X004226Y005102D03*
X004127Y005318D03*
X004133Y004637D03*
X004427Y003749D03*
X004310Y003728D03*
X004133Y003737D03*
X004448Y003536D03*
X004451Y003536D03*
X004454Y003536D03*
X004457Y003536D03*
X004460Y003536D03*
X004463Y003536D03*
X004127Y003344D03*
X004043Y003368D03*
X004133Y003137D03*
X004136Y003137D03*
X004229Y003119D03*
X005210Y003200D03*
X005321Y003206D03*
X005399Y003215D03*
X005441Y003176D03*
X005420Y003323D03*
X005414Y003323D03*
X005396Y003470D03*
X005216Y003458D03*
X005216Y003593D03*
X005204Y003857D03*
X005390Y003965D03*
X005387Y004184D03*
X005384Y004187D03*
X005171Y004295D03*
X005513Y002960D03*
X005408Y002912D03*
X005405Y002912D03*
X005384Y002744D03*
X005312Y002732D03*
X005165Y002678D03*
X005171Y002414D03*
X005210Y002297D03*
X005210Y002180D03*
X005213Y002177D03*
X005402Y002186D03*
X005444Y002243D03*
X005399Y002300D03*
X005396Y002303D03*
X005393Y002036D03*
X005396Y002033D03*
X005387Y001505D03*
X005384Y001505D03*
X005390Y001502D03*
X005213Y001490D03*
X005210Y001487D03*
X005537Y002633D03*
X004124Y006323D03*
D40*
X004091Y006130D03*
X004088Y006130D03*
X004079Y006124D03*
X004412Y006334D03*
X004415Y006334D03*
X005213Y006274D03*
X005219Y006145D03*
X005399Y006154D03*
X005390Y006280D03*
X005216Y006544D03*
X005324Y006919D03*
X005393Y005884D03*
X005225Y005869D03*
X005351Y005014D03*
X005396Y005020D03*
X005393Y004900D03*
X005390Y004900D03*
X005402Y004780D03*
X005393Y004630D03*
X005213Y004894D03*
X005219Y004180D03*
X005381Y004189D03*
X005384Y003970D03*
X005207Y003955D03*
X005219Y003595D03*
X005222Y003454D03*
X005393Y003469D03*
X005396Y003595D03*
X005411Y002914D03*
X005309Y002734D03*
X005534Y002629D03*
X005393Y002305D03*
X005390Y001909D03*
X005216Y001639D03*
X005216Y001495D03*
X005207Y001369D03*
X005393Y001369D03*
X005378Y001510D03*
X005375Y001510D03*
X004217Y003124D03*
X004139Y003139D03*
X004481Y003895D03*
D41*
X004415Y003745D03*
X004331Y003739D03*
X004328Y003739D03*
X004139Y003745D03*
X004436Y003546D03*
X004439Y003546D03*
X004424Y003358D03*
X004256Y003109D03*
X004109Y003139D03*
X004133Y003346D03*
X005168Y003901D03*
X005399Y003951D03*
X005180Y004303D03*
X005438Y004585D03*
X005315Y005046D03*
X005312Y005050D03*
X005309Y005053D03*
X005306Y005056D03*
X005294Y005071D03*
X005285Y005083D03*
X005282Y005086D03*
X005168Y005676D03*
X005399Y005728D03*
X004445Y005511D03*
X004442Y005515D03*
X004433Y005521D03*
X004430Y005521D03*
X004427Y005524D03*
X004424Y005524D03*
X004421Y005524D03*
X004394Y005713D03*
X004391Y005713D03*
X004388Y005713D03*
X004133Y005713D03*
X004130Y005713D03*
X004145Y005524D03*
X004148Y005524D03*
X004145Y005113D03*
X004142Y005113D03*
X004139Y005113D03*
X004403Y005113D03*
X004406Y005113D03*
X004088Y004795D03*
X004148Y004639D03*
X004064Y006106D03*
X004118Y006136D03*
X004106Y006321D03*
X004436Y006334D03*
X004424Y006133D03*
X004505Y006133D03*
X005435Y006886D03*
X005531Y002983D03*
X005375Y002914D03*
X005372Y002914D03*
X005180Y002421D03*
X005438Y001446D03*
D42*
X005438Y001355D03*
X005162Y001433D03*
X005045Y001364D03*
X005042Y001364D03*
X005432Y001778D03*
X005174Y001898D03*
X005465Y002585D03*
X005471Y002585D03*
X005480Y002588D03*
X005483Y002588D03*
X005486Y002588D03*
X005495Y002594D03*
X005498Y002594D03*
X005492Y002723D03*
X005498Y002729D03*
X005504Y002735D03*
X005519Y002750D03*
X005531Y002759D03*
X005369Y002744D03*
X005363Y002738D03*
X005360Y002735D03*
X005312Y002873D03*
X005309Y002873D03*
X005303Y002870D03*
X005300Y002870D03*
X005297Y002870D03*
X005279Y002864D03*
X005276Y002864D03*
X005273Y002864D03*
X005252Y002858D03*
X005177Y002840D03*
X005174Y002840D03*
X005222Y002744D03*
X005333Y002879D03*
X005333Y002945D03*
X005330Y002945D03*
X005438Y002915D03*
X005447Y002918D03*
X005462Y002924D03*
X005465Y002924D03*
X005477Y002930D03*
X005480Y002930D03*
X005483Y002933D03*
X005486Y002933D03*
X005495Y002939D03*
X005504Y002945D03*
X004469Y003899D03*
X005174Y004493D03*
X005177Y004493D03*
X005435Y004373D03*
X004439Y005318D03*
X004493Y006113D03*
X004400Y006335D03*
X004433Y006509D03*
X004436Y006509D03*
X005432Y006683D03*
X005438Y006794D03*
X005444Y006884D03*
X005435Y005513D03*
X005435Y005363D03*
X004121Y002948D03*
D43*
X005231Y003449D03*
X005234Y003449D03*
X005387Y003464D03*
X005444Y003524D03*
X005207Y003854D03*
X005210Y003959D03*
X005225Y004184D03*
X005222Y004364D03*
X005387Y004499D03*
X005387Y004634D03*
X005384Y004634D03*
X005384Y004904D03*
X005381Y004904D03*
X005228Y004904D03*
X005222Y005369D03*
X005222Y005504D03*
X005234Y005864D03*
X005237Y005864D03*
X005384Y005879D03*
X005387Y005879D03*
X005393Y006014D03*
X005393Y006149D03*
X005381Y006284D03*
X005378Y006284D03*
X005222Y006014D03*
X004472Y006119D03*
X004469Y006119D03*
X005432Y006794D03*
X005393Y006929D03*
X005531Y002624D03*
X005387Y002309D03*
X005384Y002309D03*
X005225Y002309D03*
X005216Y002174D03*
X005387Y002039D03*
X005387Y001904D03*
X005366Y001514D03*
X005363Y001514D03*
X005360Y001514D03*
X005225Y001499D03*
X005222Y001499D03*
D44*
X005369Y002912D03*
X005522Y002978D03*
X005528Y002981D03*
X005435Y003176D03*
X004493Y003530D03*
X004433Y003548D03*
X004430Y003548D03*
X004427Y003548D03*
X004424Y003548D03*
X004421Y003548D03*
X004409Y003548D03*
X004406Y003548D03*
X004403Y003548D03*
X004400Y003548D03*
X004397Y003548D03*
X004394Y003548D03*
X004391Y003548D03*
X004388Y003548D03*
X004385Y003548D03*
X004382Y003548D03*
X004379Y003548D03*
X004376Y003548D03*
X004373Y003548D03*
X004370Y003548D03*
X004367Y003548D03*
X004364Y003548D03*
X004361Y003548D03*
X004358Y003548D03*
X004355Y003548D03*
X004352Y003548D03*
X004349Y003548D03*
X004346Y003548D03*
X004343Y003548D03*
X004340Y003548D03*
X004337Y003548D03*
X004334Y003548D03*
X004331Y003548D03*
X004328Y003548D03*
X004325Y003548D03*
X004322Y003548D03*
X004319Y003548D03*
X004316Y003548D03*
X004313Y003548D03*
X004310Y003548D03*
X004307Y003548D03*
X004304Y003548D03*
X004301Y003548D03*
X004298Y003548D03*
X004295Y003548D03*
X004292Y003548D03*
X004289Y003548D03*
X004286Y003548D03*
X004283Y003548D03*
X004280Y003548D03*
X004277Y003548D03*
X004274Y003548D03*
X004271Y003548D03*
X004268Y003548D03*
X004265Y003548D03*
X004262Y003548D03*
X004259Y003548D03*
X004256Y003548D03*
X004253Y003548D03*
X004250Y003548D03*
X004247Y003548D03*
X004244Y003548D03*
X004241Y003548D03*
X004238Y003548D03*
X004235Y003548D03*
X004232Y003548D03*
X004229Y003548D03*
X004226Y003548D03*
X004223Y003548D03*
X004220Y003548D03*
X004217Y003548D03*
X004214Y003548D03*
X004211Y003548D03*
X004208Y003548D03*
X004205Y003548D03*
X004202Y003548D03*
X004199Y003548D03*
X004196Y003548D03*
X004193Y003548D03*
X004190Y003548D03*
X004187Y003548D03*
X004184Y003548D03*
X004181Y003548D03*
X004178Y003548D03*
X004175Y003548D03*
X004172Y003548D03*
X004169Y003548D03*
X004166Y003548D03*
X004163Y003548D03*
X004160Y003548D03*
X004157Y003548D03*
X004154Y003548D03*
X004151Y003548D03*
X004148Y003548D03*
X004145Y003548D03*
X004421Y003356D03*
X004106Y003140D03*
X004334Y003740D03*
X004337Y003740D03*
X005168Y004112D03*
X004241Y004661D03*
X004154Y004640D03*
X004151Y004640D03*
X004082Y004790D03*
X004085Y004793D03*
X004139Y005318D03*
X004421Y005318D03*
X004466Y005498D03*
X004439Y005516D03*
X004142Y005522D03*
X004139Y005522D03*
X004424Y005933D03*
X004061Y006101D03*
X004103Y006320D03*
X004439Y006335D03*
X005288Y005078D03*
X005291Y005075D03*
X005297Y005066D03*
X005300Y005063D03*
X005303Y005060D03*
X005441Y005081D03*
D45*
X005168Y005059D03*
X004421Y005935D03*
X004442Y006334D03*
X004133Y006514D03*
X004124Y005119D03*
X004121Y005119D03*
X004079Y004789D03*
X004403Y003745D03*
X004406Y003745D03*
X004409Y003745D03*
X004412Y003745D03*
X004412Y003550D03*
X004415Y003550D03*
X004418Y003550D03*
X004418Y003355D03*
X004421Y003145D03*
X004103Y003139D03*
X004127Y003550D03*
X004130Y003550D03*
X004133Y003550D03*
X004136Y003550D03*
X004139Y003550D03*
X004142Y003550D03*
X005363Y002914D03*
X005366Y002914D03*
X005525Y002980D03*
X005168Y002239D03*
X005441Y004120D03*
D46*
X005447Y004116D03*
X005171Y004491D03*
X004121Y005316D03*
X004142Y006321D03*
X004145Y006321D03*
X005171Y002991D03*
X005306Y002871D03*
X005489Y002721D03*
X005522Y002751D03*
X005171Y002046D03*
X005171Y001896D03*
D47*
X005438Y002608D03*
X005519Y002976D03*
X005441Y003900D03*
X004496Y003891D03*
X004343Y003741D03*
X004340Y003741D03*
X004430Y003150D03*
X004424Y003148D03*
X004259Y003105D03*
X004130Y002940D03*
X005168Y004830D03*
X004469Y005496D03*
X004409Y005715D03*
X004406Y005715D03*
X004403Y005715D03*
X004118Y005715D03*
X004133Y005520D03*
X004136Y005520D03*
X004142Y005316D03*
X004130Y005115D03*
X004127Y005115D03*
X004415Y005115D03*
X004418Y005115D03*
X004139Y005923D03*
X004124Y006135D03*
X004121Y006135D03*
X004100Y006321D03*
X004412Y006135D03*
X004415Y006135D03*
X005207Y005998D03*
X005441Y005676D03*
D48*
X005390Y005608D03*
X005171Y006021D03*
X004364Y006334D03*
X004361Y006334D03*
X004178Y006321D03*
X004175Y006321D03*
X004073Y006006D03*
X005159Y006850D03*
X005213Y005005D03*
X005159Y004635D03*
X005435Y004491D03*
X005159Y004114D03*
X005324Y003936D03*
X005390Y003831D03*
X005171Y003604D03*
X005159Y003141D03*
X005513Y003010D03*
X005435Y001896D03*
X004124Y003726D03*
D49*
X004127Y003730D03*
X004460Y003900D03*
X005036Y003328D03*
X005441Y003319D03*
X005168Y002839D03*
X005483Y002715D03*
X005447Y002241D03*
X005168Y002044D03*
X005036Y001360D03*
X005441Y001354D03*
X005426Y004489D03*
X005168Y004639D03*
X005447Y005676D03*
X005180Y006025D03*
X005447Y006214D03*
X004496Y006535D03*
X004493Y006531D03*
X004457Y006516D03*
X004454Y006516D03*
X004448Y006514D03*
X004391Y006334D03*
X004148Y006321D03*
D50*
X004151Y006323D03*
X004064Y006005D03*
X004460Y006518D03*
X004463Y006518D03*
X004466Y006521D03*
X004484Y006527D03*
X004490Y006530D03*
X005180Y006686D03*
X005441Y006794D03*
X005447Y005942D03*
X005441Y005519D03*
X005180Y005516D03*
X005399Y005129D03*
X005447Y005078D03*
X005441Y004379D03*
X005180Y004376D03*
X005447Y003902D03*
X005180Y003608D03*
X005447Y003524D03*
X005441Y003086D03*
X005480Y002714D03*
X005180Y002495D03*
X005426Y001895D03*
X004049Y003383D03*
X004298Y003713D03*
X004454Y003902D03*
X004457Y003902D03*
X004064Y004985D03*
X004442Y005318D03*
D51*
X004118Y005318D03*
X005165Y004637D03*
X005429Y004490D03*
X004445Y003905D03*
X004442Y003905D03*
X004439Y003905D03*
X004433Y003908D03*
X004430Y003908D03*
X005033Y003323D03*
X005165Y002987D03*
X005357Y002681D03*
X005474Y002711D03*
X005165Y002042D03*
X005177Y001781D03*
X005429Y001895D03*
X005444Y001355D03*
X004118Y002951D03*
X005396Y005615D03*
X005177Y006023D03*
X005441Y006542D03*
X004157Y006323D03*
D52*
X005159Y006215D03*
X005225Y006929D03*
X004445Y005318D03*
X004058Y003395D03*
X005225Y003218D03*
X005465Y002708D03*
X005159Y002042D03*
X005159Y001430D03*
D53*
X005462Y002706D03*
X005273Y003135D03*
X005159Y003898D03*
X005159Y005061D03*
X004184Y006321D03*
X004181Y006321D03*
D54*
X004187Y006321D03*
X004190Y006321D03*
X004349Y006334D03*
X004352Y006334D03*
X005159Y006595D03*
X005447Y006876D03*
X005447Y006895D03*
X005324Y005721D03*
X005384Y005601D03*
X005159Y005421D03*
X005165Y004495D03*
X005171Y004371D03*
X005390Y004054D03*
X005384Y003826D03*
X005273Y003148D03*
X005447Y003091D03*
X005165Y002824D03*
X005459Y002706D03*
X005216Y002395D03*
X005399Y001975D03*
X005159Y001686D03*
D55*
X004064Y003401D03*
X004490Y003686D03*
X005216Y004058D03*
X005387Y003827D03*
X004076Y004988D03*
X004076Y006008D03*
X005324Y005708D03*
X005387Y005603D03*
X005447Y006797D03*
D56*
X004508Y005981D03*
X005390Y005138D03*
X005393Y004055D03*
X005447Y003320D03*
X005171Y002492D03*
X004061Y003398D03*
X004493Y003686D03*
X004439Y003755D03*
X004073Y004988D03*
D57*
X005396Y004060D03*
X004496Y003688D03*
X004295Y003703D03*
X005447Y003175D03*
X004370Y006334D03*
X004367Y006334D03*
X005174Y006685D03*
D58*
X005222Y006677D03*
X005210Y006812D03*
X005162Y006851D03*
X005327Y006923D03*
X005219Y006542D03*
X005225Y006281D03*
X005222Y006278D03*
X005219Y006278D03*
X005216Y006275D03*
X005345Y006293D03*
X005360Y006290D03*
X005372Y006287D03*
X005384Y006281D03*
X005387Y006281D03*
X005396Y006152D03*
X005225Y006140D03*
X005222Y006143D03*
X005216Y006146D03*
X005444Y005942D03*
X005390Y005882D03*
X005381Y005876D03*
X005375Y005873D03*
X005279Y005858D03*
X005249Y005861D03*
X005246Y005861D03*
X005231Y005867D03*
X005228Y005867D03*
X005213Y005738D03*
X005210Y005735D03*
X005207Y005630D03*
X005279Y005621D03*
X005381Y005747D03*
X005216Y005372D03*
X005216Y005117D03*
X005246Y005117D03*
X005348Y005015D03*
X005354Y005012D03*
X005357Y005012D03*
X005390Y005015D03*
X005366Y004910D03*
X005375Y004907D03*
X005378Y004907D03*
X005387Y004901D03*
X005399Y004775D03*
X005396Y004772D03*
X005390Y004631D03*
X005231Y004760D03*
X005225Y004763D03*
X005222Y004763D03*
X005219Y004766D03*
X005219Y004898D03*
X005222Y004901D03*
X004436Y005318D03*
X004130Y006323D03*
X005228Y004187D03*
X005363Y004196D03*
X005366Y004196D03*
X005369Y004193D03*
X005372Y004193D03*
X005381Y003971D03*
X005213Y003962D03*
X005381Y003461D03*
X005384Y003461D03*
X005378Y003458D03*
X005372Y003455D03*
X005363Y003452D03*
X005258Y003443D03*
X005255Y003443D03*
X005243Y003446D03*
X005240Y003446D03*
X005228Y003452D03*
X005225Y003452D03*
X005405Y003326D03*
X005429Y003320D03*
X005432Y003320D03*
X005393Y003221D03*
X005396Y003218D03*
X005432Y003086D03*
X005417Y002912D03*
X005414Y002912D03*
X005300Y002741D03*
X005297Y002741D03*
X005303Y002738D03*
X005315Y002627D03*
X005447Y002591D03*
X005222Y002486D03*
X005222Y002306D03*
X005219Y002306D03*
X005216Y002303D03*
X005222Y002171D03*
X005228Y002168D03*
X005393Y002177D03*
X005396Y002180D03*
X005399Y002183D03*
X005381Y002312D03*
X005378Y002312D03*
X005372Y002315D03*
X005222Y001772D03*
X005219Y001637D03*
X005234Y001505D03*
X005228Y001502D03*
X005219Y001496D03*
X005309Y001520D03*
X005318Y001520D03*
X005324Y001520D03*
X005348Y001517D03*
X005351Y001517D03*
X005354Y001517D03*
X005372Y001511D03*
X005390Y001367D03*
X004220Y003122D03*
X004214Y003125D03*
X004211Y003125D03*
X004148Y003137D03*
X004145Y003137D03*
X004142Y003137D03*
X004307Y003725D03*
X004478Y003896D03*
D59*
X004451Y003904D03*
X004448Y003904D03*
X004436Y003754D03*
X004442Y003364D03*
X004439Y002995D03*
X005219Y003214D03*
X005441Y002500D03*
X005447Y001444D03*
X005207Y005014D03*
X004388Y006334D03*
X004385Y006334D03*
X004487Y006529D03*
D60*
X004172Y006321D03*
X004070Y006006D03*
X004511Y005976D03*
X004070Y004986D03*
X005165Y004476D03*
X005165Y002841D03*
X005159Y002241D03*
X005447Y001356D03*
D61*
X005441Y001639D03*
X005033Y001356D03*
X005177Y002494D03*
X005444Y003319D03*
X005210Y004066D03*
X005177Y004375D03*
X004436Y003906D03*
X004427Y003910D03*
X004052Y003388D03*
X005396Y005134D03*
X005441Y005371D03*
X005177Y005515D03*
X004514Y005971D03*
X004382Y006334D03*
X004379Y006334D03*
X004160Y006321D03*
X005177Y006685D03*
X005444Y006796D03*
D62*
X005318Y006911D03*
X005207Y006155D03*
X005393Y005738D03*
X005444Y005678D03*
X005165Y005675D03*
X005213Y005498D03*
X005210Y005378D03*
X005336Y005024D03*
X005402Y004889D03*
X005216Y004358D03*
X005393Y004181D03*
X005444Y004118D03*
X005393Y003962D03*
X005444Y003902D03*
X005165Y003899D03*
X005165Y004112D03*
X005213Y003590D03*
X005402Y003479D03*
X005318Y003203D03*
X005396Y003104D03*
X005396Y002912D03*
X005399Y002912D03*
X005174Y002417D03*
X005207Y002183D03*
X005405Y002192D03*
X005441Y001991D03*
X005393Y001910D03*
X005393Y001499D03*
X005441Y001448D03*
X005207Y001484D03*
X004238Y003116D03*
X004472Y003536D03*
X004475Y003536D03*
X004313Y003731D03*
X004136Y004637D03*
X004109Y004805D03*
X004115Y004808D03*
X004121Y004811D03*
X004187Y005105D03*
X004190Y005105D03*
X004193Y005105D03*
X004196Y005105D03*
X004199Y005105D03*
X004202Y005105D03*
X004346Y005105D03*
X004349Y005105D03*
X004352Y005105D03*
X004355Y005105D03*
X004358Y005105D03*
X004130Y005318D03*
X004187Y005531D03*
X004190Y005531D03*
X004193Y005531D03*
X004196Y005531D03*
X004370Y005531D03*
X004373Y005531D03*
X004376Y005531D03*
X004379Y005531D03*
X004382Y005531D03*
X004448Y005504D03*
X004343Y005705D03*
X004340Y005705D03*
X004337Y005705D03*
X004334Y005705D03*
X004331Y005705D03*
X004328Y005705D03*
X004181Y005705D03*
X004178Y005705D03*
X004175Y005705D03*
X004172Y005705D03*
X004430Y005933D03*
X004448Y006125D03*
X004451Y006125D03*
X004100Y006131D03*
X004097Y006131D03*
X004073Y006116D03*
D63*
X004067Y006005D03*
X004163Y006323D03*
X004442Y005933D03*
X005159Y005927D03*
X005210Y005009D03*
X005399Y004064D03*
X005159Y003512D03*
X005444Y003086D03*
X005168Y002573D03*
X005162Y002042D03*
X004133Y004913D03*
X004067Y004985D03*
D64*
X004130Y004635D03*
X004241Y005535D03*
X004244Y005535D03*
X004247Y005535D03*
X004250Y005535D03*
X004253Y005535D03*
X004256Y005535D03*
X004259Y005535D03*
X004262Y005535D03*
X004265Y005535D03*
X004268Y005535D03*
X004271Y005535D03*
X004274Y005535D03*
X004277Y005535D03*
X004280Y005535D03*
X004283Y005535D03*
X004286Y005535D03*
X004289Y005535D03*
X004292Y005535D03*
X004295Y005535D03*
X004298Y005535D03*
X004301Y005535D03*
X004304Y005535D03*
X004307Y005535D03*
X004310Y005535D03*
X004313Y005535D03*
X004316Y005535D03*
X004319Y005535D03*
X004322Y005535D03*
X004325Y005535D03*
X004466Y006120D03*
X004502Y006120D03*
X004127Y006321D03*
X004085Y006126D03*
X004082Y006126D03*
X005219Y006013D03*
X005222Y005871D03*
X005207Y005730D03*
X005384Y005745D03*
X005387Y005743D03*
X005396Y006013D03*
X005393Y006276D03*
X005219Y006675D03*
X005393Y006810D03*
X005321Y006915D03*
X005396Y006928D03*
X005219Y005503D03*
X005219Y005370D03*
X005213Y005115D03*
X005210Y005113D03*
X005249Y005115D03*
X005252Y005113D03*
X005345Y005016D03*
X005393Y005016D03*
X005396Y004896D03*
X005216Y004896D03*
X005213Y004770D03*
X005216Y004768D03*
X005390Y004500D03*
X005219Y004363D03*
X005222Y004183D03*
X005216Y004176D03*
X005375Y004191D03*
X005378Y004191D03*
X005387Y003966D03*
X005390Y003465D03*
X005423Y003321D03*
X005426Y003321D03*
X005324Y003210D03*
X005393Y003103D03*
X005210Y003103D03*
X005219Y003456D03*
X005306Y002736D03*
X005444Y002593D03*
X005219Y002481D03*
X005213Y002301D03*
X005219Y002173D03*
X005390Y002308D03*
X005390Y002038D03*
X005219Y001770D03*
X005213Y001641D03*
X005369Y001513D03*
X005381Y001506D03*
X004124Y002946D03*
X004223Y003120D03*
X004226Y003120D03*
D65*
X004298Y003084D03*
X005183Y002449D03*
X005186Y002451D03*
X005189Y002451D03*
X005183Y002239D03*
X005291Y003139D03*
X005441Y003555D03*
X005426Y003900D03*
X005189Y003904D03*
X005186Y004116D03*
X005186Y004329D03*
X005189Y004329D03*
X005423Y004125D03*
X005423Y004836D03*
X005183Y004830D03*
X005186Y005061D03*
X005426Y005079D03*
X005426Y005676D03*
X005189Y005679D03*
X004472Y005736D03*
X004064Y005739D03*
X004199Y006159D03*
X004202Y006159D03*
X004331Y006159D03*
X004334Y006159D03*
X004481Y006334D03*
X004484Y006334D03*
X004193Y006501D03*
X005294Y006849D03*
X004355Y005319D03*
X004352Y005319D03*
X004349Y005319D03*
X004481Y005139D03*
X004076Y005134D03*
D66*
X004151Y005316D03*
X004439Y005121D03*
X004178Y004641D03*
X004175Y004641D03*
X004172Y004641D03*
X004499Y003891D03*
X005438Y005676D03*
X004430Y005721D03*
X004427Y005721D03*
X004412Y005931D03*
X004394Y006141D03*
X004391Y006141D03*
X004142Y006141D03*
X004088Y006321D03*
X004100Y005721D03*
D67*
X004103Y005720D03*
X004118Y005516D03*
X004148Y005318D03*
X004103Y005126D03*
X004412Y005318D03*
X004478Y005492D03*
X004424Y005720D03*
X004415Y005933D03*
X004400Y006140D03*
X004397Y006140D03*
X004139Y006140D03*
X004136Y006140D03*
X004091Y006320D03*
X004145Y006509D03*
X004148Y006509D03*
X004433Y005120D03*
X004436Y005120D03*
X004427Y004607D03*
X004169Y004640D03*
X004100Y003554D03*
X004097Y003554D03*
X004409Y003350D03*
X004454Y003164D03*
X004448Y003161D03*
X004427Y003002D03*
X004268Y003101D03*
X004097Y003140D03*
X005201Y002612D03*
X005354Y002702D03*
X005351Y002912D03*
X005348Y002912D03*
X005438Y005081D03*
D68*
X005189Y005063D03*
X005321Y005714D03*
X005423Y006215D03*
X005183Y006863D03*
X004328Y006161D03*
X004325Y006161D03*
X004208Y006161D03*
X004205Y006161D03*
X004061Y006320D03*
X004196Y006500D03*
X004475Y005738D03*
X004499Y005480D03*
X004346Y005318D03*
X004343Y005318D03*
X004340Y005318D03*
X004337Y005318D03*
X004223Y005318D03*
X004220Y005318D03*
X004217Y005318D03*
X004214Y005318D03*
X004211Y005318D03*
X004208Y005318D03*
X004073Y005495D03*
X004484Y005141D03*
X005189Y004118D03*
X005321Y003938D03*
X005438Y003554D03*
X005294Y003140D03*
X005183Y003155D03*
X005330Y002681D03*
X005423Y002243D03*
X005171Y001409D03*
X004301Y003083D03*
X004484Y003176D03*
X004073Y003140D03*
X004052Y003575D03*
D69*
X004421Y003746D03*
X004511Y003692D03*
X005210Y003587D03*
X005438Y003176D03*
X005399Y003107D03*
X005390Y002912D03*
X005387Y002912D03*
X005165Y002237D03*
X005204Y001376D03*
X005399Y001376D03*
X004139Y004637D03*
X004103Y004802D03*
X004454Y005501D03*
X004133Y005921D03*
X004106Y006131D03*
X005333Y005027D03*
X005405Y004787D03*
X005204Y004781D03*
D70*
X005432Y004583D03*
X005174Y005420D03*
X005174Y005678D03*
X005174Y005930D03*
X005171Y006209D03*
X005435Y006215D03*
X005174Y006590D03*
X005279Y006833D03*
X004388Y006143D03*
X004406Y005930D03*
X004409Y005930D03*
X004433Y005723D03*
X004436Y005723D03*
X004097Y005723D03*
X004094Y005723D03*
X004109Y005513D03*
X004154Y005318D03*
X004088Y005135D03*
X004070Y004784D03*
X004181Y004643D03*
X004184Y004643D03*
X004187Y004643D03*
X004442Y005123D03*
X004445Y005123D03*
X004406Y005318D03*
X004148Y006143D03*
X004145Y006143D03*
X004094Y003140D03*
X004091Y003140D03*
X005435Y002243D03*
X005174Y001685D03*
D71*
X005174Y002237D03*
X005345Y002684D03*
X004469Y003173D03*
X004388Y003344D03*
X004385Y003344D03*
X004148Y003344D03*
X004088Y003140D03*
X004076Y003560D03*
X004148Y003755D03*
X004202Y004643D03*
X004223Y004646D03*
X004424Y004607D03*
X004451Y005126D03*
X004454Y005126D03*
X004400Y005318D03*
X004487Y005486D03*
X004445Y005726D03*
X004442Y005726D03*
X004397Y005927D03*
X004394Y005927D03*
X004379Y006146D03*
X004376Y006146D03*
X004460Y006335D03*
X004163Y006506D03*
X004160Y006506D03*
X004082Y006320D03*
X004157Y006146D03*
X004148Y005924D03*
X004088Y005726D03*
X004100Y005510D03*
X004160Y005318D03*
X005177Y005678D03*
X005174Y006209D03*
X005435Y005081D03*
X005435Y004121D03*
X005174Y004112D03*
X005177Y003902D03*
D72*
X004499Y003529D03*
X004394Y003345D03*
X004391Y003345D03*
X004466Y003171D03*
X004463Y003169D03*
X004274Y003099D03*
X004145Y003345D03*
X004142Y003345D03*
X004082Y003559D03*
X004079Y003559D03*
X004190Y004644D03*
X004193Y004644D03*
X004196Y004644D03*
X004199Y004644D03*
X004238Y004650D03*
X004067Y004783D03*
X004448Y005124D03*
X004403Y005319D03*
X004484Y005488D03*
X004439Y005724D03*
X004403Y005929D03*
X004400Y005929D03*
X004385Y006144D03*
X004382Y006144D03*
X004457Y006334D03*
X004157Y006508D03*
X004085Y006321D03*
X004151Y006144D03*
X004154Y006144D03*
X004091Y005724D03*
X004103Y005511D03*
X004106Y005511D03*
X004157Y005316D03*
X005435Y004836D03*
X005171Y003148D03*
X005279Y003124D03*
X005348Y002689D03*
D73*
X005204Y002610D03*
X005354Y002914D03*
X004451Y003163D03*
X004445Y003160D03*
X004265Y003103D03*
X004412Y003351D03*
X004496Y003529D03*
X004391Y003745D03*
X004388Y003745D03*
X004385Y003745D03*
X004382Y003745D03*
X004379Y003745D03*
X004376Y003745D03*
X004373Y003745D03*
X004370Y003745D03*
X004367Y003745D03*
X004364Y003745D03*
X004361Y003745D03*
X004358Y003745D03*
X004112Y003553D03*
X004109Y003553D03*
X004106Y003553D03*
X004103Y003553D03*
X004163Y004641D03*
X004166Y004641D03*
X004073Y004785D03*
X004112Y005121D03*
X004109Y005125D03*
X004106Y005125D03*
X004415Y005320D03*
X004475Y005494D03*
X004421Y005719D03*
X004418Y005719D03*
X004418Y005935D03*
X004406Y006139D03*
X004403Y006139D03*
X004445Y006334D03*
X004448Y006334D03*
X004142Y006510D03*
X004139Y006510D03*
X004097Y006321D03*
X004094Y006321D03*
X004133Y006139D03*
X004142Y005923D03*
X004109Y005719D03*
X004106Y005719D03*
X004121Y005518D03*
X004124Y005518D03*
X004427Y005119D03*
X004430Y005119D03*
X005171Y005419D03*
X005171Y005929D03*
X005435Y004585D03*
X005402Y004161D03*
D74*
X005195Y004121D03*
X005195Y003905D03*
X005423Y003902D03*
X005435Y003551D03*
X005297Y003143D03*
X005186Y003155D03*
X005327Y002681D03*
X005420Y002243D03*
X005420Y005078D03*
X005423Y005678D03*
X005195Y005681D03*
X005420Y006215D03*
X004490Y006335D03*
X004058Y006320D03*
X004478Y005738D03*
X004322Y005318D03*
X004319Y005318D03*
X004316Y005318D03*
X004313Y005318D03*
X004310Y005318D03*
X004307Y005318D03*
X004304Y005318D03*
X004301Y005318D03*
X004298Y005318D03*
X004295Y005318D03*
X004292Y005318D03*
X004289Y005318D03*
X004286Y005318D03*
X004283Y005318D03*
X004280Y005318D03*
X004277Y005318D03*
X004274Y005318D03*
X004271Y005318D03*
X004268Y005318D03*
X004265Y005318D03*
X004262Y005318D03*
X004259Y005318D03*
X004256Y005318D03*
X004253Y005318D03*
X004250Y005318D03*
X004247Y005318D03*
X004244Y005318D03*
X004241Y005318D03*
X004238Y005318D03*
X004235Y005318D03*
D75*
X004190Y005316D03*
X004475Y005136D03*
X004496Y005481D03*
X004331Y005916D03*
X004328Y005916D03*
X004325Y005916D03*
X004322Y005916D03*
X004319Y005916D03*
X004316Y005916D03*
X004313Y005916D03*
X004205Y005916D03*
X004202Y005916D03*
X004199Y005916D03*
X004196Y005916D03*
X004193Y005916D03*
X004190Y005916D03*
X004190Y006156D03*
X004193Y006156D03*
X004340Y006156D03*
X004343Y006156D03*
X004190Y006501D03*
X004187Y006501D03*
X005429Y005676D03*
X005426Y004836D03*
X005435Y002631D03*
X005426Y002241D03*
D76*
X005432Y002243D03*
X005390Y002717D03*
X005282Y003128D03*
X004472Y003173D03*
X004421Y003005D03*
X004280Y003095D03*
X004085Y003140D03*
X004154Y003341D03*
X004157Y003341D03*
X004370Y003341D03*
X004373Y003341D03*
X004376Y003341D03*
X004502Y003527D03*
X004151Y003758D03*
X004070Y003563D03*
X004064Y004781D03*
X004166Y005318D03*
X004094Y005507D03*
X004391Y005318D03*
X004394Y005318D03*
X004490Y005483D03*
X004076Y006320D03*
X004172Y006503D03*
X005432Y006215D03*
D77*
X005417Y006215D03*
X005432Y005966D03*
X005420Y005678D03*
X005201Y005681D03*
X005411Y005075D03*
X005414Y005075D03*
X005408Y005072D03*
X004493Y005150D03*
X004352Y004889D03*
X004349Y004889D03*
X004346Y004889D03*
X004343Y004889D03*
X004340Y004889D03*
X004337Y004889D03*
X004334Y004889D03*
X004331Y004889D03*
X004328Y004889D03*
X004325Y004889D03*
X004322Y004889D03*
X004265Y004889D03*
X004262Y004889D03*
X004259Y004889D03*
X004256Y004889D03*
X004253Y004889D03*
X004250Y004889D03*
X004247Y004889D03*
X004244Y004889D03*
X004241Y004889D03*
X004238Y004889D03*
X004235Y004889D03*
X004232Y004889D03*
X004070Y005132D03*
X004064Y005489D03*
X004502Y005480D03*
X004307Y006167D03*
X004304Y006167D03*
X004226Y006167D03*
X004055Y006320D03*
X004496Y006335D03*
X004469Y006908D03*
X004466Y006908D03*
X004463Y006908D03*
X004460Y006908D03*
X004457Y006908D03*
X004454Y006908D03*
X004451Y006908D03*
X004448Y006908D03*
X004445Y006908D03*
X004442Y006908D03*
X004439Y006908D03*
X004436Y006908D03*
X004433Y006908D03*
X004430Y006908D03*
X004427Y006908D03*
X004424Y006908D03*
X004421Y006908D03*
X004418Y006908D03*
X004415Y006908D03*
X004412Y006908D03*
X004409Y006908D03*
X004406Y006908D03*
X004403Y006908D03*
X004400Y006908D03*
X004397Y006908D03*
X004394Y006908D03*
X004391Y006908D03*
X004388Y006908D03*
X004385Y006908D03*
X004382Y006908D03*
X004379Y006908D03*
X004376Y006908D03*
X004373Y006908D03*
X004370Y006908D03*
X004367Y006908D03*
X004364Y006908D03*
X004361Y006908D03*
X004358Y006908D03*
X004355Y006908D03*
X004352Y006908D03*
X004349Y006908D03*
X004346Y006908D03*
X004343Y006908D03*
X004340Y006908D03*
X004337Y006908D03*
X004334Y006908D03*
X004331Y006908D03*
X004328Y006908D03*
X004325Y006908D03*
X004322Y006908D03*
X004319Y006908D03*
X004316Y006908D03*
X004313Y006908D03*
X004310Y006908D03*
X004307Y006908D03*
X004304Y006908D03*
X004301Y006908D03*
X004298Y006908D03*
X004295Y006908D03*
X004292Y006908D03*
X004289Y006908D03*
X004286Y006908D03*
X004283Y006908D03*
X004280Y006908D03*
X004277Y006908D03*
X004274Y006908D03*
X004271Y006908D03*
X004268Y006908D03*
X004265Y006908D03*
X004262Y006908D03*
X004259Y006908D03*
X004256Y006908D03*
X004253Y006908D03*
X004250Y006908D03*
X004247Y006908D03*
X004244Y006908D03*
X004241Y006908D03*
X004238Y006908D03*
X004235Y006908D03*
X004232Y006908D03*
X004229Y006908D03*
X004226Y006908D03*
X004223Y006908D03*
X004220Y006908D03*
X004217Y006908D03*
X004214Y006908D03*
X004211Y006908D03*
X004208Y006908D03*
X004205Y006908D03*
X004202Y006908D03*
X004199Y006908D03*
X004196Y006908D03*
X004193Y006908D03*
X004190Y006908D03*
X004187Y006908D03*
X004184Y006908D03*
X004181Y006908D03*
X004178Y006908D03*
X004175Y006908D03*
X004172Y006908D03*
X004169Y006908D03*
X004166Y006908D03*
X004163Y006908D03*
X004160Y006908D03*
X004157Y006908D03*
X004154Y006908D03*
X004151Y006908D03*
X004148Y006908D03*
X004145Y006908D03*
X004142Y006908D03*
X004139Y006908D03*
X004136Y006908D03*
X004133Y006908D03*
X004130Y006908D03*
X004127Y006908D03*
X004124Y006908D03*
X004121Y006908D03*
X004118Y006908D03*
X004115Y006908D03*
X004112Y006908D03*
X004109Y006908D03*
X004106Y006908D03*
X004103Y006908D03*
X004100Y006908D03*
X004097Y006908D03*
X004094Y006908D03*
X004091Y006908D03*
X004088Y006908D03*
X004085Y006908D03*
X004082Y006908D03*
X004079Y006908D03*
X004076Y006908D03*
X004073Y006908D03*
X004070Y006908D03*
X004067Y006908D03*
X004064Y006908D03*
X004061Y006908D03*
X004058Y006908D03*
X004055Y006908D03*
X004052Y006908D03*
X004049Y006908D03*
X004046Y006908D03*
X004043Y006908D03*
X004040Y006908D03*
X004037Y006908D03*
X004034Y006908D03*
X004031Y006908D03*
X004028Y006908D03*
X004025Y006908D03*
X004022Y006908D03*
X004019Y006908D03*
X004016Y006908D03*
X004013Y006908D03*
X004010Y006908D03*
X004007Y006908D03*
X004004Y006908D03*
X004001Y006908D03*
X003998Y006908D03*
X003995Y006908D03*
X003992Y006908D03*
X003989Y006908D03*
X003986Y006908D03*
X003983Y006908D03*
X003980Y006908D03*
X003977Y006908D03*
X003974Y006908D03*
X003971Y006908D03*
X003968Y006908D03*
X003965Y006908D03*
X003962Y006908D03*
X003959Y006908D03*
X003956Y006908D03*
X003953Y006908D03*
X003950Y006908D03*
X003947Y006908D03*
X003944Y006908D03*
X003941Y006908D03*
X003938Y006908D03*
X003935Y006908D03*
X003932Y006908D03*
X003929Y006908D03*
X003926Y006908D03*
X003923Y006908D03*
X003920Y006908D03*
X003917Y006908D03*
X003914Y006908D03*
X003911Y006908D03*
X003908Y006908D03*
X003905Y006908D03*
X003902Y006908D03*
X005306Y006857D03*
X004412Y004601D03*
X005201Y003905D03*
X005420Y003902D03*
X005411Y004127D03*
X005432Y003548D03*
X005303Y003146D03*
X005192Y003155D03*
X005432Y002642D03*
X005417Y002243D03*
X005180Y001415D03*
X004070Y003140D03*
D78*
X004082Y003140D03*
X004286Y003092D03*
X004352Y003338D03*
X004355Y003338D03*
X004358Y003338D03*
X004172Y003338D03*
X004169Y003338D03*
X004166Y003338D03*
X004064Y003566D03*
X004514Y003701D03*
X005180Y003515D03*
X004421Y004604D03*
X004061Y004778D03*
X004466Y005132D03*
X004385Y005318D03*
X004382Y005318D03*
X004493Y005483D03*
X004460Y005732D03*
X004367Y005921D03*
X004364Y005921D03*
X004361Y005921D03*
X004166Y005921D03*
X004163Y005921D03*
X004076Y005732D03*
X004088Y005504D03*
X004175Y005318D03*
X004175Y006152D03*
X004178Y006152D03*
X004358Y006152D03*
X004073Y006320D03*
X004175Y006503D03*
X004178Y006503D03*
X005180Y006593D03*
X005285Y006842D03*
X005177Y006209D03*
X005429Y006215D03*
X005180Y005930D03*
X005432Y005081D03*
X005429Y002243D03*
X005177Y002237D03*
X005426Y001988D03*
X005180Y001688D03*
D79*
X005432Y004123D03*
X005426Y004581D03*
X005177Y004830D03*
X005180Y005421D03*
X004463Y005130D03*
X004172Y005316D03*
X004169Y005316D03*
X004091Y005505D03*
X004079Y005730D03*
X004157Y005923D03*
X004160Y005923D03*
X004370Y005923D03*
X004373Y005923D03*
X004376Y005923D03*
X004457Y005730D03*
X004364Y006150D03*
X004361Y006150D03*
X004172Y006150D03*
D80*
X005171Y006857D03*
X004091Y005132D03*
X005174Y003902D03*
X005174Y003512D03*
X004460Y003167D03*
X004424Y003002D03*
X004271Y003101D03*
X004133Y002936D03*
X004397Y003347D03*
X004400Y003347D03*
X004088Y003557D03*
X004085Y003557D03*
X005432Y001991D03*
D81*
X005180Y002237D03*
X005204Y002450D03*
X005207Y002450D03*
X004292Y003089D03*
X004079Y003140D03*
X004187Y003335D03*
X004190Y003335D03*
X004193Y003335D03*
X004196Y003335D03*
X004322Y003335D03*
X004325Y003335D03*
X004328Y003335D03*
X004331Y003335D03*
X004334Y003335D03*
X004337Y003335D03*
X004154Y003764D03*
X005204Y004331D03*
X005207Y004331D03*
X005180Y005060D03*
X005429Y005081D03*
X004472Y005135D03*
X004376Y005318D03*
X004373Y005318D03*
X004370Y005318D03*
X004187Y005318D03*
X004184Y005318D03*
X004082Y005501D03*
X004070Y005735D03*
X004178Y005918D03*
X004181Y005918D03*
X004184Y005918D03*
X004187Y005918D03*
X004334Y005918D03*
X004337Y005918D03*
X004340Y005918D03*
X004343Y005918D03*
X004346Y005918D03*
X004466Y005735D03*
X004349Y006155D03*
X004346Y006155D03*
X004187Y006155D03*
X004184Y006155D03*
X004067Y006320D03*
X004184Y006503D03*
X005180Y006209D03*
X005288Y006845D03*
X005177Y006860D03*
D82*
X005426Y006214D03*
X005186Y005680D03*
X004478Y006334D03*
X004475Y006334D03*
X004079Y005500D03*
X004367Y005320D03*
X005180Y004831D03*
X005201Y004330D03*
X005426Y004123D03*
X005429Y003901D03*
X005186Y003904D03*
X004505Y003895D03*
X004505Y003526D03*
X004319Y003334D03*
X004316Y003334D03*
X004313Y003334D03*
X004310Y003334D03*
X004307Y003334D03*
X004304Y003334D03*
X004301Y003334D03*
X004298Y003334D03*
X004295Y003334D03*
X004292Y003334D03*
X004223Y003334D03*
X004220Y003334D03*
X004217Y003334D03*
X004214Y003334D03*
X004211Y003334D03*
X004208Y003334D03*
X004205Y003334D03*
X004202Y003334D03*
X004199Y003334D03*
X004058Y003571D03*
X005288Y003136D03*
D83*
X005429Y003141D03*
X005417Y003540D03*
X005315Y003924D03*
X004493Y003178D03*
X004319Y003073D03*
X004064Y003139D03*
X004085Y002754D03*
X004088Y002754D03*
X004091Y002754D03*
X004094Y002754D03*
X004325Y002754D03*
X004328Y002754D03*
X004436Y002754D03*
X004439Y002754D03*
X004442Y002754D03*
X005174Y002646D03*
X005399Y002689D03*
X005201Y002239D03*
X005192Y001423D03*
X005408Y004836D03*
X005315Y005700D03*
X005420Y005959D03*
X005201Y006210D03*
X004280Y006174D03*
X004253Y006174D03*
X004250Y006174D03*
X004502Y005158D03*
X004415Y004881D03*
X004412Y004881D03*
X004409Y004881D03*
X004169Y004881D03*
X004166Y004881D03*
X004163Y004881D03*
X004154Y004879D03*
X004151Y004875D03*
D84*
X004142Y004868D03*
X004196Y004886D03*
X004199Y004886D03*
X004202Y004886D03*
X004205Y004886D03*
X004208Y004886D03*
X004052Y004775D03*
X004376Y004886D03*
X004379Y004886D03*
X004382Y004886D03*
X004385Y004886D03*
X004061Y005486D03*
X004235Y006170D03*
X004238Y006170D03*
X004295Y006170D03*
X004298Y006170D03*
X004499Y006335D03*
X004499Y006905D03*
X004496Y006905D03*
X004493Y006905D03*
X004490Y006905D03*
X005201Y006863D03*
X005312Y006860D03*
X005411Y005681D03*
X005195Y004832D03*
X005405Y004130D03*
X005411Y003905D03*
X005426Y003545D03*
X005309Y003149D03*
X005198Y003155D03*
X005318Y002681D03*
X005429Y002648D03*
X005414Y002243D03*
X005183Y001418D03*
X004418Y002750D03*
X004415Y002750D03*
X004412Y002750D03*
X004409Y002750D03*
X004406Y002750D03*
X004358Y002750D03*
X004355Y002750D03*
X004352Y002750D03*
X004349Y002750D03*
X004346Y002750D03*
X004313Y003077D03*
X004067Y003140D03*
D85*
X004061Y003139D03*
X005180Y002650D03*
X005411Y002674D03*
X005405Y003154D03*
X005405Y003535D03*
X005183Y001714D03*
X005429Y001414D03*
X005183Y006619D03*
X005402Y006865D03*
X003878Y006895D03*
D86*
X004241Y006171D03*
X004289Y006171D03*
X004292Y006171D03*
X004052Y005751D03*
X005426Y005961D03*
X005411Y004836D03*
X005408Y003906D03*
X004427Y002751D03*
X004424Y002751D03*
X004421Y002751D03*
X004343Y002751D03*
X004340Y002751D03*
X004337Y002751D03*
X005411Y002241D03*
D87*
X005408Y001969D03*
X005405Y001969D03*
X005414Y001965D03*
X005195Y001710D03*
X005189Y001714D03*
X005186Y001714D03*
X005426Y001416D03*
X005186Y002653D03*
X005411Y003148D03*
X005189Y003538D03*
X004331Y003066D03*
X004301Y002764D03*
X004298Y002764D03*
X004133Y002764D03*
X004067Y002764D03*
X004466Y002764D03*
X005402Y004564D03*
X005408Y004560D03*
X005411Y004560D03*
X005417Y004558D03*
X004451Y004873D03*
X004448Y004873D03*
X005189Y005445D03*
X005192Y005445D03*
X005189Y005953D03*
X005186Y005955D03*
X005192Y006615D03*
X005195Y006615D03*
X005189Y006619D03*
X005186Y006619D03*
X005408Y006859D03*
X005411Y006859D03*
D88*
X005423Y006854D03*
X005411Y005954D03*
X005408Y005954D03*
X004265Y006179D03*
X004064Y005129D03*
X005183Y003539D03*
X004496Y003179D03*
X004454Y002759D03*
X004313Y002759D03*
X004310Y002759D03*
X004121Y002759D03*
X004118Y002759D03*
X004073Y002759D03*
D89*
X005312Y003920D03*
X005408Y003536D03*
X005420Y003146D03*
X005405Y002681D03*
X005420Y002663D03*
X005423Y004556D03*
X004436Y004877D03*
X004433Y004877D03*
X004505Y005162D03*
X004508Y005477D03*
X005183Y005447D03*
X005312Y005696D03*
X004049Y004775D03*
D90*
X004439Y004875D03*
X004442Y004875D03*
X004052Y005475D03*
X005183Y005955D03*
X005405Y005953D03*
X005417Y006855D03*
X005420Y006855D03*
X005402Y003156D03*
X005408Y002676D03*
X005414Y002670D03*
X005417Y002668D03*
X005423Y001963D03*
X004460Y002760D03*
X004457Y002760D03*
X004307Y002760D03*
X004127Y002760D03*
X004124Y002760D03*
D91*
X004064Y002765D03*
X004295Y002765D03*
X004469Y002765D03*
X004334Y003065D03*
X004499Y003179D03*
X005192Y003536D03*
X005195Y003533D03*
X005303Y003914D03*
X005306Y003914D03*
X005405Y004562D03*
X004454Y004871D03*
X005195Y005444D03*
X005198Y005441D03*
X005201Y005441D03*
X005204Y005441D03*
X005303Y005690D03*
X005306Y005690D03*
X005195Y005951D03*
X005192Y005951D03*
X005207Y006611D03*
X005201Y006614D03*
X005198Y006614D03*
X004499Y005744D03*
X003875Y006890D03*
X005408Y003149D03*
X005189Y002654D03*
X005402Y001970D03*
X005411Y001967D03*
X005207Y001706D03*
X005201Y001709D03*
X005198Y001709D03*
X005192Y001712D03*
X005423Y001418D03*
D92*
X005420Y001964D03*
X005417Y001964D03*
X005183Y002651D03*
X005417Y003146D03*
X005414Y003149D03*
X005186Y003539D03*
X005309Y003917D03*
X005420Y004556D03*
X005414Y004559D03*
X004445Y004874D03*
X005186Y005447D03*
X005309Y005693D03*
X004496Y005744D03*
X004046Y005762D03*
X005405Y006863D03*
X005414Y006857D03*
X004043Y003596D03*
X004328Y003068D03*
X004304Y002762D03*
X004130Y002762D03*
X004070Y002762D03*
X004463Y002762D03*
D93*
X005198Y002237D03*
X005189Y001421D03*
X005420Y003542D03*
X005198Y004832D03*
X004145Y004871D03*
X004067Y005132D03*
X003884Y006902D03*
D94*
X005204Y006613D03*
X005198Y005950D03*
X005282Y005689D03*
X005285Y005689D03*
X005288Y005689D03*
X005291Y005689D03*
X005294Y005689D03*
X005297Y005689D03*
X005300Y005689D03*
X005207Y005440D03*
X004460Y004870D03*
X004457Y004870D03*
X004049Y005470D03*
X005282Y003913D03*
X005285Y003913D03*
X005288Y003913D03*
X005291Y003913D03*
X005294Y003913D03*
X005297Y003913D03*
X005300Y003913D03*
X004058Y003139D03*
X005192Y002656D03*
X005198Y002659D03*
X005204Y001708D03*
X005420Y001420D03*
D95*
X005417Y001421D03*
X005414Y001421D03*
X005195Y002657D03*
X004337Y003062D03*
D96*
X004340Y003060D03*
X004286Y002769D03*
X004478Y002769D03*
X004058Y002769D03*
X005411Y001423D03*
X004466Y004866D03*
X004511Y005475D03*
X004043Y005769D03*
X004505Y006328D03*
D97*
X004502Y005744D03*
X004469Y004865D03*
X004481Y002771D03*
X004283Y002771D03*
X005408Y001424D03*
D98*
X005405Y001430D03*
X004475Y002768D03*
X004289Y002768D03*
X004061Y002768D03*
X005204Y003530D03*
X004463Y004868D03*
X005204Y005945D03*
X004055Y006068D03*
D99*
X004115Y006321D03*
X004118Y006321D03*
X004445Y006126D03*
X004358Y005706D03*
X004355Y005706D03*
X004352Y005706D03*
X004349Y005706D03*
X004346Y005706D03*
X004169Y005706D03*
X004166Y005706D03*
X004163Y005706D03*
X004160Y005706D03*
X004175Y005106D03*
X004178Y005106D03*
X004181Y005106D03*
X004184Y005106D03*
X004361Y005106D03*
X004364Y005106D03*
X004367Y005106D03*
X004370Y005106D03*
X005204Y004881D03*
X005396Y004506D03*
X005174Y004296D03*
X005396Y004176D03*
X004127Y002946D03*
X005213Y006006D03*
X005402Y006006D03*
X005273Y006816D03*
D100*
X005201Y005946D03*
X005201Y003531D03*
X005198Y003531D03*
X004472Y002766D03*
X004292Y002766D03*
X005402Y001431D03*
D101*
X005399Y001919D03*
X005207Y002609D03*
X004430Y002999D03*
X005207Y003584D03*
X005399Y004514D03*
X004412Y005114D03*
X004409Y005114D03*
X004136Y005114D03*
X004133Y005114D03*
X004436Y005519D03*
X004400Y005714D03*
X004397Y005714D03*
X004127Y005714D03*
X004124Y005714D03*
X004121Y005714D03*
X004418Y006134D03*
X004421Y006134D03*
X005168Y006209D03*
D102*
X005396Y003839D03*
D103*
X005393Y003836D03*
X005213Y004061D03*
X005162Y004292D03*
X004436Y004616D03*
X004115Y004637D03*
X005393Y005612D03*
X004055Y003392D03*
X005174Y002492D03*
X005174Y001781D03*
D104*
X005339Y002680D03*
X004475Y003175D03*
X004367Y003340D03*
X004364Y003340D03*
X004361Y003340D03*
X004163Y003340D03*
X004160Y003340D03*
X004283Y003094D03*
X004067Y003565D03*
X005180Y003904D03*
X005177Y004114D03*
X005177Y005059D03*
X005180Y005680D03*
X004469Y006334D03*
X004466Y006334D03*
X005174Y006859D03*
X004388Y005320D03*
X004082Y005134D03*
D105*
X004481Y005740D03*
X004493Y006334D03*
X003899Y006910D03*
X003896Y006910D03*
X003893Y006910D03*
X003890Y006910D03*
X005186Y006865D03*
X005189Y006865D03*
X005198Y005680D03*
X005198Y003904D03*
X005300Y003145D03*
X005324Y002680D03*
X005189Y002239D03*
X005177Y001414D03*
X004049Y003580D03*
D106*
X005201Y004124D03*
X004487Y005144D03*
X004316Y006164D03*
X004217Y006164D03*
X004214Y006164D03*
X005300Y006854D03*
D107*
X005291Y006848D03*
X005180Y006863D03*
X005183Y006209D03*
X004469Y005735D03*
X004310Y005915D03*
X004307Y005915D03*
X004304Y005915D03*
X004301Y005915D03*
X004298Y005915D03*
X004295Y005915D03*
X004292Y005915D03*
X004289Y005915D03*
X004286Y005915D03*
X004283Y005915D03*
X004280Y005915D03*
X004277Y005915D03*
X004274Y005915D03*
X004271Y005915D03*
X004268Y005915D03*
X004265Y005915D03*
X004262Y005915D03*
X004259Y005915D03*
X004256Y005915D03*
X004253Y005915D03*
X004250Y005915D03*
X004247Y005915D03*
X004244Y005915D03*
X004241Y005915D03*
X004238Y005915D03*
X004235Y005915D03*
X004232Y005915D03*
X004229Y005915D03*
X004226Y005915D03*
X004223Y005915D03*
X004220Y005915D03*
X004217Y005915D03*
X004214Y005915D03*
X004211Y005915D03*
X004208Y005915D03*
X004067Y005738D03*
X004076Y005498D03*
X004193Y005318D03*
X004196Y005318D03*
X004199Y005318D03*
X004202Y005318D03*
X004205Y005318D03*
X004358Y005318D03*
X004361Y005318D03*
X004364Y005318D03*
X004478Y005138D03*
X004058Y004778D03*
X004418Y004604D03*
X005183Y004328D03*
X005183Y004115D03*
X005183Y005060D03*
X004337Y006158D03*
X004196Y006158D03*
X004064Y006320D03*
X004076Y003140D03*
X005192Y002450D03*
X005195Y002450D03*
X005198Y002450D03*
X005201Y002450D03*
D108*
X005174Y003149D03*
X004460Y005129D03*
X004454Y005729D03*
X004451Y005729D03*
X004385Y005924D03*
X004382Y005924D03*
X004379Y005924D03*
X004154Y005924D03*
X004151Y005924D03*
X004082Y005729D03*
X004166Y006149D03*
X004169Y006149D03*
X004367Y006149D03*
X004370Y006149D03*
D109*
X004358Y006334D03*
X004355Y006334D03*
X005159Y005674D03*
X005159Y004834D03*
X005159Y002680D03*
D110*
X005030Y003314D03*
X004505Y005984D03*
D111*
X004925Y004828D03*
D112*
X004922Y004829D03*
D113*
X004919Y004829D03*
D114*
X004916Y004829D03*
D115*
X004913Y004828D03*
D116*
X004910Y004829D03*
D117*
X004907Y004828D03*
X003647Y004828D03*
D118*
X004904Y004829D03*
D119*
X004901Y004828D03*
D120*
X004898Y004828D03*
X003656Y004828D03*
D121*
X003659Y004829D03*
X004895Y004829D03*
D122*
X004892Y004828D03*
X003662Y004828D03*
D123*
X003665Y004828D03*
X004889Y004828D03*
D124*
X004886Y004829D03*
X003668Y004829D03*
D125*
X004883Y004829D03*
D126*
X004880Y004828D03*
X003674Y004828D03*
D127*
X003677Y004828D03*
X004877Y004828D03*
D128*
X004874Y004828D03*
X003680Y004828D03*
D129*
X003683Y004828D03*
X004871Y004828D03*
D130*
X004868Y004828D03*
X003686Y004828D03*
D131*
X004865Y004829D03*
D132*
X004862Y004829D03*
X003692Y004829D03*
D133*
X004859Y004828D03*
D134*
X004856Y004828D03*
X003698Y004828D03*
D135*
X003701Y004828D03*
X004853Y004828D03*
D136*
X004850Y004829D03*
X003704Y004829D03*
D137*
X003707Y004828D03*
X004847Y004828D03*
D138*
X004844Y004828D03*
X003710Y004828D03*
D139*
X003713Y004829D03*
X004841Y004829D03*
D140*
X004838Y004828D03*
X003716Y004828D03*
D141*
X003719Y004828D03*
X004835Y004828D03*
D142*
X004832Y004829D03*
X003722Y004829D03*
D143*
X003725Y004828D03*
X004826Y004828D03*
X004829Y004828D03*
D144*
X004823Y004828D03*
X004820Y004828D03*
X003734Y004828D03*
X003731Y004828D03*
D145*
X003737Y004828D03*
X003740Y004828D03*
X004814Y004828D03*
X004817Y004828D03*
D146*
X004811Y004829D03*
X003743Y004829D03*
D147*
X003746Y004828D03*
X004805Y004828D03*
X004808Y004828D03*
D148*
X004802Y004829D03*
X003749Y004829D03*
D149*
X003752Y004828D03*
X003755Y004828D03*
X003758Y004828D03*
X004796Y004828D03*
X004799Y004828D03*
D150*
X004793Y004829D03*
X003761Y004829D03*
D151*
X003764Y004828D03*
X003767Y004828D03*
X003770Y004828D03*
X004784Y004828D03*
X004787Y004828D03*
X004790Y004828D03*
D152*
X004781Y004829D03*
X004778Y004829D03*
X003776Y004829D03*
X003773Y004829D03*
D153*
X003779Y004828D03*
X003782Y004828D03*
X003785Y004828D03*
X003788Y004828D03*
X004766Y004828D03*
X004769Y004828D03*
X004772Y004828D03*
X004775Y004828D03*
D154*
X004763Y004829D03*
X004760Y004829D03*
X004757Y004829D03*
X004754Y004829D03*
X004745Y004829D03*
X004739Y004829D03*
X003800Y004829D03*
X003797Y004829D03*
X003794Y004829D03*
X003791Y004829D03*
D155*
X003803Y004828D03*
X003806Y004828D03*
X003809Y004828D03*
X003812Y004828D03*
X003815Y004828D03*
X003818Y004828D03*
X003821Y004828D03*
X003824Y004828D03*
X003827Y004828D03*
X003830Y004828D03*
X004697Y004828D03*
X004700Y004828D03*
X004703Y004828D03*
X004706Y004828D03*
X004709Y004828D03*
X004712Y004828D03*
X004715Y004828D03*
X004718Y004828D03*
X004721Y004828D03*
X004724Y004828D03*
X004727Y004828D03*
X004730Y004828D03*
X004733Y004828D03*
X004736Y004828D03*
X004742Y004828D03*
X004748Y004828D03*
X004751Y004828D03*
D156*
X003947Y006125D03*
X004694Y006530D03*
D157*
X004694Y004340D03*
D158*
X004691Y006536D03*
X004688Y006536D03*
X004685Y006536D03*
X004682Y006536D03*
X004679Y006536D03*
X004676Y006536D03*
X004673Y006536D03*
X004670Y006536D03*
X004667Y006536D03*
X004664Y006536D03*
X004661Y006536D03*
X004658Y006536D03*
D159*
X004691Y004334D03*
D160*
X004688Y004329D03*
D161*
X004685Y004328D03*
D162*
X004682Y004326D03*
X004679Y004326D03*
X004676Y004326D03*
X004673Y004326D03*
X004670Y004326D03*
X004667Y004326D03*
X004664Y004326D03*
X004661Y004326D03*
X004658Y004326D03*
X004655Y004326D03*
X004652Y004326D03*
X004649Y004326D03*
X004646Y004326D03*
X004643Y004326D03*
X004640Y004326D03*
X004637Y004326D03*
X004634Y004326D03*
X004631Y004326D03*
X004628Y004326D03*
X004625Y004326D03*
X004622Y004326D03*
X004619Y004326D03*
X004616Y004326D03*
X004613Y004326D03*
X004610Y004326D03*
X004607Y004326D03*
X004604Y004326D03*
X004601Y004326D03*
X004598Y004326D03*
X004595Y004326D03*
X004592Y004326D03*
X004589Y004326D03*
X004586Y004326D03*
X004583Y004326D03*
X004580Y004326D03*
X004577Y004326D03*
X004574Y004326D03*
X004571Y004326D03*
X004568Y004326D03*
X004565Y004326D03*
X004562Y004326D03*
X004559Y004326D03*
X004556Y004326D03*
X004553Y004326D03*
X004550Y004326D03*
X004547Y004326D03*
X004544Y004326D03*
X004541Y004326D03*
X004538Y004326D03*
X004535Y004326D03*
X004532Y004326D03*
X004529Y004326D03*
X004526Y004326D03*
X004523Y004326D03*
X004520Y004326D03*
X004517Y004326D03*
D163*
X003944Y006118D03*
X004508Y006538D03*
X004511Y006538D03*
X004514Y006538D03*
X004517Y006538D03*
X004520Y006538D03*
X004523Y006538D03*
X004526Y006538D03*
X004529Y006538D03*
X004532Y006538D03*
X004535Y006538D03*
X004538Y006538D03*
X004541Y006538D03*
X004544Y006538D03*
X004547Y006538D03*
X004550Y006538D03*
X004553Y006538D03*
X004556Y006538D03*
X004559Y006538D03*
X004562Y006538D03*
X004565Y006538D03*
X004568Y006538D03*
X004571Y006538D03*
X004574Y006538D03*
X004577Y006538D03*
X004580Y006538D03*
X004583Y006538D03*
X004586Y006538D03*
X004589Y006538D03*
X004592Y006538D03*
X004595Y006538D03*
X004598Y006538D03*
X004601Y006538D03*
X004604Y006538D03*
X004607Y006538D03*
X004610Y006538D03*
X004613Y006538D03*
X004616Y006538D03*
X004619Y006538D03*
X004622Y006538D03*
X004625Y006538D03*
X004628Y006538D03*
X004631Y006538D03*
X004634Y006538D03*
X004637Y006538D03*
X004640Y006538D03*
X004643Y006538D03*
X004646Y006538D03*
X004649Y006538D03*
X004652Y006538D03*
X004655Y006538D03*
D164*
X004394Y006591D03*
X004391Y006591D03*
X004514Y005751D03*
X004232Y004351D03*
X004229Y004351D03*
X004226Y004351D03*
X004223Y004351D03*
X004220Y004351D03*
X004217Y004351D03*
X004214Y004351D03*
X004073Y003979D03*
X004043Y002803D03*
X004232Y002803D03*
D165*
X004262Y002783D03*
X004049Y002783D03*
X004496Y002783D03*
X004316Y003998D03*
X004514Y005474D03*
D166*
X004514Y004975D03*
D167*
X004514Y004190D03*
D168*
X004514Y003520D03*
D169*
X004514Y003180D03*
X004199Y002824D03*
X004298Y004371D03*
X004487Y004365D03*
X004079Y004371D03*
X004052Y005091D03*
X004217Y006570D03*
X004220Y006570D03*
X004322Y006570D03*
X004325Y006570D03*
D170*
X004466Y004358D03*
X004469Y004358D03*
X004256Y003968D03*
X004064Y003968D03*
X004217Y002813D03*
X004514Y002813D03*
D171*
X004511Y005749D03*
X004106Y006604D03*
X004103Y006604D03*
D172*
X004511Y004978D03*
D173*
X004511Y004193D03*
D174*
X004265Y003975D03*
X004070Y003975D03*
X004511Y003180D03*
X004229Y002805D03*
D175*
X004511Y002804D03*
D176*
X004367Y003056D03*
X004487Y004856D03*
X004508Y005747D03*
X004079Y006611D03*
X004076Y006611D03*
D177*
X004508Y004979D03*
D178*
X004508Y004190D03*
D179*
X004289Y003989D03*
X004136Y003989D03*
X004133Y003989D03*
X004130Y003989D03*
X004127Y003989D03*
X004088Y003989D03*
X004508Y003179D03*
X004418Y003068D03*
X004415Y003065D03*
X004412Y003065D03*
X004409Y003062D03*
X004406Y003062D03*
X004250Y002792D03*
X004112Y006602D03*
X004109Y006602D03*
X004424Y006602D03*
X004427Y006602D03*
D180*
X004499Y004853D03*
X004277Y003983D03*
X004154Y003983D03*
X004079Y003983D03*
X004508Y002798D03*
D181*
X004364Y003055D03*
X004361Y003055D03*
X004505Y003181D03*
X004325Y004000D03*
X004322Y004000D03*
X004319Y004000D03*
X004043Y005455D03*
X004052Y006073D03*
X004064Y006613D03*
X004067Y006613D03*
X004070Y006613D03*
X004073Y006613D03*
X004505Y006874D03*
D182*
X004505Y005745D03*
X004478Y004860D03*
X004412Y004005D03*
X004409Y004005D03*
X004406Y004005D03*
X004403Y004005D03*
X004400Y004005D03*
X004397Y004005D03*
X004394Y004005D03*
X004391Y004005D03*
X004388Y004005D03*
X004385Y004005D03*
X004382Y004005D03*
X004379Y004005D03*
X004376Y004005D03*
X004373Y004005D03*
X004370Y004005D03*
X004367Y004005D03*
X004364Y004005D03*
X004361Y004005D03*
X004358Y004005D03*
X004349Y003058D03*
X004274Y002775D03*
X004487Y002775D03*
D183*
X004211Y002818D03*
X004094Y004366D03*
X004481Y004363D03*
X004505Y004858D03*
X004343Y006576D03*
D184*
X004505Y004343D03*
D185*
X004286Y003988D03*
X004142Y003988D03*
X004139Y003988D03*
X004085Y003988D03*
X004496Y004855D03*
X004421Y006600D03*
X004115Y006600D03*
X004055Y006600D03*
X004247Y002794D03*
X004505Y002794D03*
D186*
X004268Y003977D03*
X004268Y004352D03*
X004265Y004352D03*
X004262Y004352D03*
X004259Y004352D03*
X004256Y004352D03*
X004253Y004352D03*
X004250Y004352D03*
X004247Y004352D03*
X004244Y004352D03*
X004241Y004352D03*
X004238Y004352D03*
X004235Y004352D03*
X004211Y004352D03*
X004208Y004352D03*
X004205Y004352D03*
X004202Y004352D03*
X004199Y004352D03*
X004196Y004352D03*
X004193Y004352D03*
X004190Y004352D03*
X004187Y004352D03*
X004184Y004352D03*
X004181Y004352D03*
X004178Y004352D03*
X004175Y004352D03*
X004172Y004352D03*
X004169Y004352D03*
X004271Y004352D03*
X004502Y004853D03*
X004388Y006590D03*
D187*
X004307Y004393D03*
X004502Y004369D03*
D188*
X004502Y003179D03*
X004346Y003059D03*
X004277Y002774D03*
X004055Y002774D03*
D189*
X004253Y002789D03*
X004502Y002789D03*
X004397Y003059D03*
X004394Y003059D03*
D190*
X004178Y002833D03*
X004175Y002833D03*
X004172Y002833D03*
X004169Y002833D03*
X004151Y002833D03*
X004148Y002833D03*
X004145Y002833D03*
X004142Y002833D03*
X004064Y004381D03*
X004499Y004375D03*
X004295Y006561D03*
X004292Y006561D03*
X004250Y006561D03*
X004247Y006561D03*
D191*
X004088Y006608D03*
X004490Y004856D03*
X004307Y003995D03*
X004304Y003995D03*
X004376Y003056D03*
X004379Y003056D03*
X004382Y003056D03*
X004499Y002786D03*
X004259Y002786D03*
D192*
X004187Y002829D03*
X004136Y002829D03*
X004052Y003951D03*
X004067Y004378D03*
X004301Y004378D03*
X004496Y004371D03*
X004304Y006564D03*
X004301Y006564D03*
X004241Y006564D03*
X004238Y006564D03*
D193*
X004100Y006605D03*
X004097Y006605D03*
X004058Y006605D03*
X004493Y004853D03*
X004298Y003992D03*
X004112Y003992D03*
X004109Y003992D03*
X004106Y003992D03*
X004103Y003992D03*
X004100Y003992D03*
X004097Y003992D03*
X004049Y003137D03*
X004385Y003056D03*
X004388Y003056D03*
D194*
X004190Y002828D03*
X004493Y004370D03*
D195*
X004331Y004001D03*
X004328Y004001D03*
X004484Y004859D03*
X004358Y003056D03*
X004268Y002780D03*
X004493Y002780D03*
D196*
X004196Y002825D03*
X004055Y003956D03*
X004076Y004373D03*
X004490Y004367D03*
X004319Y006569D03*
X004316Y006569D03*
X004223Y006569D03*
D197*
X004481Y004859D03*
X004424Y004004D03*
X004421Y004004D03*
X004418Y004004D03*
X004415Y004004D03*
X004355Y004004D03*
X004352Y004004D03*
X004349Y004004D03*
X004346Y004004D03*
X004343Y004004D03*
X004352Y003056D03*
X004490Y002777D03*
X004052Y002777D03*
D198*
X004202Y002822D03*
X004247Y003959D03*
X004082Y004370D03*
X004484Y004364D03*
X004328Y006572D03*
X004214Y006572D03*
X004211Y006572D03*
D199*
X004046Y005464D03*
X004472Y004864D03*
X004046Y004776D03*
X004055Y003139D03*
X004343Y003061D03*
X004280Y002773D03*
X004484Y002773D03*
D200*
X004253Y003965D03*
X004061Y003965D03*
X004097Y004364D03*
X004100Y004364D03*
X004292Y004364D03*
X004475Y004361D03*
X004478Y004361D03*
X004055Y005093D03*
X004346Y006578D03*
X004349Y006578D03*
D201*
X004475Y004862D03*
D202*
X004472Y004359D03*
X004412Y004363D03*
X004106Y004363D03*
X004103Y004363D03*
X004214Y002814D03*
X004352Y006579D03*
X004355Y006579D03*
D203*
X004460Y004356D03*
X004463Y004356D03*
X004220Y002811D03*
D204*
X004259Y003971D03*
X004286Y004358D03*
X004127Y004358D03*
X004124Y004358D03*
X004121Y004358D03*
X004445Y004358D03*
X004448Y004358D03*
X004451Y004358D03*
X004454Y004358D03*
X004457Y004358D03*
X004370Y006584D03*
X004367Y006584D03*
D205*
X004364Y006583D03*
X004361Y006583D03*
X004427Y004360D03*
X004430Y004360D03*
X004433Y004360D03*
X004436Y004360D03*
X004439Y004360D03*
X004442Y004360D03*
X004118Y004360D03*
X004115Y004360D03*
D206*
X004112Y004361D03*
X004109Y004361D03*
X004289Y004361D03*
X004415Y004361D03*
X004418Y004361D03*
X004421Y004361D03*
X004424Y004361D03*
X004358Y006581D03*
D207*
X004415Y006599D03*
X004418Y006599D03*
X004121Y006599D03*
X004118Y006599D03*
X004145Y003986D03*
X004283Y003986D03*
X004244Y002795D03*
D208*
X004280Y003985D03*
X004151Y003985D03*
X004148Y003985D03*
X004082Y003985D03*
X004124Y006598D03*
X004127Y006598D03*
X004412Y006598D03*
D209*
X004409Y006596D03*
X004406Y006596D03*
X004130Y006596D03*
X004052Y006596D03*
D210*
X004409Y004450D03*
D211*
X004406Y004451D03*
X004403Y004451D03*
D212*
X004274Y003981D03*
X004238Y002799D03*
X004400Y006594D03*
X004403Y006594D03*
D213*
X004295Y003990D03*
X004292Y003990D03*
X004124Y003990D03*
X004121Y003990D03*
X004118Y003990D03*
X004115Y003990D03*
X004094Y003990D03*
X004091Y003990D03*
X004400Y003060D03*
X004403Y003060D03*
X004391Y003058D03*
X004046Y002790D03*
D214*
X004400Y004453D03*
D215*
X004271Y003980D03*
X004076Y003980D03*
X004046Y003137D03*
X004235Y002801D03*
X004061Y005093D03*
X004397Y006593D03*
D216*
X004397Y004454D03*
X004394Y004454D03*
D217*
X004391Y004456D03*
X004388Y004456D03*
D218*
X004280Y004354D03*
X004277Y004354D03*
X004274Y004354D03*
X004166Y004354D03*
X004163Y004354D03*
X004160Y004354D03*
X004157Y004354D03*
X004154Y004354D03*
X004151Y004354D03*
X004049Y006589D03*
X004382Y006589D03*
X004385Y006589D03*
D219*
X004385Y004457D03*
X004382Y004457D03*
X004379Y004457D03*
D220*
X004283Y004355D03*
X004148Y004355D03*
X004145Y004355D03*
X004142Y004355D03*
X004139Y004355D03*
X004226Y002807D03*
X004376Y006587D03*
X004379Y006587D03*
D221*
X004376Y004459D03*
X004373Y004459D03*
X004370Y004459D03*
X004367Y004459D03*
D222*
X004136Y004356D03*
X004133Y004356D03*
X004130Y004356D03*
X004067Y003973D03*
X004262Y003973D03*
X004058Y005091D03*
X004373Y006585D03*
X004223Y002809D03*
D223*
X004370Y003054D03*
X004373Y003054D03*
X004313Y003996D03*
X004310Y003996D03*
X004085Y006609D03*
X004082Y006609D03*
X004061Y006609D03*
D224*
X004352Y004460D03*
X004355Y004460D03*
X004358Y004460D03*
X004361Y004460D03*
X004364Y004460D03*
D225*
X004340Y004003D03*
X004337Y004003D03*
X004334Y004003D03*
X004052Y003139D03*
X004355Y003058D03*
X004271Y002779D03*
D226*
X004325Y004461D03*
X004328Y004461D03*
X004331Y004461D03*
X004334Y004461D03*
X004337Y004461D03*
X004340Y004461D03*
X004343Y004461D03*
X004346Y004461D03*
X004349Y004461D03*
D227*
X004091Y004367D03*
X004250Y003962D03*
X004337Y006575D03*
X004340Y006575D03*
D228*
X004334Y006574D03*
X004331Y006574D03*
X004295Y004369D03*
X004088Y004369D03*
X004085Y004369D03*
D229*
X004313Y004463D03*
X004316Y004463D03*
X004319Y004463D03*
X004322Y004463D03*
D230*
X004073Y004375D03*
X004244Y003955D03*
X004229Y006568D03*
X004226Y006568D03*
X004313Y006568D03*
D231*
X004310Y006566D03*
X004307Y006566D03*
X004235Y006566D03*
X004232Y006566D03*
X004070Y004376D03*
D232*
X004310Y004414D03*
D233*
X004304Y004384D03*
X004283Y006559D03*
X004259Y006559D03*
D234*
X004094Y006606D03*
X004091Y006606D03*
X004301Y003994D03*
X004256Y002788D03*
D235*
X004184Y002831D03*
X004181Y002831D03*
X004139Y002831D03*
X004241Y003950D03*
X004244Y006563D03*
X004298Y006563D03*
D236*
X004289Y006560D03*
X004286Y006560D03*
X004256Y006560D03*
X004253Y006560D03*
X004049Y005093D03*
X004061Y004382D03*
D237*
X004058Y004385D03*
X004262Y006557D03*
X004265Y006557D03*
X004277Y006557D03*
X004280Y006557D03*
D238*
X004274Y006555D03*
X004271Y006555D03*
X004268Y006555D03*
D239*
X004265Y002781D03*
D240*
X004241Y002796D03*
D241*
X004238Y003945D03*
X004049Y003945D03*
D242*
X004235Y003940D03*
D243*
X004232Y003932D03*
D244*
X004229Y003904D03*
X004226Y003904D03*
X004223Y003904D03*
X004220Y003904D03*
X004217Y003904D03*
X004214Y003904D03*
X004211Y003904D03*
X004208Y003904D03*
X004205Y003904D03*
X004202Y003904D03*
X004199Y003904D03*
X004196Y003904D03*
X004193Y003904D03*
X004190Y003904D03*
X004187Y003904D03*
X004184Y003904D03*
X004181Y003904D03*
X004178Y003904D03*
X004175Y003904D03*
X004172Y003904D03*
X004169Y003904D03*
X004166Y003904D03*
D245*
X004208Y002819D03*
D246*
X004205Y002820D03*
X004043Y003135D03*
X004058Y003960D03*
D247*
X004193Y002826D03*
D248*
X004166Y002834D03*
X004163Y002834D03*
X004160Y002834D03*
X004157Y002834D03*
X004154Y002834D03*
D249*
X004157Y003905D03*
X004160Y003905D03*
X004163Y003905D03*
D250*
X004055Y004388D03*
D251*
X004052Y004391D03*
D252*
X004049Y006178D03*
D253*
X004046Y005091D03*
X004049Y004396D03*
D254*
X004046Y006334D03*
D255*
X004046Y004401D03*
X004043Y003928D03*
D256*
X004046Y003938D03*
D257*
X004043Y006326D03*
D258*
X004043Y004971D03*
D259*
X004043Y004411D03*
D260*
X004040Y006197D03*
X004037Y006197D03*
X004034Y006197D03*
X004031Y006197D03*
X004028Y006197D03*
X004025Y006197D03*
X004022Y006197D03*
X004019Y006197D03*
X004016Y006197D03*
X004013Y006197D03*
X004010Y006197D03*
X004007Y006197D03*
X004004Y006197D03*
X004001Y006197D03*
X003998Y006197D03*
X003995Y006197D03*
X003992Y006197D03*
X003989Y006197D03*
X003986Y006197D03*
X003983Y006197D03*
X003980Y006197D03*
X003977Y006197D03*
X003974Y006197D03*
X003971Y006197D03*
X003968Y006197D03*
X003965Y006197D03*
X003962Y006197D03*
X003959Y006197D03*
X003956Y006197D03*
X003953Y006197D03*
X003950Y006197D03*
D261*
X003950Y004892D03*
X003947Y004892D03*
X003944Y004892D03*
X003941Y004892D03*
X003938Y004892D03*
X003935Y004892D03*
X003932Y004892D03*
X003929Y004892D03*
X003926Y004892D03*
X003923Y004892D03*
X003920Y004892D03*
X003917Y004892D03*
X003890Y004892D03*
X003953Y004892D03*
X003956Y004892D03*
X003959Y004892D03*
X003962Y004892D03*
X003965Y004892D03*
X003968Y004892D03*
X003971Y004892D03*
X003974Y004892D03*
X003977Y004892D03*
X003980Y004892D03*
X003983Y004892D03*
X003986Y004892D03*
X003989Y004892D03*
X003992Y004892D03*
X003995Y004892D03*
X003998Y004892D03*
X004001Y004892D03*
X004004Y004892D03*
X004007Y004892D03*
X004010Y004892D03*
X004013Y004892D03*
X004016Y004892D03*
X004019Y004892D03*
X004022Y004892D03*
X004025Y004892D03*
X004028Y004892D03*
X004031Y004892D03*
X004034Y004892D03*
X004037Y004892D03*
X004040Y004892D03*
D262*
X004040Y003808D03*
X004037Y003808D03*
X004034Y003808D03*
X004031Y003808D03*
X004028Y003808D03*
X004025Y003808D03*
X004022Y003808D03*
X004019Y003808D03*
X004016Y003808D03*
X004013Y003808D03*
X004010Y003808D03*
X004007Y003808D03*
X004004Y003808D03*
X004001Y003808D03*
X003998Y003808D03*
X003995Y003808D03*
X003992Y003808D03*
X003989Y003808D03*
X003986Y003808D03*
X003983Y003808D03*
X003980Y003808D03*
X003977Y003808D03*
X003974Y003808D03*
X003971Y003808D03*
X003968Y003808D03*
X003965Y003808D03*
X003962Y003808D03*
X003959Y003808D03*
X003956Y003808D03*
X003953Y003808D03*
X003950Y003808D03*
X003947Y003808D03*
X003944Y003808D03*
X003941Y003808D03*
X003938Y003808D03*
X003935Y003808D03*
X003932Y003808D03*
X003929Y003808D03*
X003926Y003808D03*
X003923Y003808D03*
X003920Y003808D03*
X003917Y003808D03*
X003914Y003808D03*
X003911Y003808D03*
X003908Y003808D03*
X003905Y003808D03*
X003902Y003808D03*
X003893Y003810D03*
X003890Y003810D03*
X003887Y003810D03*
X003884Y003810D03*
D263*
X003884Y003035D03*
X003881Y003035D03*
X003878Y003035D03*
X003875Y003035D03*
X003872Y003035D03*
X003869Y003035D03*
X003866Y003035D03*
X003887Y003035D03*
X003890Y003035D03*
X003893Y003035D03*
X003896Y003035D03*
X003899Y003035D03*
X003902Y003035D03*
X003905Y003035D03*
X003908Y003035D03*
X003911Y003035D03*
X003914Y003035D03*
X003917Y003035D03*
X003920Y003035D03*
X003923Y003035D03*
X003926Y003035D03*
X003929Y003035D03*
X003932Y003035D03*
X003935Y003035D03*
X003938Y003035D03*
X003941Y003035D03*
X003944Y003035D03*
X003947Y003035D03*
X003950Y003035D03*
X003953Y003035D03*
X003956Y003035D03*
X003959Y003035D03*
X003962Y003035D03*
X003965Y003035D03*
X003968Y003035D03*
X003971Y003035D03*
X003974Y003035D03*
X003977Y003035D03*
X003980Y003035D03*
X003983Y003035D03*
X003986Y003035D03*
X003989Y003035D03*
X003992Y003035D03*
X003995Y003035D03*
X003998Y003035D03*
X004001Y003035D03*
X004004Y003035D03*
X004007Y003035D03*
X004010Y003035D03*
X004013Y003035D03*
X004016Y003035D03*
X004019Y003035D03*
X004022Y003035D03*
X004025Y003035D03*
X004028Y003035D03*
X004031Y003035D03*
X004034Y003035D03*
X004037Y003035D03*
X004040Y003035D03*
D264*
X003941Y006116D03*
D265*
X003938Y006114D03*
D266*
X003935Y006113D03*
D267*
X003932Y006111D03*
X003929Y006111D03*
D268*
X003926Y006110D03*
X003923Y006110D03*
X003920Y006110D03*
D269*
X003917Y006109D03*
X003914Y006109D03*
X003911Y006109D03*
X003908Y006109D03*
X003905Y006109D03*
D270*
X003836Y006313D03*
X003893Y004894D03*
X003896Y004894D03*
X003899Y004894D03*
X003902Y004894D03*
X003905Y004894D03*
X003908Y004894D03*
X003911Y004894D03*
X003914Y004894D03*
D271*
X003902Y006109D03*
X003899Y006109D03*
X003896Y006109D03*
X003893Y006109D03*
X003890Y006109D03*
X003887Y006109D03*
X003884Y006109D03*
X003881Y006109D03*
X003878Y006109D03*
X003875Y006109D03*
D272*
X003896Y003809D03*
X003899Y003809D03*
D273*
X003887Y004890D03*
D274*
X003884Y004889D03*
D275*
X003881Y004888D03*
D276*
X003881Y003812D03*
X003878Y003812D03*
X003875Y003812D03*
D277*
X003878Y004885D03*
X003833Y006304D03*
D278*
X003875Y004880D03*
D279*
X003872Y006329D03*
X003869Y006329D03*
X003866Y006329D03*
X003863Y006329D03*
X003860Y006329D03*
D280*
X003872Y004868D03*
D281*
X003872Y003815D03*
D282*
X003869Y004536D03*
X003866Y004536D03*
X003863Y004536D03*
X003860Y004536D03*
D283*
X003860Y003036D03*
X003857Y003036D03*
X003854Y003036D03*
X003851Y003036D03*
X003848Y003036D03*
X003863Y003036D03*
D284*
X003857Y006328D03*
X003854Y006328D03*
D285*
X003857Y004535D03*
D286*
X003854Y004535D03*
X003851Y004535D03*
D287*
X003851Y006326D03*
D288*
X003848Y006325D03*
D289*
X003848Y004534D03*
D290*
X003845Y006323D03*
D291*
X003845Y004530D03*
D292*
X003845Y003038D03*
X003842Y003038D03*
X003839Y003038D03*
X003836Y003038D03*
D293*
X003842Y006321D03*
D294*
X003842Y004529D03*
D295*
X003839Y006319D03*
D296*
X003839Y004526D03*
D297*
X003836Y004521D03*
D298*
X003833Y004514D03*
D299*
X003833Y003039D03*
D300*
X003728Y004829D03*
D301*
X003695Y004829D03*
D302*
X003689Y004828D03*
D303*
X003671Y004828D03*
D304*
X003653Y004829D03*
D305*
X003650Y004828D03*
D306*
X003644Y004828D03*
D307*
X003641Y004828D03*
D308*
X003638Y004828D03*
D309*
X003635Y004828D03*
D310*
X003632Y004829D03*
D311*
X003629Y004829D03*
D312*
X007356Y004875D02*
X007356Y005042D01*
X007439Y005125D01*
X007523Y005042D01*
X007523Y004875D01*
X007632Y004917D02*
X007632Y005084D01*
X007674Y005125D01*
X007799Y005125D01*
X007799Y004875D01*
X007674Y004875D01*
X007632Y004917D01*
X007523Y005000D02*
X007356Y005000D01*
X007356Y005275D02*
X007523Y005525D01*
X007632Y005525D02*
X007632Y005317D01*
X007674Y005275D01*
X007757Y005275D01*
X007799Y005317D01*
X007799Y005525D01*
X007908Y005442D02*
X007908Y005275D01*
X007908Y005400D02*
X008075Y005400D01*
X008075Y005442D02*
X008075Y005275D01*
X008033Y005125D02*
X007950Y005125D01*
X007908Y005084D01*
X007950Y005000D02*
X007908Y004958D01*
X007908Y004917D01*
X007950Y004875D01*
X008033Y004875D01*
X008075Y004917D01*
X008033Y005000D02*
X007950Y005000D01*
X008033Y005000D02*
X008075Y005042D01*
X008075Y005084D01*
X008033Y005125D01*
X008075Y005442D02*
X007992Y005525D01*
X007908Y005442D01*
X007523Y005275D02*
X007356Y005525D01*
X007356Y004525D02*
X007523Y004275D01*
X007632Y004317D02*
X007632Y004525D01*
X007523Y004525D02*
X007356Y004275D01*
X007523Y004125D02*
X007523Y003875D01*
X007356Y003875D01*
X007632Y003917D02*
X007674Y003875D01*
X007757Y003875D01*
X007799Y003917D01*
X007799Y004084D01*
X007757Y004125D01*
X007674Y004125D01*
X007632Y004084D01*
X007674Y004275D02*
X007632Y004317D01*
X007674Y004275D02*
X007757Y004275D01*
X007799Y004317D01*
X007799Y004525D01*
X007908Y004442D02*
X007908Y004275D01*
X007950Y004125D02*
X008033Y004125D01*
X008075Y004084D01*
X008075Y004042D01*
X008033Y004000D01*
X007950Y004000D01*
X007908Y003958D01*
X007908Y003917D01*
X007950Y003875D01*
X008033Y003875D01*
X008075Y003917D01*
X007908Y004084D02*
X007950Y004125D01*
X008075Y004275D02*
X008075Y004442D01*
X007992Y004525D01*
X007908Y004442D01*
X007908Y004400D02*
X008075Y004400D01*
X003402Y008742D02*
X003402Y008992D01*
X003277Y008992D01*
X003235Y008950D01*
X003235Y008867D01*
X003277Y008825D01*
X003402Y008825D01*
X003511Y008867D02*
X003511Y009075D01*
X003678Y009075D02*
X003678Y008867D01*
X003636Y008825D01*
X003553Y008825D01*
X003511Y008867D01*
X003787Y008950D02*
X003954Y008950D01*
X004055Y008825D02*
X004138Y008825D01*
X004097Y008825D02*
X004097Y009075D01*
X004138Y009075D01*
X004281Y009075D02*
X004281Y008825D01*
X004323Y008825D02*
X004239Y008825D01*
X004432Y008825D02*
X004432Y008992D01*
X004323Y009075D02*
X004281Y009075D01*
X004432Y008825D02*
X004557Y008825D01*
X004599Y008867D01*
X004599Y008992D01*
X004708Y009034D02*
X004708Y008950D01*
X004750Y008908D01*
X004875Y008908D01*
X004875Y008825D02*
X004875Y009075D01*
X004750Y009075D01*
X004708Y009034D01*
X003126Y008950D02*
X003084Y008992D01*
X002959Y008992D01*
X003000Y008908D02*
X003084Y008908D01*
X003126Y008950D01*
X003126Y008825D02*
X003000Y008825D01*
X002959Y008867D01*
X003000Y008908D01*
M02*
